M48
; DRILL file KiCad 10.0.6 date 2026-10-07T19:56:17
; FORMAT={-:-/ absolute / metric / decimal}
; #@! TF.CreationDate,2026-10-07T19:56:17-04:00
; #@! TF.GenerationSoftware,Kicad,Pcbnew,10.0.6
; #@! TF.FileFunction,Plated,1,2,PTH
FMAT,2
METRIC
; #@! TA.AperFunction,Plated,PTH,ComponentDrill
T1C0.700
; #@! TA.AperFunction,Plated,PTH,ComponentDrill
T2C0.750
; #@! TA.AperFunction,Plated,PTH,ComponentDrill
T3C0.800
; #@! TA.AperFunction,Plated,PTH,ComponentDrill
T4C0.889
; #@! TA.AperFunction,Plated,PTH,ComponentDrill
T5C1.000
; #@! TA.AperFunction,Plated,PTH,ComponentDrill
T6C1.020
; #@! TA.AperFunction,Plated,PTH,ComponentDrill
T7C1.100
; #@! TA.AperFunction,Plated,PTH,ComponentDrill
T8C1.500
%
G90
G05
T1
X151.5Y-88.46
X151.5Y-96.08
X170.34Y-114.58
X177.96Y-114.58
T2
X165.5Y-119.58
X167.5Y-119.58
T3
X157.0Y-88.46
X157.0Y-91.0
X157.0Y-93.54
X157.0Y-96.08
X177.5Y-119.58
X177.5Y-122.78
X180.0Y-119.58
X180.0Y-122.78
X182.5Y-119.58
X182.5Y-122.78
T4
X165.38Y-84.791
X165.38Y-100.031
X167.92Y-84.791
X167.92Y-100.031
X170.46Y-84.791
X170.46Y-100.031
X173.0Y-84.791
X173.0Y-100.031
X175.54Y-84.791
X175.54Y-100.031
X178.08Y-84.791
X178.08Y-100.031
X180.62Y-84.791
X180.62Y-100.031
T5
X168.19Y-79.088
X170.73Y-79.088
X173.27Y-79.088
X175.81Y-79.088
X188.11Y-85.08
X190.65Y-85.08
X193.19Y-85.08
X195.73Y-85.08
X198.27Y-85.08
X200.81Y-85.08
X203.35Y-85.08
X205.89Y-85.08
T6
X168.38Y-107.58
X170.92Y-107.58
X173.46Y-107.58
X176.0Y-107.58
T7
X185.0Y-105.5
X185.0Y-115.66
T8
X142.69Y-68.04
X149.04Y-65.5
X193.11Y-68.04
X199.46Y-65.5
M30
