M48
; DRILL file KiCad 10.0.6 date 2026-10-06T19:27:01
; FORMAT={-:-/ absolute / metric / decimal}
; #@! TF.CreationDate,2026-10-06T19:27:01-04:00
; #@! TF.GenerationSoftware,Kicad,Pcbnew,10.0.6
; #@! TF.FileFunction,Plated,1,2,PTH
FMAT,2
METRIC
; #@! TA.AperFunction,Plated,PTH,ComponentDrill
T1C0.700
; #@! TA.AperFunction,Plated,PTH,ComponentDrill
T2C0.800
; #@! TA.AperFunction,Plated,PTH,ComponentDrill
T3C0.889
; #@! TA.AperFunction,Plated,PTH,ComponentDrill
T4C1.000
; #@! TA.AperFunction,Plated,PTH,ComponentDrill
T5C1.500
%
G90
G05
T1
X152.5Y-82.69
X152.5Y-90.31
T2
X184.5Y-80.92
X184.5Y-83.46
X184.5Y-86.0
X184.5Y-88.54
T3
X159.061Y-79.88
X159.061Y-95.12
X161.601Y-79.88
X161.601Y-95.12
X164.141Y-79.88
X164.141Y-95.12
X166.681Y-79.88
X166.681Y-95.12
X169.221Y-79.88
X169.221Y-95.12
X171.761Y-79.88
X171.761Y-95.12
X174.302Y-79.88
X174.302Y-95.12
T4
X159.3Y-47.0
X161.84Y-47.0
X163.19Y-51.992
X164.38Y-47.0
X165.73Y-51.992
X166.92Y-47.0
X168.27Y-51.992
X169.46Y-47.0
X170.81Y-51.992
X172.0Y-47.0
X174.54Y-47.0
X177.08Y-47.0
T5
X139.69Y-61.96
X146.04Y-59.42
X186.19Y-62.96
X192.54Y-60.42
M30
