%TF.GenerationSoftware,KiCad,Pcbnew,10.0.6*%
%TF.CreationDate,2026-10-07T19:55:26-04:00*%
%TF.ProjectId,Starbie,53746172-6269-4652-9e6b-696361645f70,rev?*%
%TF.SameCoordinates,Original*%
%TF.FileFunction,Soldermask,Bot*%
%TF.FilePolarity,Negative*%
%FSLAX46Y46*%
G04 Gerber Fmt 4.6, Leading zero omitted, Abs format (unit mm)*
G04 Created by KiCad (PCBNEW 10.0.6) date 2026-10-07 19:55:26*
%MOMM*%
%LPD*%
G01*
G04 APERTURE LIST*
G04 Aperture macros list*
%AMRoundRect*
0 Rectangle with rounded corners*
0 $1 Rounding radius*
0 $2 $3 $4 $5 $6 $7 $8 $9 X,Y pos of 4 corners*
0 Add a 4 corners polygon primitive as box body*
4,1,4,$2,$3,$4,$5,$6,$7,$8,$9,$2,$3,0*
0 Add four circle primitives for the rounded corners*
1,1,$1+$1,$2,$3*
1,1,$1+$1,$4,$5*
1,1,$1+$1,$6,$7*
1,1,$1+$1,$8,$9*
0 Add four rect primitives between the rounded corners*
20,1,$1+$1,$2,$3,$4,$5,0*
20,1,$1+$1,$4,$5,$6,$7,0*
20,1,$1+$1,$6,$7,$8,$9,0*
20,1,$1+$1,$8,$9,$2,$3,0*%
G04 Aperture macros list end*
%ADD10C,1.524000*%
%ADD11O,1.730000X2.030000*%
%ADD12R,1.730000X2.030000*%
%ADD13C,1.100000*%
%ADD14C,1.400000*%
%ADD15O,3.800000X2.900000*%
%ADD16R,1.700000X1.700000*%
%ADD17O,1.700000X1.700000*%
%ADD18C,2.200000*%
%ADD19RoundRect,0.249999X-0.850001X0.850001X-0.850001X-0.850001X0.850001X-0.850001X0.850001X0.850001X0*%
%ADD20C,1.500000*%
%ADD21R,1.500000X1.500000*%
%ADD22RoundRect,0.250000X-0.350000X-0.625000X0.350000X-0.625000X0.350000X0.625000X-0.350000X0.625000X0*%
%ADD23O,1.200000X1.750000*%
%ADD24C,1.700000*%
%ADD25C,4.000000*%
%ADD26C,1.600000*%
%ADD27R,1.600000X1.600000*%
G04 APERTURE END LIST*
D10*
%TO.C,U3*%
X180620000Y-100031000D03*
X178080000Y-100031000D03*
X175540000Y-100031000D03*
X173000000Y-100031000D03*
X170460000Y-100031000D03*
X167920000Y-100031000D03*
X165380000Y-100031000D03*
X165380000Y-84791000D03*
X167920000Y-84791000D03*
X170460000Y-84791000D03*
X173000000Y-84791000D03*
X175540000Y-84791000D03*
X178080000Y-84791000D03*
X180620000Y-84791000D03*
%TD*%
D11*
%TO.C,U1*%
X176000000Y-107580000D03*
X173460000Y-107580000D03*
X170920000Y-107580000D03*
D12*
X168380000Y-107580000D03*
D13*
X173460000Y-105420000D03*
%TD*%
D14*
%TO.C,R2*%
X170340000Y-114580000D03*
X177960000Y-114580000D03*
%TD*%
D15*
%TO.C,J1*%
X183176000Y-78453000D03*
X183176000Y-55339000D03*
X160824000Y-78453000D03*
X160824000Y-55339000D03*
D16*
X175810000Y-79088000D03*
D17*
X173270000Y-79088000D03*
X170730000Y-79088000D03*
X168190000Y-79088000D03*
%TD*%
D18*
%TO.C,D1*%
X185000000Y-115660000D03*
D19*
X185000000Y-105500000D03*
%TD*%
D14*
%TO.C,R1*%
X151500000Y-96080000D03*
X151500000Y-88460000D03*
%TD*%
D20*
%TO.C,U2*%
X157000000Y-96080000D03*
X157000000Y-93540000D03*
X157000000Y-91000000D03*
D21*
X157000000Y-88460000D03*
%TD*%
D22*
%TO.C,J3*%
X165500000Y-119580000D03*
D23*
X167500000Y-119580000D03*
%TD*%
D24*
%TO.C,SW2*%
X191840000Y-70580000D03*
D25*
X196920000Y-70580000D03*
D24*
X202000000Y-70580000D03*
D18*
X199460000Y-65500000D03*
X193110000Y-68040000D03*
%TD*%
D24*
%TO.C,J2*%
X188110000Y-85080000D03*
X190650000Y-85080000D03*
X193190000Y-85080000D03*
X195730000Y-85080000D03*
X198270000Y-85080000D03*
X200810000Y-85080000D03*
X203350000Y-85080000D03*
D16*
X205890000Y-85080000D03*
%TD*%
D24*
%TO.C,SW1*%
X141420000Y-70580000D03*
D25*
X146500000Y-70580000D03*
D24*
X151580000Y-70580000D03*
D18*
X149040000Y-65500000D03*
X142690000Y-68040000D03*
%TD*%
D26*
%TO.C,SW4*%
X182500000Y-122780000D03*
X180000000Y-122780000D03*
X177500000Y-122780000D03*
X182500000Y-119580000D03*
X180000000Y-119580000D03*
D27*
X177500000Y-119580000D03*
%TD*%
M02*
