%TF.GenerationSoftware,KiCad,Pcbnew,10.0.6*%
%TF.CreationDate,2026-10-07T19:55:26-04:00*%
%TF.ProjectId,Starbie,53746172-6269-4652-9e6b-696361645f70,rev?*%
%TF.SameCoordinates,Original*%
%TF.FileFunction,Copper,L1,Top*%
%TF.FilePolarity,Positive*%
%FSLAX46Y46*%
G04 Gerber Fmt 4.6, Leading zero omitted, Abs format (unit mm)*
G04 Created by KiCad (PCBNEW 10.0.6) date 2026-10-07 19:55:26*
%MOMM*%
%LPD*%
G01*
G04 APERTURE LIST*
G04 Aperture macros list*
%AMRoundRect*
0 Rectangle with rounded corners*
0 $1 Rounding radius*
0 $2 $3 $4 $5 $6 $7 $8 $9 X,Y pos of 4 corners*
0 Add a 4 corners polygon primitive as box body*
4,1,4,$2,$3,$4,$5,$6,$7,$8,$9,$2,$3,0*
0 Add four circle primitives for the rounded corners*
1,1,$1+$1,$2,$3*
1,1,$1+$1,$4,$5*
1,1,$1+$1,$6,$7*
1,1,$1+$1,$8,$9*
0 Add four rect primitives between the rounded corners*
20,1,$1+$1,$2,$3,$4,$5,0*
20,1,$1+$1,$4,$5,$6,$7,0*
20,1,$1+$1,$6,$7,$8,$9,0*
20,1,$1+$1,$8,$9,$2,$3,0*%
G04 Aperture macros list end*
%TA.AperFunction,SMDPad,CuDef*%
%ADD10RoundRect,0.152400X-0.609600X1.063600X-0.609600X-1.063600X0.609600X-1.063600X0.609600X1.063600X0*%
%TD*%
%TA.AperFunction,ComponentPad*%
%ADD11C,1.524000*%
%TD*%
%TA.AperFunction,SMDPad,CuDef*%
%ADD12RoundRect,0.152400X0.609600X-1.063600X0.609600X1.063600X-0.609600X1.063600X-0.609600X-1.063600X0*%
%TD*%
%TA.AperFunction,ComponentPad*%
%ADD13O,1.730000X2.030000*%
%TD*%
%TA.AperFunction,ComponentPad*%
%ADD14R,1.730000X2.030000*%
%TD*%
%TA.AperFunction,ComponentPad*%
%ADD15C,1.400000*%
%TD*%
%TA.AperFunction,ComponentPad*%
%ADD16R,1.700000X1.700000*%
%TD*%
%TA.AperFunction,ComponentPad*%
%ADD17O,1.700000X1.700000*%
%TD*%
%TA.AperFunction,ComponentPad*%
%ADD18C,2.200000*%
%TD*%
%TA.AperFunction,ComponentPad*%
%ADD19RoundRect,0.249999X-0.850001X0.850001X-0.850001X-0.850001X0.850001X-0.850001X0.850001X0.850001X0*%
%TD*%
%TA.AperFunction,ComponentPad*%
%ADD20C,1.500000*%
%TD*%
%TA.AperFunction,ComponentPad*%
%ADD21R,1.500000X1.500000*%
%TD*%
%TA.AperFunction,ComponentPad*%
%ADD22RoundRect,0.250000X-0.350000X-0.625000X0.350000X-0.625000X0.350000X0.625000X-0.350000X0.625000X0*%
%TD*%
%TA.AperFunction,ComponentPad*%
%ADD23O,1.200000X1.750000*%
%TD*%
%TA.AperFunction,ComponentPad*%
%ADD24C,1.700000*%
%TD*%
%TA.AperFunction,ComponentPad*%
%ADD25C,1.600000*%
%TD*%
%TA.AperFunction,ComponentPad*%
%ADD26R,1.600000X1.600000*%
%TD*%
%TA.AperFunction,Conductor*%
%ADD27C,0.200000*%
%TD*%
G04 APERTURE END LIST*
D10*
%TO.P,U3,14,VBUS_14*%
%TO.N,+5V*%
X180620000Y-100866000D03*
D11*
X180620000Y-100031000D03*
D10*
%TO.P,U3,13,GND_13*%
%TO.N,GND*%
X178080000Y-100866000D03*
D11*
X178080000Y-100031000D03*
D10*
%TO.P,U3,12,3V3_OUT_12*%
%TO.N,+3.3V*%
X175540000Y-100866000D03*
D11*
X175540000Y-100031000D03*
D10*
%TO.P,U3,11,D10_11*%
%TO.N,unconnected-(U3-D10-Pad11)*%
X173000000Y-100866000D03*
D11*
%TO.N,unconnected-(U3-D10-Pad11)_1*%
X173000000Y-100031000D03*
D10*
%TO.P,U3,10,D9/BOOT_10*%
%TO.N,unconnected-(U3-D9{slash}BOOT-Pad10)_1*%
X170460000Y-100866000D03*
D11*
%TO.N,unconnected-(U3-D9{slash}BOOT-Pad10)*%
X170460000Y-100031000D03*
D10*
%TO.P,U3,9,D8_9*%
%TO.N,unconnected-(U3-D8-Pad9)*%
X167920000Y-100866000D03*
D11*
%TO.N,unconnected-(U3-D8-Pad9)_1*%
X167920000Y-100031000D03*
D10*
%TO.P,U3,8,D7_8*%
%TO.N,unconnected-(U3-D7-Pad8)*%
X165380000Y-100866000D03*
D11*
%TO.N,unconnected-(U3-D7-Pad8)_1*%
X165380000Y-100031000D03*
%TO.P,U3,7,D6_7*%
%TO.N,unconnected-(U3-D6-Pad7)*%
X165380000Y-84791000D03*
D12*
%TO.N,unconnected-(U3-D6-Pad7)_1*%
X165380000Y-83956000D03*
D11*
%TO.P,U3,6,D5_6*%
%TO.N,/SDA*%
X167920000Y-84791000D03*
D12*
X167920000Y-83956000D03*
D11*
%TO.P,U3,5,D4_5*%
%TO.N,/SCL*%
X170460000Y-84791000D03*
D12*
X170460000Y-83956000D03*
D11*
%TO.P,U3,4,D3_4*%
%TO.N,/GPIO3*%
X173000000Y-84791000D03*
D12*
X173000000Y-83956000D03*
D11*
%TO.P,U3,3,D2_3*%
%TO.N,/GPIO2*%
X175540000Y-84791000D03*
D12*
X175540000Y-83956000D03*
D11*
%TO.P,U3,2,D1_2*%
%TO.N,/DHT11 DATA*%
X178080000Y-84791000D03*
D12*
X178080000Y-83956000D03*
D11*
%TO.P,U3,1,D0_1*%
%TO.N,unconnected-(U3-D0-Pad1)_1*%
X180620000Y-84791000D03*
D12*
%TO.N,unconnected-(U3-D0-Pad1)*%
X180620000Y-83956000D03*
%TD*%
D13*
%TO.P,U1,4,V_{CC}_4*%
%TO.N,+5V*%
X176000000Y-107580000D03*
%TO.P,U1,3,GND_3*%
%TO.N,GND*%
X173460000Y-107580000D03*
%TO.P,U1,2,PROG_2*%
%TO.N,Net-(U1-PROG)*%
X170920000Y-107580000D03*
D14*
%TO.P,U1,1,TEMP_1*%
%TO.N,GND*%
X168380000Y-107580000D03*
%TD*%
D15*
%TO.P,R2,1*%
%TO.N,GND*%
X170340000Y-114580000D03*
%TO.P,R2,2*%
%TO.N,Net-(U1-PROG)*%
X177960000Y-114580000D03*
%TD*%
D16*
%TO.P,J1,1,Pin_1_1*%
%TO.N,GND*%
X175810000Y-79088000D03*
D17*
%TO.P,J1,2,Pin_2_2*%
%TO.N,+3.3V*%
X173270000Y-79088000D03*
%TO.P,J1,3,Pin_3_3*%
%TO.N,/SCL*%
X170730000Y-79088000D03*
%TO.P,J1,4,Pin_4_4*%
%TO.N,/SDA*%
X168190000Y-79088000D03*
%TD*%
D18*
%TO.P,D1,2,A_2*%
%TO.N,Net-(D1-A)*%
X185000000Y-115660000D03*
D19*
%TO.P,D1,1,K_1*%
%TO.N,+5V*%
X185000000Y-105500000D03*
%TD*%
D15*
%TO.P,R1,2*%
%TO.N,/DHT11 DATA*%
X151500000Y-96080000D03*
%TO.P,R1,1*%
%TO.N,+3.3V*%
X151500000Y-88460000D03*
%TD*%
D20*
%TO.P,U2,4,GND_4*%
%TO.N,GND*%
X157000000Y-96080000D03*
%TO.P,U2,3,NC_3*%
%TO.N,unconnected-(U2-NC-Pad3)*%
X157000000Y-93540000D03*
%TO.P,U2,2,DATA_2*%
%TO.N,/DHT11 DATA*%
X157000000Y-91000000D03*
D21*
%TO.P,U2,1,VDD_1*%
%TO.N,+3.3V*%
X157000000Y-88460000D03*
%TD*%
D22*
%TO.P,J3,1,Pin_1_1*%
%TO.N,/(+)*%
X165500000Y-119580000D03*
D23*
%TO.P,J3,2,Pin_2_2*%
%TO.N,GND*%
X167500000Y-119580000D03*
%TD*%
D18*
%TO.P,SW2,1,1_1*%
%TO.N,/GPIO3*%
X199460000Y-65500000D03*
%TO.P,SW2,2,2_2*%
%TO.N,GND*%
X193110000Y-68040000D03*
%TD*%
D24*
%TO.P,J2,8,Pin_8_8*%
%TO.N,unconnected-(J2-Pin_8-Pad8)*%
X188110000Y-85080000D03*
%TO.P,J2,7,Pin_7_7*%
%TO.N,unconnected-(J2-Pin_7-Pad7)*%
X190650000Y-85080000D03*
%TO.P,J2,6,Pin_6_6*%
%TO.N,unconnected-(J2-Pin_6-Pad6)*%
X193190000Y-85080000D03*
%TO.P,J2,5,Pin_5_5*%
%TO.N,unconnected-(J2-Pin_5-Pad5)*%
X195730000Y-85080000D03*
%TO.P,J2,4,Pin_4_4*%
%TO.N,/SDA*%
X198270000Y-85080000D03*
%TO.P,J2,3,Pin_3_3*%
%TO.N,/SCL*%
X200810000Y-85080000D03*
%TO.P,J2,2,Pin_2_2*%
%TO.N,GND*%
X203350000Y-85080000D03*
D16*
%TO.P,J2,1,Pin_1_1*%
%TO.N,+3.3V*%
X205890000Y-85080000D03*
%TD*%
D18*
%TO.P,SW1,1,1_1*%
%TO.N,/GPIO2*%
X149040000Y-65500000D03*
%TO.P,SW1,2,2_2*%
%TO.N,GND*%
X142690000Y-68040000D03*
%TD*%
D25*
%TO.P,SW4,6*%
%TO.N,N/C*%
X182500000Y-122780000D03*
%TO.P,SW4,5*%
X180000000Y-122780000D03*
%TO.P,SW4,4*%
X177500000Y-122780000D03*
%TO.P,SW4,3,C_3*%
%TO.N,/(+)*%
X182500000Y-119580000D03*
%TO.P,SW4,2,B_2*%
%TO.N,Net-(D1-A)*%
X180000000Y-119580000D03*
D26*
%TO.P,SW4,1,A_1*%
%TO.N,unconnected-(SW4-A-Pad1)*%
X177500000Y-119580000D03*
%TD*%
%TO.N,Net-(D1-A)*%
D27*
X185000000Y-115660000D02*
X183920000Y-115660000D01*
X183920000Y-115660000D02*
X180000000Y-119580000D01*
%TO.N,+5V*%
X180620000Y-101120000D02*
X185000000Y-105500000D01*
X180620000Y-100031000D02*
X180620000Y-101120000D01*
%TO.N,+3.3V*%
X188258000Y-64100000D02*
X173270000Y-79088000D01*
X200039899Y-64100000D02*
X188258000Y-64100000D01*
X205890000Y-85080000D02*
X205890000Y-69950101D01*
X205890000Y-69950101D02*
X200039899Y-64100000D01*
%TO.N,/(+)*%
X165500000Y-119580000D02*
X166675000Y-120755000D01*
X181325000Y-120755000D02*
X182500000Y-119580000D01*
X166675000Y-120755000D02*
X181325000Y-120755000D01*
%TO.N,+3.3V*%
X150500000Y-96494214D02*
X150500000Y-89460000D01*
X175540000Y-100031000D02*
X174089000Y-98580000D01*
X174089000Y-98580000D02*
X152585786Y-98580000D01*
X152585786Y-98580000D02*
X150500000Y-96494214D01*
X150500000Y-89460000D02*
X151500000Y-88460000D01*
%TO.N,Net-(U1-PROG)*%
X170920000Y-107580000D02*
X170960000Y-107580000D01*
%TO.N,+5V*%
X180620000Y-100031000D02*
X180620000Y-102960000D01*
X180620000Y-102960000D02*
X176000000Y-107580000D01*
%TO.N,+3.3V*%
X147640000Y-64920101D02*
X148460101Y-64100000D01*
X147640000Y-66079899D02*
X147640000Y-64920101D01*
X158282000Y-64100000D02*
X173270000Y-79088000D01*
X157000000Y-74280101D02*
X149619899Y-66900000D01*
X149619899Y-66900000D02*
X148460101Y-66900000D01*
X157000000Y-88460000D02*
X157000000Y-74280101D01*
X148460101Y-66900000D02*
X147640000Y-66079899D01*
X148460101Y-64100000D02*
X158282000Y-64100000D01*
%TO.N,/DHT11 DATA*%
X157000000Y-91000000D02*
X171871000Y-91000000D01*
X171871000Y-91000000D02*
X178080000Y-84791000D01*
%TO.N,/GPIO2*%
X171938000Y-85230895D02*
X172560105Y-85853000D01*
X149040000Y-65500000D02*
X156420000Y-65500000D01*
X156420000Y-65500000D02*
X169580000Y-78660000D01*
X169580000Y-78660000D02*
X169580000Y-80342786D01*
X171938000Y-82700786D02*
X171938000Y-85230895D01*
X169580000Y-80342786D02*
X171938000Y-82700786D01*
X174478000Y-85853000D02*
X175540000Y-84791000D01*
X172560105Y-85853000D02*
X174478000Y-85853000D01*
%TO.N,/GPIO3*%
X173000000Y-84178786D02*
X173000000Y-84791000D01*
X191678786Y-65500000D02*
X173000000Y-84178786D01*
X199460000Y-65500000D02*
X191678786Y-65500000D01*
%TO.N,+3.3V*%
X151500000Y-88460000D02*
X157000000Y-88460000D01*
%TO.N,/DHT11 DATA*%
X157000000Y-91000000D02*
X151920000Y-96080000D01*
X151920000Y-96080000D02*
X151500000Y-96080000D01*
%TO.N,Net-(U1-PROG)*%
X177960000Y-114580000D02*
X175960000Y-112580000D01*
X171000000Y-112580000D02*
X170920000Y-112500000D01*
X175960000Y-112580000D02*
X171000000Y-112580000D01*
X170920000Y-112500000D02*
X170920000Y-107580000D01*
%TD*%
%TA.AperFunction,Conductor*%
%TO.N,GND*%
G36*
X175960000Y-80256210D02*
G01*
X175971579Y-80277416D01*
X175966595Y-80347108D01*
X175938094Y-80391455D01*
X174045893Y-82283656D01*
X173984570Y-82317141D01*
X173914878Y-82312157D01*
X173895093Y-82302708D01*
X173870959Y-82288436D01*
X173870954Y-82288434D01*
X173712552Y-82242413D01*
X173712546Y-82242412D01*
X173675541Y-82239500D01*
X173675534Y-82239500D01*
X172377312Y-82239500D01*
X172310273Y-82219815D01*
X172289631Y-82203181D01*
X170736630Y-80650181D01*
X170703145Y-80588858D01*
X170708129Y-80519166D01*
X170750001Y-80463233D01*
X170815465Y-80438816D01*
X170824311Y-80438500D01*
X170836286Y-80438500D01*
X170836287Y-80438500D01*
X171046243Y-80405246D01*
X171248412Y-80339557D01*
X171437816Y-80243051D01*
X171519501Y-80183704D01*
X171609786Y-80118109D01*
X171609788Y-80118106D01*
X171609792Y-80118104D01*
X171760104Y-79967792D01*
X171760106Y-79967788D01*
X171760109Y-79967786D01*
X171885048Y-79795820D01*
X171885047Y-79795820D01*
X171885051Y-79795816D01*
X171889514Y-79787054D01*
X171937488Y-79736259D01*
X172005308Y-79719463D01*
X172071444Y-79741999D01*
X172110484Y-79787054D01*
X172113028Y-79792046D01*
X172114951Y-79795820D01*
X172239890Y-79967786D01*
X172390213Y-80118109D01*
X172562179Y-80243048D01*
X172562181Y-80243049D01*
X172562184Y-80243051D01*
X172751588Y-80339557D01*
X172953757Y-80405246D01*
X173163713Y-80438500D01*
X173163714Y-80438500D01*
X173376286Y-80438500D01*
X173376287Y-80438500D01*
X173586243Y-80405246D01*
X173788412Y-80339557D01*
X173977816Y-80243051D01*
X174059501Y-80183704D01*
X174149786Y-80118109D01*
X174149788Y-80118106D01*
X174149792Y-80118104D01*
X174300104Y-79967792D01*
X174300106Y-79967788D01*
X174300109Y-79967786D01*
X174425046Y-79795823D01*
X174425048Y-79795820D01*
X174425051Y-79795816D01*
X174425508Y-79794918D01*
X174425774Y-79794636D01*
X174427596Y-79791664D01*
X174428220Y-79792046D01*
X174473473Y-79744117D01*
X174541291Y-79727311D01*
X174607429Y-79749838D01*
X174650890Y-79804546D01*
X174660000Y-79851197D01*
X174660000Y-79982785D01*
X174660002Y-79982808D01*
X174662908Y-80007869D01*
X174662909Y-80007873D01*
X174708211Y-80110474D01*
X174708214Y-80110479D01*
X174787520Y-80189785D01*
X174787525Y-80189788D01*
X174890123Y-80235089D01*
X174915206Y-80237999D01*
X175659999Y-80237999D01*
X175660000Y-80237998D01*
X175660000Y-79565445D01*
X175744174Y-79588000D01*
X175875826Y-79588000D01*
X175960000Y-79565445D01*
X175960000Y-80256210D01*
G37*
%TD.AperFunction*%
%TA.AperFunction,Conductor*%
G36*
X191469877Y-64720185D02*
G01*
X191515632Y-64772989D01*
X191525576Y-64842147D01*
X191496551Y-64905703D01*
X191454038Y-64936357D01*
X191454040Y-64936359D01*
X191454022Y-64936368D01*
X191450288Y-64939062D01*
X191446997Y-64940424D01*
X191310076Y-65019475D01*
X191310068Y-65019481D01*
X191198264Y-65131286D01*
X177113455Y-79216093D01*
X177052132Y-79249578D01*
X176982440Y-79244594D01*
X176972180Y-79238000D01*
X176287445Y-79238000D01*
X176310000Y-79153826D01*
X176310000Y-79022174D01*
X176287445Y-78938000D01*
X176959999Y-78938000D01*
X176959999Y-78193214D01*
X176959997Y-78193191D01*
X176957091Y-78168130D01*
X176957090Y-78168126D01*
X176911788Y-78065525D01*
X176911785Y-78065520D01*
X176832479Y-77986214D01*
X176832474Y-77986211D01*
X176729876Y-77940910D01*
X176704794Y-77938000D01*
X175960000Y-77938000D01*
X175960000Y-78610554D01*
X175875826Y-78588000D01*
X175744174Y-78588000D01*
X175660000Y-78610554D01*
X175660000Y-77938000D01*
X175568595Y-77938000D01*
X175501556Y-77918315D01*
X175455801Y-77865511D01*
X175445857Y-77796353D01*
X175474882Y-77732797D01*
X175480899Y-77726334D01*
X188470416Y-64736819D01*
X188531739Y-64703334D01*
X188558097Y-64700500D01*
X191402838Y-64700500D01*
X191469877Y-64720185D01*
G37*
%TD.AperFunction*%
%TA.AperFunction,Conductor*%
G36*
X209123539Y-49558584D02*
G01*
X209190446Y-49578703D01*
X209235857Y-49631803D01*
X209246728Y-49683371D01*
X208754682Y-126934397D01*
X208734571Y-127001310D01*
X208681477Y-127046727D01*
X208629880Y-127057604D01*
X135627658Y-126583565D01*
X135560748Y-126563446D01*
X135515337Y-126510346D01*
X135504466Y-126458781D01*
X135552580Y-118904983D01*
X164399500Y-118904983D01*
X164399500Y-120255001D01*
X164399501Y-120255018D01*
X164410000Y-120357796D01*
X164410001Y-120357799D01*
X164433003Y-120427213D01*
X164465186Y-120524334D01*
X164557288Y-120673656D01*
X164681344Y-120797712D01*
X164830666Y-120889814D01*
X164997203Y-120944999D01*
X165099991Y-120955500D01*
X165900008Y-120955499D01*
X165955944Y-120949785D01*
X166024637Y-120962555D01*
X166056227Y-120985462D01*
X166190139Y-121119374D01*
X166190149Y-121119385D01*
X166194479Y-121123715D01*
X166194480Y-121123716D01*
X166306284Y-121235520D01*
X166393095Y-121285639D01*
X166393097Y-121285641D01*
X166431151Y-121307611D01*
X166443215Y-121314577D01*
X166595943Y-121355501D01*
X166595946Y-121355501D01*
X166761653Y-121355501D01*
X166761669Y-121355500D01*
X176914644Y-121355500D01*
X176981683Y-121375185D01*
X177027438Y-121427989D01*
X177037382Y-121497147D01*
X177008357Y-121560703D01*
X176970939Y-121589985D01*
X176818386Y-121667715D01*
X176652786Y-121788028D01*
X176508028Y-121932786D01*
X176387715Y-122098386D01*
X176294781Y-122280776D01*
X176231522Y-122475465D01*
X176199500Y-122677648D01*
X176199500Y-122882351D01*
X176231522Y-123084534D01*
X176294781Y-123279223D01*
X176387715Y-123461613D01*
X176508028Y-123627213D01*
X176652786Y-123771971D01*
X176807749Y-123884556D01*
X176818390Y-123892287D01*
X176934607Y-123951503D01*
X177000776Y-123985218D01*
X177000778Y-123985218D01*
X177000781Y-123985220D01*
X177105137Y-124019127D01*
X177195465Y-124048477D01*
X177296557Y-124064488D01*
X177397648Y-124080500D01*
X177397649Y-124080500D01*
X177602351Y-124080500D01*
X177602352Y-124080500D01*
X177804534Y-124048477D01*
X177999219Y-123985220D01*
X178181610Y-123892287D01*
X178274590Y-123824732D01*
X178347213Y-123771971D01*
X178347215Y-123771968D01*
X178347219Y-123771966D01*
X178491966Y-123627219D01*
X178491968Y-123627215D01*
X178491971Y-123627213D01*
X178544732Y-123554590D01*
X178612287Y-123461610D01*
X178639515Y-123408171D01*
X178687490Y-123357376D01*
X178755311Y-123340581D01*
X178821446Y-123363118D01*
X178860485Y-123408172D01*
X178887715Y-123461613D01*
X179008028Y-123627213D01*
X179152786Y-123771971D01*
X179307749Y-123884556D01*
X179318390Y-123892287D01*
X179434607Y-123951503D01*
X179500776Y-123985218D01*
X179500778Y-123985218D01*
X179500781Y-123985220D01*
X179605137Y-124019127D01*
X179695465Y-124048477D01*
X179796557Y-124064488D01*
X179897648Y-124080500D01*
X179897649Y-124080500D01*
X180102351Y-124080500D01*
X180102352Y-124080500D01*
X180304534Y-124048477D01*
X180499219Y-123985220D01*
X180681610Y-123892287D01*
X180774590Y-123824732D01*
X180847213Y-123771971D01*
X180847215Y-123771968D01*
X180847219Y-123771966D01*
X180991966Y-123627219D01*
X180991968Y-123627215D01*
X180991971Y-123627213D01*
X181044732Y-123554590D01*
X181112287Y-123461610D01*
X181139515Y-123408171D01*
X181187490Y-123357376D01*
X181255311Y-123340581D01*
X181321446Y-123363118D01*
X181360485Y-123408172D01*
X181387715Y-123461613D01*
X181508028Y-123627213D01*
X181652786Y-123771971D01*
X181807749Y-123884556D01*
X181818390Y-123892287D01*
X181934607Y-123951503D01*
X182000776Y-123985218D01*
X182000778Y-123985218D01*
X182000781Y-123985220D01*
X182105137Y-124019127D01*
X182195465Y-124048477D01*
X182296557Y-124064488D01*
X182397648Y-124080500D01*
X182397649Y-124080500D01*
X182602351Y-124080500D01*
X182602352Y-124080500D01*
X182804534Y-124048477D01*
X182999219Y-123985220D01*
X183181610Y-123892287D01*
X183274590Y-123824732D01*
X183347213Y-123771971D01*
X183347215Y-123771968D01*
X183347219Y-123771966D01*
X183491966Y-123627219D01*
X183491968Y-123627215D01*
X183491971Y-123627213D01*
X183544732Y-123554590D01*
X183612287Y-123461610D01*
X183705220Y-123279219D01*
X183768477Y-123084534D01*
X183800500Y-122882352D01*
X183800500Y-122677648D01*
X183768477Y-122475466D01*
X183705220Y-122280781D01*
X183705218Y-122280778D01*
X183705218Y-122280776D01*
X183639515Y-122151828D01*
X183612287Y-122098390D01*
X183604556Y-122087749D01*
X183491971Y-121932786D01*
X183347213Y-121788028D01*
X183181613Y-121667715D01*
X183181612Y-121667714D01*
X183181610Y-121667713D01*
X183124653Y-121638691D01*
X182999223Y-121574781D01*
X182804534Y-121511522D01*
X182629995Y-121483878D01*
X182602352Y-121479500D01*
X182397648Y-121479500D01*
X182373329Y-121483351D01*
X182195465Y-121511522D01*
X182000776Y-121574781D01*
X181818386Y-121667715D01*
X181652786Y-121788028D01*
X181508028Y-121932786D01*
X181387713Y-122098388D01*
X181360484Y-122151828D01*
X181312510Y-122202623D01*
X181244688Y-122219418D01*
X181178554Y-122196880D01*
X181139516Y-122151828D01*
X181112286Y-122098388D01*
X180991971Y-121932786D01*
X180847213Y-121788028D01*
X180681613Y-121667715D01*
X180681612Y-121667714D01*
X180681610Y-121667713D01*
X180586157Y-121619077D01*
X180529061Y-121589985D01*
X180478265Y-121542010D01*
X180461470Y-121474189D01*
X180484008Y-121408054D01*
X180538723Y-121364603D01*
X180585356Y-121355500D01*
X181238331Y-121355500D01*
X181238347Y-121355501D01*
X181245943Y-121355501D01*
X181404054Y-121355501D01*
X181404057Y-121355501D01*
X181556785Y-121314577D01*
X181606904Y-121285639D01*
X181693716Y-121235520D01*
X181805520Y-121123716D01*
X181805520Y-121123714D01*
X181815728Y-121113507D01*
X181815730Y-121113504D01*
X182055158Y-120874075D01*
X182116479Y-120840592D01*
X182181151Y-120843825D01*
X182195466Y-120848477D01*
X182397648Y-120880500D01*
X182397649Y-120880500D01*
X182602351Y-120880500D01*
X182602352Y-120880500D01*
X182804534Y-120848477D01*
X182999219Y-120785220D01*
X183181610Y-120692287D01*
X183274590Y-120624732D01*
X183347213Y-120571971D01*
X183347215Y-120571968D01*
X183347219Y-120571966D01*
X183491966Y-120427219D01*
X183491968Y-120427215D01*
X183491971Y-120427213D01*
X183544732Y-120354590D01*
X183612287Y-120261610D01*
X183705220Y-120079219D01*
X183768477Y-119884534D01*
X183800500Y-119682352D01*
X183800500Y-119477648D01*
X183768477Y-119275466D01*
X183705220Y-119080781D01*
X183705218Y-119080778D01*
X183705218Y-119080776D01*
X183671503Y-119014607D01*
X183612287Y-118898390D01*
X183597969Y-118878683D01*
X183491971Y-118732786D01*
X183347213Y-118588028D01*
X183181613Y-118467715D01*
X183181612Y-118467714D01*
X183181610Y-118467713D01*
X183124653Y-118438691D01*
X182999223Y-118374781D01*
X182804534Y-118311522D01*
X182629995Y-118283878D01*
X182602352Y-118279500D01*
X182449096Y-118279500D01*
X182382057Y-118259815D01*
X182336302Y-118207011D01*
X182326358Y-118137853D01*
X182355383Y-118074297D01*
X182361415Y-118067819D01*
X183665213Y-116764020D01*
X183726534Y-116730537D01*
X183796226Y-116735521D01*
X183840573Y-116764022D01*
X183957345Y-116880794D01*
X183957350Y-116880798D01*
X184135117Y-117009952D01*
X184161155Y-117028870D01*
X184304184Y-117101747D01*
X184385616Y-117143239D01*
X184385618Y-117143239D01*
X184385621Y-117143241D01*
X184625215Y-117221090D01*
X184874038Y-117260500D01*
X184874039Y-117260500D01*
X185125961Y-117260500D01*
X185125962Y-117260500D01*
X185374785Y-117221090D01*
X185614379Y-117143241D01*
X185838845Y-117028870D01*
X186042656Y-116880793D01*
X186220793Y-116702656D01*
X186368870Y-116498845D01*
X186483241Y-116274379D01*
X186561090Y-116034785D01*
X186600500Y-115785962D01*
X186600500Y-115534038D01*
X186561090Y-115285215D01*
X186483241Y-115045621D01*
X186483239Y-115045618D01*
X186483239Y-115045616D01*
X186394614Y-114871681D01*
X186368870Y-114821155D01*
X186262309Y-114674486D01*
X186220798Y-114617350D01*
X186220794Y-114617345D01*
X186042654Y-114439205D01*
X186042649Y-114439201D01*
X185838848Y-114291132D01*
X185838847Y-114291131D01*
X185838845Y-114291130D01*
X185765683Y-114253852D01*
X185614383Y-114176760D01*
X185374785Y-114098910D01*
X185125962Y-114059500D01*
X184874038Y-114059500D01*
X184749626Y-114079205D01*
X184625214Y-114098910D01*
X184385616Y-114176760D01*
X184161151Y-114291132D01*
X183957350Y-114439201D01*
X183957345Y-114439205D01*
X183779205Y-114617345D01*
X183779201Y-114617350D01*
X183631132Y-114821151D01*
X183516760Y-115045616D01*
X183444913Y-115266738D01*
X183414663Y-115316100D01*
X180444842Y-118285921D01*
X180383519Y-118319406D01*
X180318848Y-118316173D01*
X180304534Y-118311522D01*
X180129995Y-118283878D01*
X180102352Y-118279500D01*
X179897648Y-118279500D01*
X179873329Y-118283351D01*
X179695465Y-118311522D01*
X179500776Y-118374781D01*
X179318386Y-118467715D01*
X179152786Y-118588028D01*
X179152782Y-118588032D01*
X179004589Y-118736226D01*
X179003152Y-118734789D01*
X178951746Y-118768280D01*
X178881877Y-118768714D01*
X178822866Y-118731306D01*
X178795394Y-118678034D01*
X178794091Y-118672521D01*
X178794091Y-118672517D01*
X178780347Y-118635668D01*
X178743797Y-118537671D01*
X178743793Y-118537664D01*
X178657547Y-118422455D01*
X178657544Y-118422452D01*
X178542335Y-118336206D01*
X178542328Y-118336202D01*
X178407482Y-118285908D01*
X178407483Y-118285908D01*
X178347883Y-118279501D01*
X178347881Y-118279500D01*
X178347873Y-118279500D01*
X178347864Y-118279500D01*
X176652129Y-118279500D01*
X176652123Y-118279501D01*
X176592516Y-118285908D01*
X176457671Y-118336202D01*
X176457664Y-118336206D01*
X176342455Y-118422452D01*
X176342452Y-118422455D01*
X176256206Y-118537664D01*
X176256202Y-118537671D01*
X176205908Y-118672517D01*
X176200274Y-118724927D01*
X176199500Y-118732127D01*
X176199500Y-119435255D01*
X176199501Y-120030500D01*
X176179816Y-120097539D01*
X176127013Y-120143294D01*
X176075501Y-120154500D01*
X168509152Y-120154500D01*
X168442113Y-120134815D01*
X168396358Y-120082011D01*
X168386414Y-120012853D01*
X168387535Y-120006308D01*
X168399999Y-119943643D01*
X168400000Y-119943643D01*
X168400000Y-119730000D01*
X167846410Y-119730000D01*
X167849444Y-119724745D01*
X167875000Y-119629370D01*
X167875000Y-119530630D01*
X167849444Y-119435255D01*
X167846410Y-119430000D01*
X168400000Y-119430000D01*
X168400000Y-119216357D01*
X168399999Y-119216353D01*
X168365415Y-119042487D01*
X168365413Y-119042479D01*
X168297571Y-118878692D01*
X168297566Y-118878683D01*
X168199076Y-118731283D01*
X168199073Y-118731279D01*
X168073720Y-118605926D01*
X168073716Y-118605923D01*
X167926316Y-118507433D01*
X167926307Y-118507428D01*
X167762520Y-118439586D01*
X167762512Y-118439584D01*
X167650000Y-118417203D01*
X167650000Y-119233589D01*
X167644745Y-119230556D01*
X167549370Y-119205000D01*
X167450630Y-119205000D01*
X167355255Y-119230556D01*
X167350000Y-119233589D01*
X167350000Y-118417204D01*
X167349999Y-118417203D01*
X167237487Y-118439584D01*
X167237479Y-118439586D01*
X167073692Y-118507428D01*
X167073683Y-118507433D01*
X166926283Y-118605923D01*
X166926279Y-118605926D01*
X166800924Y-118731281D01*
X166785199Y-118754816D01*
X166731586Y-118799620D01*
X166662261Y-118808326D01*
X166599234Y-118778170D01*
X166564392Y-118724927D01*
X166547023Y-118672511D01*
X166534814Y-118635666D01*
X166442712Y-118486344D01*
X166318656Y-118362288D01*
X166184436Y-118279501D01*
X166169336Y-118270187D01*
X166169331Y-118270185D01*
X166138036Y-118259815D01*
X166002797Y-118215001D01*
X166002795Y-118215000D01*
X165900010Y-118204500D01*
X165099998Y-118204500D01*
X165099980Y-118204501D01*
X164997203Y-118215000D01*
X164997200Y-118215001D01*
X164830668Y-118270185D01*
X164830663Y-118270187D01*
X164681342Y-118362289D01*
X164557289Y-118486342D01*
X164465187Y-118635663D01*
X164465185Y-118635668D01*
X164437349Y-118719670D01*
X164410001Y-118802203D01*
X164410001Y-118802204D01*
X164410000Y-118802204D01*
X164399500Y-118904983D01*
X135552580Y-118904983D01*
X135580755Y-114481504D01*
X169340000Y-114481504D01*
X169340000Y-114678495D01*
X169378427Y-114871681D01*
X169378430Y-114871693D01*
X169453809Y-115053676D01*
X169453811Y-115053679D01*
X169534069Y-115173795D01*
X169534071Y-115173795D01*
X170009397Y-114698470D01*
X170013852Y-114715095D01*
X170059930Y-114794905D01*
X170125095Y-114860070D01*
X170204905Y-114906148D01*
X170221529Y-114910602D01*
X169746203Y-115385927D01*
X169746203Y-115385928D01*
X169866316Y-115466185D01*
X169866328Y-115466192D01*
X170048306Y-115541569D01*
X170048318Y-115541572D01*
X170241504Y-115579999D01*
X170241508Y-115580000D01*
X170438492Y-115580000D01*
X170438495Y-115579999D01*
X170631681Y-115541572D01*
X170631693Y-115541569D01*
X170813673Y-115466191D01*
X170813675Y-115466190D01*
X170933796Y-115385928D01*
X170458471Y-114910602D01*
X170475095Y-114906148D01*
X170554905Y-114860070D01*
X170620070Y-114794905D01*
X170666148Y-114715095D01*
X170670602Y-114698470D01*
X171145928Y-115173796D01*
X171226190Y-115053675D01*
X171226191Y-115053673D01*
X171301569Y-114871693D01*
X171301572Y-114871681D01*
X171339999Y-114678495D01*
X171340000Y-114678492D01*
X171340000Y-114481508D01*
X171339999Y-114481504D01*
X171301572Y-114288318D01*
X171301569Y-114288306D01*
X171226192Y-114106328D01*
X171226185Y-114106316D01*
X171145927Y-113986203D01*
X170670602Y-114461528D01*
X170666148Y-114444905D01*
X170620070Y-114365095D01*
X170554905Y-114299930D01*
X170475095Y-114253852D01*
X170458470Y-114249397D01*
X170933795Y-113774071D01*
X170933795Y-113774069D01*
X170813679Y-113693811D01*
X170813676Y-113693809D01*
X170631693Y-113618430D01*
X170631681Y-113618427D01*
X170438495Y-113580000D01*
X170241504Y-113580000D01*
X170048318Y-113618427D01*
X170048310Y-113618429D01*
X169866325Y-113693809D01*
X169866318Y-113693813D01*
X169746203Y-113774071D01*
X169746202Y-113774071D01*
X170221529Y-114249397D01*
X170204905Y-114253852D01*
X170125095Y-114299930D01*
X170059930Y-114365095D01*
X170013852Y-114444905D01*
X170009397Y-114461528D01*
X169534071Y-113986202D01*
X169534071Y-113986203D01*
X169453813Y-114106318D01*
X169453809Y-114106325D01*
X169378429Y-114288310D01*
X169378427Y-114288318D01*
X169340000Y-114481504D01*
X135580755Y-114481504D01*
X135631464Y-106520205D01*
X167215000Y-106520205D01*
X167215000Y-107430000D01*
X167892201Y-107430000D01*
X167870000Y-107512857D01*
X167870000Y-107647143D01*
X167892201Y-107730000D01*
X167215001Y-107730000D01*
X167215001Y-108639785D01*
X167215002Y-108639808D01*
X167217908Y-108664869D01*
X167217909Y-108664873D01*
X167263211Y-108767474D01*
X167263214Y-108767479D01*
X167342520Y-108846785D01*
X167342525Y-108846788D01*
X167445123Y-108892089D01*
X167470206Y-108894999D01*
X168229999Y-108894999D01*
X168230000Y-108894998D01*
X168230000Y-108067798D01*
X168312857Y-108090000D01*
X168447143Y-108090000D01*
X168530000Y-108067798D01*
X168530000Y-108894999D01*
X169289786Y-108894999D01*
X169289808Y-108894997D01*
X169314869Y-108892091D01*
X169314873Y-108892090D01*
X169417474Y-108846788D01*
X169417479Y-108846785D01*
X169496785Y-108767479D01*
X169496788Y-108767474D01*
X169542089Y-108664877D01*
X169542089Y-108664875D01*
X169544999Y-108639794D01*
X169544999Y-108542235D01*
X169564683Y-108475196D01*
X169617486Y-108429440D01*
X169686645Y-108419496D01*
X169750201Y-108448520D01*
X169769317Y-108469348D01*
X169789126Y-108496613D01*
X169878455Y-108619563D01*
X170030437Y-108771545D01*
X170133996Y-108846785D01*
X170204323Y-108897881D01*
X170251794Y-108922068D01*
X170302590Y-108970042D01*
X170319500Y-109032553D01*
X170319500Y-112413330D01*
X170319499Y-112413348D01*
X170319499Y-112579054D01*
X170319498Y-112579054D01*
X170360423Y-112731785D01*
X170389358Y-112781900D01*
X170389359Y-112781904D01*
X170389360Y-112781904D01*
X170439480Y-112868716D01*
X170519480Y-112948716D01*
X170631284Y-113060520D01*
X170700532Y-113100500D01*
X170768215Y-113139577D01*
X170920943Y-113180500D01*
X175659903Y-113180500D01*
X175726942Y-113200185D01*
X175747584Y-113216819D01*
X176749933Y-114219168D01*
X176783418Y-114280491D01*
X176784725Y-114326247D01*
X176759500Y-114485513D01*
X176759500Y-114674486D01*
X176789059Y-114861118D01*
X176847454Y-115040836D01*
X176915201Y-115173795D01*
X176933240Y-115209199D01*
X177044310Y-115362073D01*
X177177927Y-115495690D01*
X177330801Y-115606760D01*
X177410347Y-115647290D01*
X177499163Y-115692545D01*
X177499165Y-115692545D01*
X177499168Y-115692547D01*
X177595497Y-115723846D01*
X177678881Y-115750940D01*
X177865514Y-115780500D01*
X177865519Y-115780500D01*
X178054486Y-115780500D01*
X178241118Y-115750940D01*
X178420832Y-115692547D01*
X178589199Y-115606760D01*
X178742073Y-115495690D01*
X178875690Y-115362073D01*
X178986760Y-115209199D01*
X179072547Y-115040832D01*
X179130940Y-114861118D01*
X179131106Y-114860070D01*
X179160500Y-114674486D01*
X179160500Y-114485513D01*
X179130940Y-114298881D01*
X179091260Y-114176760D01*
X179072547Y-114119168D01*
X179072545Y-114119165D01*
X179072545Y-114119163D01*
X179004798Y-113986203D01*
X178986760Y-113950801D01*
X178875690Y-113797927D01*
X178742073Y-113664310D01*
X178589199Y-113553240D01*
X178420836Y-113467454D01*
X178241118Y-113409059D01*
X178054486Y-113379500D01*
X178054481Y-113379500D01*
X177865519Y-113379500D01*
X177865514Y-113379500D01*
X177706247Y-113404725D01*
X177636953Y-113395770D01*
X177599168Y-113369933D01*
X176447590Y-112218355D01*
X176447588Y-112218352D01*
X176328717Y-112099481D01*
X176328716Y-112099480D01*
X176241904Y-112049360D01*
X176241904Y-112049359D01*
X176241900Y-112049358D01*
X176191785Y-112020423D01*
X176039057Y-111979499D01*
X175880943Y-111979499D01*
X175873347Y-111979499D01*
X175873331Y-111979500D01*
X171644500Y-111979500D01*
X171577461Y-111959815D01*
X171531706Y-111907011D01*
X171520500Y-111855500D01*
X171520500Y-109032553D01*
X171540185Y-108965514D01*
X171588206Y-108922068D01*
X171635676Y-108897881D01*
X171635675Y-108897881D01*
X171635678Y-108897880D01*
X171809563Y-108771545D01*
X171961545Y-108619563D01*
X172087880Y-108445678D01*
X172185458Y-108254170D01*
X172185459Y-108254167D01*
X172187322Y-108249670D01*
X172189471Y-108250560D01*
X172223372Y-108200790D01*
X172287681Y-108173475D01*
X172356549Y-108185265D01*
X172408110Y-108232415D01*
X172412523Y-108240346D01*
X172463599Y-108340588D01*
X172571390Y-108488947D01*
X172571390Y-108488948D01*
X172701051Y-108618609D01*
X172849406Y-108726396D01*
X173012797Y-108809648D01*
X173187193Y-108866312D01*
X173310000Y-108885763D01*
X173310000Y-108067798D01*
X173392857Y-108090000D01*
X173527143Y-108090000D01*
X173610000Y-108067798D01*
X173610000Y-108885762D01*
X173732806Y-108866312D01*
X173907202Y-108809648D01*
X174070593Y-108726396D01*
X174218947Y-108618609D01*
X174218948Y-108618609D01*
X174348609Y-108488948D01*
X174348609Y-108488947D01*
X174456396Y-108340593D01*
X174507475Y-108240346D01*
X174555449Y-108189550D01*
X174623270Y-108172755D01*
X174689405Y-108195292D01*
X174732611Y-108249697D01*
X174732678Y-108249670D01*
X174732774Y-108249903D01*
X174732857Y-108250007D01*
X174733148Y-108250806D01*
X174734541Y-108254170D01*
X174823846Y-108429440D01*
X174832120Y-108445678D01*
X174958455Y-108619563D01*
X175110437Y-108771545D01*
X175284322Y-108897880D01*
X175331794Y-108922068D01*
X175475829Y-108995458D01*
X175475832Y-108995459D01*
X175589997Y-109032553D01*
X175680245Y-109061876D01*
X175892533Y-109095500D01*
X175892534Y-109095500D01*
X176107466Y-109095500D01*
X176107467Y-109095500D01*
X176319755Y-109061876D01*
X176319758Y-109061875D01*
X176319759Y-109061875D01*
X176524167Y-108995459D01*
X176524170Y-108995458D01*
X176715678Y-108897880D01*
X176889563Y-108771545D01*
X177041545Y-108619563D01*
X177167880Y-108445678D01*
X177265458Y-108254170D01*
X177282802Y-108200790D01*
X177331875Y-108049759D01*
X177331875Y-108049758D01*
X177331876Y-108049755D01*
X177365500Y-107837467D01*
X177365500Y-107322533D01*
X177339998Y-107161522D01*
X177348953Y-107092229D01*
X177374787Y-107054446D01*
X181100520Y-103328716D01*
X181179577Y-103191784D01*
X181220501Y-103039057D01*
X181220501Y-102880942D01*
X181220501Y-102873347D01*
X181220500Y-102873329D01*
X181220500Y-102869097D01*
X181240185Y-102802058D01*
X181292989Y-102756303D01*
X181362147Y-102746359D01*
X181425703Y-102775384D01*
X181432181Y-102781416D01*
X183363181Y-104712416D01*
X183396666Y-104773739D01*
X183399500Y-104800097D01*
X183399500Y-106400017D01*
X183410000Y-106502796D01*
X183422473Y-106540437D01*
X183465186Y-106669335D01*
X183557288Y-106818656D01*
X183681344Y-106942712D01*
X183830665Y-107034814D01*
X183997202Y-107089999D01*
X184099990Y-107100500D01*
X184099995Y-107100500D01*
X185900005Y-107100500D01*
X185900010Y-107100500D01*
X186002798Y-107089999D01*
X186169335Y-107034814D01*
X186318656Y-106942712D01*
X186442712Y-106818656D01*
X186534814Y-106669335D01*
X186589999Y-106502798D01*
X186600500Y-106400010D01*
X186600500Y-104599990D01*
X186589999Y-104497202D01*
X186534814Y-104330665D01*
X186442712Y-104181344D01*
X186318656Y-104057288D01*
X186169335Y-103965186D01*
X186002798Y-103910001D01*
X186002796Y-103910000D01*
X185900017Y-103899500D01*
X185900010Y-103899500D01*
X184300097Y-103899500D01*
X184233058Y-103879815D01*
X184212416Y-103863181D01*
X181918819Y-101569584D01*
X181885334Y-101508261D01*
X181882500Y-101481903D01*
X181882500Y-99736473D01*
X181882499Y-99736458D01*
X181879587Y-99699453D01*
X181879586Y-99699447D01*
X181833565Y-99541045D01*
X181833564Y-99541042D01*
X181833564Y-99541041D01*
X181749592Y-99399053D01*
X181653390Y-99302851D01*
X181640758Y-99288060D01*
X181582984Y-99208539D01*
X181442466Y-99068021D01*
X181442464Y-99068019D01*
X181281694Y-98951213D01*
X181276793Y-98948716D01*
X181104632Y-98860994D01*
X181104629Y-98860993D01*
X180915637Y-98799587D01*
X180817498Y-98784043D01*
X180719361Y-98768500D01*
X180520639Y-98768500D01*
X180455214Y-98778862D01*
X180324362Y-98799587D01*
X180135370Y-98860993D01*
X180135367Y-98860994D01*
X179958305Y-98951213D01*
X179797533Y-99068021D01*
X179657018Y-99208536D01*
X179599239Y-99288061D01*
X179586604Y-99302854D01*
X179490413Y-99399046D01*
X179490405Y-99399056D01*
X179406435Y-99541042D01*
X179406434Y-99541045D01*
X179360413Y-99699447D01*
X179360412Y-99699453D01*
X179357500Y-99736458D01*
X179357500Y-99919816D01*
X179337815Y-99986855D01*
X179285011Y-100032610D01*
X179215853Y-100042554D01*
X179186047Y-100034377D01*
X179141999Y-100016131D01*
X178292132Y-100865999D01*
X178292132Y-100866000D01*
X179141997Y-101715866D01*
X179186047Y-101697621D01*
X179255516Y-101690152D01*
X179317996Y-101721427D01*
X179353648Y-101781516D01*
X179357500Y-101812182D01*
X179357500Y-101995541D01*
X179360412Y-102032546D01*
X179360413Y-102032552D01*
X179406434Y-102190954D01*
X179406435Y-102190957D01*
X179490405Y-102332943D01*
X179490412Y-102332952D01*
X179607047Y-102449587D01*
X179607051Y-102449590D01*
X179607053Y-102449592D01*
X179749041Y-102533564D01*
X179894963Y-102575958D01*
X179953847Y-102613564D01*
X179983054Y-102677036D01*
X179973308Y-102746223D01*
X179948048Y-102782715D01*
X176609640Y-106121123D01*
X176548317Y-106154608D01*
X176483641Y-106151373D01*
X176319757Y-106098124D01*
X176178229Y-106075708D01*
X176107467Y-106064500D01*
X175892533Y-106064500D01*
X175821770Y-106075708D01*
X175680243Y-106098124D01*
X175680240Y-106098124D01*
X175475832Y-106164540D01*
X175475829Y-106164541D01*
X175284321Y-106262120D01*
X175214001Y-106313211D01*
X175110437Y-106388455D01*
X175110435Y-106388457D01*
X175110434Y-106388457D01*
X174958457Y-106540434D01*
X174958457Y-106540435D01*
X174958455Y-106540437D01*
X174957763Y-106541390D01*
X174832120Y-106714321D01*
X174734541Y-106905829D01*
X174732678Y-106910330D01*
X174730587Y-106909464D01*
X174696388Y-106959405D01*
X174632010Y-106986559D01*
X174563172Y-106974598D01*
X174511729Y-106927318D01*
X174507475Y-106919653D01*
X174456396Y-106819406D01*
X174348609Y-106671052D01*
X174348609Y-106671051D01*
X174218948Y-106541390D01*
X174070593Y-106433603D01*
X173907202Y-106350351D01*
X173882081Y-106342189D01*
X173824405Y-106302751D01*
X173797207Y-106238393D01*
X173809122Y-106169546D01*
X173851508Y-106121156D01*
X173970289Y-106041789D01*
X174081786Y-105930292D01*
X174081789Y-105930289D01*
X174169394Y-105799179D01*
X174229737Y-105653497D01*
X174260500Y-105498842D01*
X174260500Y-105341158D01*
X174260500Y-105341155D01*
X174260499Y-105341153D01*
X174229738Y-105186510D01*
X174229737Y-105186503D01*
X174229735Y-105186498D01*
X174169397Y-105040827D01*
X174169390Y-105040814D01*
X174081789Y-104909711D01*
X174081786Y-104909707D01*
X173970292Y-104798213D01*
X173970288Y-104798210D01*
X173839185Y-104710609D01*
X173839172Y-104710602D01*
X173693501Y-104650264D01*
X173693489Y-104650261D01*
X173538845Y-104619500D01*
X173538842Y-104619500D01*
X173381158Y-104619500D01*
X173381155Y-104619500D01*
X173226510Y-104650261D01*
X173226498Y-104650264D01*
X173080827Y-104710602D01*
X173080814Y-104710609D01*
X172949711Y-104798210D01*
X172949707Y-104798213D01*
X172838213Y-104909707D01*
X172838210Y-104909711D01*
X172750609Y-105040814D01*
X172750602Y-105040827D01*
X172690264Y-105186498D01*
X172690261Y-105186510D01*
X172659500Y-105341153D01*
X172659500Y-105498846D01*
X172690261Y-105653489D01*
X172690264Y-105653501D01*
X172750602Y-105799172D01*
X172750609Y-105799185D01*
X172838210Y-105930288D01*
X172838213Y-105930292D01*
X172949707Y-106041786D01*
X172949711Y-106041789D01*
X173068491Y-106121156D01*
X173113296Y-106174768D01*
X173122003Y-106244093D01*
X173091848Y-106307121D01*
X173037919Y-106342189D01*
X173012796Y-106350352D01*
X172849406Y-106433603D01*
X172701052Y-106541390D01*
X172701051Y-106541390D01*
X172571390Y-106671051D01*
X172571390Y-106671052D01*
X172463601Y-106819409D01*
X172412523Y-106919654D01*
X172364548Y-106970449D01*
X172296727Y-106987244D01*
X172230593Y-106964706D01*
X172187389Y-106910301D01*
X172187322Y-106910330D01*
X172187223Y-106910093D01*
X172187142Y-106909990D01*
X172186856Y-106909205D01*
X172185458Y-106905829D01*
X172087879Y-106714321D01*
X172082335Y-106706690D01*
X171961545Y-106540437D01*
X171809563Y-106388455D01*
X171635678Y-106262120D01*
X171600298Y-106244093D01*
X171444170Y-106164541D01*
X171444167Y-106164540D01*
X171239757Y-106098124D01*
X171098229Y-106075708D01*
X171027467Y-106064500D01*
X170812533Y-106064500D01*
X170741770Y-106075708D01*
X170600243Y-106098124D01*
X170600240Y-106098124D01*
X170395832Y-106164540D01*
X170395829Y-106164541D01*
X170204321Y-106262120D01*
X170134001Y-106313211D01*
X170030437Y-106388455D01*
X170030435Y-106388457D01*
X170030434Y-106388457D01*
X169878457Y-106540434D01*
X169878457Y-106540435D01*
X169878455Y-106540437D01*
X169877763Y-106541390D01*
X169769317Y-106690652D01*
X169713987Y-106733317D01*
X169644373Y-106739296D01*
X169582578Y-106706690D01*
X169548221Y-106645851D01*
X169544999Y-106617766D01*
X169544999Y-106520214D01*
X169544997Y-106520191D01*
X169542091Y-106495130D01*
X169542090Y-106495126D01*
X169496788Y-106392525D01*
X169496785Y-106392520D01*
X169417479Y-106313214D01*
X169417474Y-106313211D01*
X169314876Y-106267910D01*
X169289794Y-106265000D01*
X168530000Y-106265000D01*
X168530000Y-107092201D01*
X168447143Y-107070000D01*
X168312857Y-107070000D01*
X168230000Y-107092201D01*
X168230000Y-106265000D01*
X167470214Y-106265000D01*
X167470191Y-106265002D01*
X167445130Y-106267908D01*
X167445126Y-106267909D01*
X167342525Y-106313211D01*
X167342520Y-106313214D01*
X167263214Y-106392520D01*
X167263211Y-106392525D01*
X167217910Y-106495122D01*
X167217910Y-106495124D01*
X167215000Y-106520205D01*
X135631464Y-106520205D01*
X135860935Y-70493389D01*
X140319500Y-70493389D01*
X140319500Y-70666611D01*
X140346598Y-70837701D01*
X140400127Y-71002445D01*
X140478768Y-71156788D01*
X140580586Y-71296928D01*
X140703072Y-71419414D01*
X140843212Y-71521232D01*
X140997555Y-71599873D01*
X141162299Y-71653402D01*
X141333389Y-71680500D01*
X141333390Y-71680500D01*
X141506610Y-71680500D01*
X141506611Y-71680500D01*
X141677701Y-71653402D01*
X141842445Y-71599873D01*
X141996788Y-71521232D01*
X142136928Y-71419414D01*
X142259414Y-71296928D01*
X142361232Y-71156788D01*
X142439873Y-71002445D01*
X142493402Y-70837701D01*
X142520500Y-70666611D01*
X142520500Y-70493389D01*
X142510854Y-70432486D01*
X144249500Y-70432486D01*
X144249500Y-70727513D01*
X144276289Y-70930987D01*
X144288007Y-71019993D01*
X144362212Y-71296930D01*
X144364361Y-71304951D01*
X144364364Y-71304961D01*
X144477254Y-71577500D01*
X144477258Y-71577510D01*
X144624761Y-71832993D01*
X144804352Y-72067040D01*
X144804358Y-72067047D01*
X145012952Y-72275641D01*
X145012959Y-72275647D01*
X145247006Y-72455238D01*
X145502489Y-72602741D01*
X145502490Y-72602741D01*
X145502493Y-72602743D01*
X145775048Y-72715639D01*
X146060007Y-72791993D01*
X146352494Y-72830500D01*
X146352501Y-72830500D01*
X146647499Y-72830500D01*
X146647506Y-72830500D01*
X146939993Y-72791993D01*
X147224952Y-72715639D01*
X147497507Y-72602743D01*
X147752994Y-72455238D01*
X147987042Y-72275646D01*
X148195646Y-72067042D01*
X148375238Y-71832994D01*
X148522743Y-71577507D01*
X148635639Y-71304952D01*
X148711993Y-71019993D01*
X148750500Y-70727506D01*
X148750500Y-70432494D01*
X148711993Y-70140007D01*
X148635639Y-69855048D01*
X148522743Y-69582493D01*
X148522103Y-69581385D01*
X148375238Y-69327006D01*
X148195647Y-69092959D01*
X148195641Y-69092952D01*
X147987047Y-68884358D01*
X147987040Y-68884352D01*
X147752993Y-68704761D01*
X147497510Y-68557258D01*
X147497500Y-68557254D01*
X147224961Y-68444364D01*
X147224954Y-68444362D01*
X147224952Y-68444361D01*
X146939993Y-68368007D01*
X146891113Y-68361571D01*
X146647513Y-68329500D01*
X146647506Y-68329500D01*
X146352494Y-68329500D01*
X146352486Y-68329500D01*
X146074085Y-68366153D01*
X146060007Y-68368007D01*
X145775048Y-68444361D01*
X145775038Y-68444364D01*
X145502499Y-68557254D01*
X145502489Y-68557258D01*
X145247006Y-68704761D01*
X145012959Y-68884352D01*
X145012952Y-68884358D01*
X144804358Y-69092952D01*
X144804352Y-69092959D01*
X144624761Y-69327006D01*
X144477258Y-69582489D01*
X144477254Y-69582499D01*
X144364364Y-69855038D01*
X144364361Y-69855048D01*
X144288008Y-70140004D01*
X144288006Y-70140015D01*
X144249500Y-70432486D01*
X142510854Y-70432486D01*
X142493402Y-70322299D01*
X142439873Y-70157555D01*
X142361232Y-70003212D01*
X142259414Y-69863072D01*
X142136928Y-69740586D01*
X141996788Y-69638768D01*
X141842445Y-69560127D01*
X141677701Y-69506598D01*
X141677699Y-69506597D01*
X141677698Y-69506597D01*
X141546271Y-69485781D01*
X141506611Y-69479500D01*
X141333389Y-69479500D01*
X141293728Y-69485781D01*
X141162302Y-69506597D01*
X140997552Y-69560128D01*
X140843211Y-69638768D01*
X140763256Y-69696859D01*
X140703072Y-69740586D01*
X140703070Y-69740588D01*
X140703069Y-69740588D01*
X140580588Y-69863069D01*
X140580588Y-69863070D01*
X140580586Y-69863072D01*
X140574794Y-69871044D01*
X140478768Y-70003211D01*
X140400128Y-70157552D01*
X140346597Y-70322302D01*
X140320397Y-70487727D01*
X140319500Y-70493389D01*
X135860935Y-70493389D01*
X135877263Y-67929818D01*
X141290000Y-67929818D01*
X141290000Y-68150181D01*
X141324473Y-68367835D01*
X141392567Y-68577410D01*
X141492615Y-68773763D01*
X141598442Y-68919423D01*
X141598443Y-68919423D01*
X142064311Y-68453555D01*
X142107437Y-68518097D01*
X142211903Y-68622563D01*
X142276443Y-68665687D01*
X141810574Y-69131555D01*
X141810575Y-69131556D01*
X141956236Y-69237384D01*
X142152589Y-69337432D01*
X142362164Y-69405526D01*
X142579819Y-69440000D01*
X142800181Y-69440000D01*
X143017835Y-69405526D01*
X143227410Y-69337432D01*
X143423763Y-69237384D01*
X143569423Y-69131557D01*
X143569424Y-69131555D01*
X143103556Y-68665687D01*
X143168097Y-68622563D01*
X143272563Y-68518097D01*
X143315687Y-68453556D01*
X143781555Y-68919424D01*
X143781557Y-68919423D01*
X143887384Y-68773763D01*
X143987432Y-68577410D01*
X144055526Y-68367835D01*
X144090000Y-68150181D01*
X144090000Y-67929818D01*
X144055526Y-67712164D01*
X143987432Y-67502589D01*
X143887384Y-67306236D01*
X143781556Y-67160575D01*
X143781555Y-67160574D01*
X143315687Y-67626443D01*
X143272563Y-67561903D01*
X143168097Y-67457437D01*
X143103555Y-67414312D01*
X143569423Y-66948443D01*
X143569423Y-66948442D01*
X143423763Y-66842615D01*
X143227410Y-66742567D01*
X143017835Y-66674473D01*
X142800181Y-66640000D01*
X142579819Y-66640000D01*
X142362164Y-66674473D01*
X142152589Y-66742567D01*
X141956243Y-66842611D01*
X141810575Y-66948443D01*
X142276444Y-67414312D01*
X142211903Y-67457437D01*
X142107437Y-67561903D01*
X142064312Y-67626444D01*
X141598443Y-67160575D01*
X141492611Y-67306243D01*
X141392567Y-67502589D01*
X141324473Y-67712164D01*
X141290000Y-67929818D01*
X135877263Y-67929818D01*
X135885259Y-66674473D01*
X135888543Y-66158953D01*
X147039498Y-66158953D01*
X147039499Y-66158956D01*
X147080423Y-66311684D01*
X147080424Y-66311686D01*
X147080423Y-66311686D01*
X147096102Y-66338841D01*
X147096104Y-66338843D01*
X147096105Y-66338845D01*
X147138355Y-66412025D01*
X147159479Y-66448614D01*
X147278349Y-66567484D01*
X147278355Y-66567489D01*
X147975240Y-67264374D01*
X147975250Y-67264385D01*
X147979580Y-67268715D01*
X147979581Y-67268716D01*
X148091385Y-67380520D01*
X148178196Y-67430639D01*
X148178198Y-67430641D01*
X148216252Y-67452611D01*
X148228316Y-67459577D01*
X148381044Y-67500501D01*
X148381047Y-67500501D01*
X148546754Y-67500501D01*
X148546770Y-67500500D01*
X149319802Y-67500500D01*
X149386841Y-67520185D01*
X149407483Y-67536819D01*
X151220700Y-69350036D01*
X151254185Y-69411359D01*
X151249201Y-69481051D01*
X151207329Y-69536984D01*
X151171345Y-69555646D01*
X151157550Y-69560128D01*
X151003211Y-69638768D01*
X150923256Y-69696859D01*
X150863072Y-69740586D01*
X150863070Y-69740588D01*
X150863069Y-69740588D01*
X150740588Y-69863069D01*
X150740588Y-69863070D01*
X150740586Y-69863072D01*
X150734794Y-69871044D01*
X150638768Y-70003211D01*
X150560128Y-70157552D01*
X150506597Y-70322302D01*
X150480397Y-70487727D01*
X150479500Y-70493389D01*
X150479500Y-70666611D01*
X150506598Y-70837701D01*
X150560127Y-71002445D01*
X150638768Y-71156788D01*
X150740586Y-71296928D01*
X150863072Y-71419414D01*
X151003212Y-71521232D01*
X151157555Y-71599873D01*
X151322299Y-71653402D01*
X151493389Y-71680500D01*
X151493390Y-71680500D01*
X151666610Y-71680500D01*
X151666611Y-71680500D01*
X151837701Y-71653402D01*
X152002445Y-71599873D01*
X152156788Y-71521232D01*
X152296928Y-71419414D01*
X152419414Y-71296928D01*
X152521232Y-71156788D01*
X152599873Y-71002445D01*
X152604351Y-70988660D01*
X152643788Y-70930987D01*
X152708147Y-70903788D01*
X152776993Y-70915702D01*
X152809963Y-70939299D01*
X156363181Y-74492517D01*
X156396666Y-74553840D01*
X156399500Y-74580198D01*
X156399500Y-87085500D01*
X156379815Y-87152539D01*
X156327011Y-87198294D01*
X156275502Y-87209500D01*
X156202130Y-87209500D01*
X156202123Y-87209501D01*
X156142516Y-87215908D01*
X156007671Y-87266202D01*
X156007664Y-87266206D01*
X155892455Y-87352452D01*
X155892452Y-87352455D01*
X155806206Y-87467664D01*
X155806202Y-87467671D01*
X155755908Y-87602517D01*
X155749501Y-87662116D01*
X155749501Y-87662123D01*
X155749500Y-87662135D01*
X155749500Y-87735500D01*
X155729815Y-87802539D01*
X155677011Y-87848294D01*
X155625500Y-87859500D01*
X152610792Y-87859500D01*
X152543753Y-87839815D01*
X152510474Y-87808386D01*
X152506226Y-87802539D01*
X152415690Y-87677927D01*
X152282073Y-87544310D01*
X152129199Y-87433240D01*
X151960836Y-87347454D01*
X151781118Y-87289059D01*
X151594486Y-87259500D01*
X151594481Y-87259500D01*
X151405519Y-87259500D01*
X151405514Y-87259500D01*
X151218881Y-87289059D01*
X151039163Y-87347454D01*
X150870800Y-87433240D01*
X150823411Y-87467671D01*
X150717927Y-87544310D01*
X150717925Y-87544312D01*
X150717924Y-87544312D01*
X150584312Y-87677924D01*
X150584312Y-87677925D01*
X150584310Y-87677927D01*
X150542481Y-87735500D01*
X150473240Y-87830800D01*
X150387454Y-87999163D01*
X150329059Y-88178881D01*
X150299500Y-88365513D01*
X150299500Y-88554486D01*
X150324725Y-88713751D01*
X150315770Y-88783045D01*
X150289934Y-88820830D01*
X150131286Y-88979478D01*
X150131284Y-88979480D01*
X150075382Y-89035381D01*
X150019481Y-89091282D01*
X150019480Y-89091284D01*
X150002540Y-89120626D01*
X149940423Y-89228215D01*
X149899499Y-89380943D01*
X149899499Y-89380945D01*
X149899499Y-89549046D01*
X149899500Y-89549059D01*
X149899500Y-96407544D01*
X149899499Y-96407562D01*
X149899499Y-96573268D01*
X149899498Y-96573268D01*
X149940423Y-96726001D01*
X149940424Y-96726002D01*
X149948866Y-96740623D01*
X149948868Y-96740626D01*
X150019477Y-96862926D01*
X150019481Y-96862931D01*
X150138349Y-96981799D01*
X150138355Y-96981804D01*
X152100925Y-98944374D01*
X152100935Y-98944385D01*
X152105265Y-98948715D01*
X152105266Y-98948716D01*
X152217070Y-99060520D01*
X152303881Y-99110639D01*
X152303883Y-99110641D01*
X152341937Y-99132611D01*
X152354001Y-99139577D01*
X152506729Y-99180501D01*
X152506732Y-99180501D01*
X152672439Y-99180501D01*
X152672455Y-99180500D01*
X164169598Y-99180500D01*
X164236637Y-99200185D01*
X164282392Y-99252989D01*
X164292336Y-99322147D01*
X164263311Y-99385703D01*
X164257279Y-99392181D01*
X164250412Y-99399047D01*
X164250405Y-99399056D01*
X164166435Y-99541042D01*
X164166434Y-99541045D01*
X164120413Y-99699447D01*
X164120412Y-99699453D01*
X164117500Y-99736458D01*
X164117500Y-101995541D01*
X164120412Y-102032546D01*
X164120413Y-102032552D01*
X164166434Y-102190954D01*
X164166435Y-102190957D01*
X164250405Y-102332943D01*
X164250412Y-102332952D01*
X164367047Y-102449587D01*
X164367051Y-102449590D01*
X164367053Y-102449592D01*
X164509041Y-102533564D01*
X164550816Y-102545701D01*
X164667447Y-102579586D01*
X164667450Y-102579586D01*
X164667452Y-102579587D01*
X164704466Y-102582500D01*
X164704474Y-102582500D01*
X166055526Y-102582500D01*
X166055534Y-102582500D01*
X166092548Y-102579587D01*
X166092550Y-102579586D01*
X166092552Y-102579586D01*
X166134323Y-102567449D01*
X166250959Y-102533564D01*
X166392947Y-102449592D01*
X166509592Y-102332947D01*
X166543268Y-102276003D01*
X166594337Y-102228321D01*
X166663079Y-102215817D01*
X166727668Y-102242462D01*
X166756732Y-102276004D01*
X166790406Y-102332944D01*
X166790412Y-102332952D01*
X166907047Y-102449587D01*
X166907051Y-102449590D01*
X166907053Y-102449592D01*
X167049041Y-102533564D01*
X167090816Y-102545701D01*
X167207447Y-102579586D01*
X167207450Y-102579586D01*
X167207452Y-102579587D01*
X167244466Y-102582500D01*
X167244474Y-102582500D01*
X168595526Y-102582500D01*
X168595534Y-102582500D01*
X168632548Y-102579587D01*
X168632550Y-102579586D01*
X168632552Y-102579586D01*
X168674323Y-102567449D01*
X168790959Y-102533564D01*
X168932947Y-102449592D01*
X169049592Y-102332947D01*
X169083268Y-102276003D01*
X169134337Y-102228321D01*
X169203079Y-102215817D01*
X169267668Y-102242462D01*
X169296732Y-102276004D01*
X169330406Y-102332944D01*
X169330412Y-102332952D01*
X169447047Y-102449587D01*
X169447051Y-102449590D01*
X169447053Y-102449592D01*
X169589041Y-102533564D01*
X169630816Y-102545701D01*
X169747447Y-102579586D01*
X169747450Y-102579586D01*
X169747452Y-102579587D01*
X169784466Y-102582500D01*
X169784474Y-102582500D01*
X171135526Y-102582500D01*
X171135534Y-102582500D01*
X171172548Y-102579587D01*
X171172550Y-102579586D01*
X171172552Y-102579586D01*
X171214323Y-102567449D01*
X171330959Y-102533564D01*
X171472947Y-102449592D01*
X171589592Y-102332947D01*
X171623268Y-102276003D01*
X171674337Y-102228321D01*
X171743079Y-102215817D01*
X171807668Y-102242462D01*
X171836732Y-102276004D01*
X171870406Y-102332944D01*
X171870412Y-102332952D01*
X171987047Y-102449587D01*
X171987051Y-102449590D01*
X171987053Y-102449592D01*
X172129041Y-102533564D01*
X172170816Y-102545701D01*
X172287447Y-102579586D01*
X172287450Y-102579586D01*
X172287452Y-102579587D01*
X172324466Y-102582500D01*
X172324474Y-102582500D01*
X173675526Y-102582500D01*
X173675534Y-102582500D01*
X173712548Y-102579587D01*
X173712550Y-102579586D01*
X173712552Y-102579586D01*
X173754323Y-102567449D01*
X173870959Y-102533564D01*
X174012947Y-102449592D01*
X174129592Y-102332947D01*
X174163268Y-102276003D01*
X174214337Y-102228321D01*
X174283079Y-102215817D01*
X174347668Y-102242462D01*
X174376732Y-102276004D01*
X174410406Y-102332944D01*
X174410412Y-102332952D01*
X174527047Y-102449587D01*
X174527051Y-102449590D01*
X174527053Y-102449592D01*
X174669041Y-102533564D01*
X174710816Y-102545701D01*
X174827447Y-102579586D01*
X174827450Y-102579586D01*
X174827452Y-102579587D01*
X174864466Y-102582500D01*
X174864474Y-102582500D01*
X176215526Y-102582500D01*
X176215534Y-102582500D01*
X176252548Y-102579587D01*
X176252550Y-102579586D01*
X176252552Y-102579586D01*
X176294323Y-102567449D01*
X176410959Y-102533564D01*
X176552947Y-102449592D01*
X176669592Y-102332947D01*
X176753564Y-102190959D01*
X176753565Y-102190955D01*
X176753566Y-102190954D01*
X176778397Y-102105483D01*
X177052647Y-102105483D01*
X177065907Y-102143380D01*
X177146891Y-102253108D01*
X177256618Y-102334090D01*
X177385347Y-102379134D01*
X177415902Y-102381999D01*
X178744086Y-102381999D01*
X178774657Y-102379133D01*
X178903380Y-102334091D01*
X179013108Y-102253108D01*
X179094092Y-102143378D01*
X179094093Y-102143377D01*
X179107352Y-102105483D01*
X178080000Y-101078132D01*
X177052647Y-102105483D01*
X176778397Y-102105483D01*
X176786342Y-102078136D01*
X176786345Y-102078127D01*
X176786877Y-102076294D01*
X176799587Y-102032548D01*
X176802500Y-101995534D01*
X176802500Y-101812182D01*
X176822185Y-101745144D01*
X176874989Y-101699389D01*
X176944147Y-101689445D01*
X176973953Y-101697622D01*
X177018000Y-101715867D01*
X177867868Y-100866000D01*
X177867868Y-100865999D01*
X177018000Y-100016131D01*
X176973953Y-100034377D01*
X176904483Y-100041846D01*
X176842004Y-100010571D01*
X176806352Y-99950482D01*
X176802500Y-99919816D01*
X176802500Y-99736473D01*
X176802499Y-99736458D01*
X176799587Y-99699453D01*
X176799586Y-99699447D01*
X176786345Y-99653872D01*
X176778397Y-99626515D01*
X177052647Y-99626515D01*
X177716455Y-100290323D01*
X177724311Y-100303930D01*
X177807070Y-100386689D01*
X177820676Y-100394544D01*
X178080000Y-100653868D01*
X178080001Y-100653868D01*
X178339324Y-100394544D01*
X178352930Y-100386689D01*
X178435689Y-100303930D01*
X178443544Y-100290323D01*
X179107351Y-99626516D01*
X179094091Y-99588619D01*
X179013107Y-99478890D01*
X178981696Y-99455708D01*
X178952226Y-99424828D01*
X178930627Y-99392502D01*
X178483041Y-99840088D01*
X178435689Y-99758070D01*
X178352930Y-99675311D01*
X178270909Y-99627957D01*
X178718496Y-99180371D01*
X178583049Y-99089869D01*
X178583038Y-99089863D01*
X178389775Y-99009812D01*
X178389766Y-99009809D01*
X178184601Y-98969000D01*
X177975399Y-98969000D01*
X177770233Y-99009809D01*
X177770224Y-99009812D01*
X177576961Y-99089863D01*
X177576950Y-99089869D01*
X177441503Y-99180371D01*
X177441502Y-99180371D01*
X177889088Y-99627957D01*
X177807070Y-99675311D01*
X177724311Y-99758070D01*
X177676957Y-99840088D01*
X177229371Y-99392502D01*
X177229370Y-99392503D01*
X177207771Y-99424828D01*
X177178307Y-99455704D01*
X177146896Y-99478888D01*
X177146892Y-99478892D01*
X177065908Y-99588619D01*
X177052647Y-99626515D01*
X176778397Y-99626515D01*
X176753565Y-99541045D01*
X176753564Y-99541042D01*
X176753564Y-99541041D01*
X176669592Y-99399053D01*
X176573390Y-99302851D01*
X176560758Y-99288060D01*
X176502984Y-99208539D01*
X176362466Y-99068021D01*
X176362464Y-99068019D01*
X176201694Y-98951213D01*
X176196793Y-98948716D01*
X176024632Y-98860994D01*
X176024629Y-98860993D01*
X175835637Y-98799587D01*
X175737498Y-98784043D01*
X175639361Y-98768500D01*
X175440639Y-98768500D01*
X175401384Y-98774717D01*
X175244360Y-98799587D01*
X175242087Y-98800133D01*
X175241197Y-98800088D01*
X175239552Y-98800349D01*
X175239497Y-98800003D01*
X175172305Y-98796635D01*
X175125472Y-98767237D01*
X174576590Y-98218355D01*
X174576588Y-98218352D01*
X174457717Y-98099481D01*
X174457716Y-98099480D01*
X174370904Y-98049360D01*
X174370904Y-98049359D01*
X174370900Y-98049358D01*
X174320785Y-98020423D01*
X174168057Y-97979499D01*
X174009943Y-97979499D01*
X174002347Y-97979499D01*
X174002331Y-97979500D01*
X152885883Y-97979500D01*
X152818844Y-97959815D01*
X152798202Y-97943181D01*
X152134893Y-97279872D01*
X152101408Y-97218549D01*
X152106392Y-97148857D01*
X152148264Y-97092924D01*
X152149618Y-97091924D01*
X152282073Y-96995690D01*
X152415690Y-96862073D01*
X152526760Y-96709199D01*
X152612547Y-96540832D01*
X152670940Y-96361118D01*
X152699043Y-96183682D01*
X152728972Y-96120547D01*
X152733818Y-96115416D01*
X155543979Y-93305254D01*
X155605300Y-93271771D01*
X155674992Y-93276755D01*
X155730925Y-93318627D01*
X155755342Y-93384091D01*
X155754132Y-93412333D01*
X155749500Y-93441581D01*
X155749500Y-93638422D01*
X155780290Y-93832826D01*
X155841117Y-94020029D01*
X155930476Y-94195405D01*
X156046172Y-94354646D01*
X156185354Y-94493828D01*
X156344595Y-94609524D01*
X156427455Y-94651743D01*
X156519970Y-94698882D01*
X156519972Y-94698882D01*
X156519975Y-94698884D01*
X156620317Y-94731487D01*
X156707173Y-94759709D01*
X156883281Y-94787602D01*
X156946416Y-94817531D01*
X156983347Y-94876843D01*
X156982349Y-94946705D01*
X156943739Y-95004938D01*
X156888074Y-95031692D01*
X156693733Y-95070348D01*
X156693725Y-95070350D01*
X156502639Y-95149501D01*
X156370155Y-95238023D01*
X156370154Y-95238023D01*
X156841665Y-95709533D01*
X156754394Y-95759920D01*
X156679920Y-95834394D01*
X156629534Y-95921665D01*
X156158023Y-95450154D01*
X156158023Y-95450155D01*
X156069501Y-95582639D01*
X155990350Y-95773725D01*
X155990348Y-95773733D01*
X155950000Y-95976579D01*
X155950000Y-96183420D01*
X155990348Y-96386266D01*
X155990350Y-96386274D01*
X156069502Y-96577363D01*
X156069502Y-96577364D01*
X156158021Y-96709843D01*
X156158023Y-96709843D01*
X156629533Y-96238333D01*
X156679920Y-96325606D01*
X156754394Y-96400080D01*
X156841665Y-96450465D01*
X156370155Y-96921975D01*
X156502631Y-97010494D01*
X156502641Y-97010499D01*
X156693725Y-97089649D01*
X156693733Y-97089651D01*
X156896579Y-97129999D01*
X156896583Y-97130000D01*
X157103417Y-97130000D01*
X157103420Y-97129999D01*
X157306266Y-97089651D01*
X157306274Y-97089649D01*
X157497359Y-97010499D01*
X157629844Y-96921976D01*
X157158334Y-96450465D01*
X157245606Y-96400080D01*
X157320080Y-96325606D01*
X157370466Y-96238334D01*
X157841976Y-96709844D01*
X157930499Y-96577359D01*
X158009649Y-96386274D01*
X158009651Y-96386266D01*
X158049999Y-96183420D01*
X158050000Y-96183417D01*
X158050000Y-95976583D01*
X158049999Y-95976579D01*
X158009651Y-95773733D01*
X158009649Y-95773725D01*
X157930499Y-95582641D01*
X157930494Y-95582631D01*
X157841975Y-95450155D01*
X157370465Y-95921665D01*
X157320080Y-95834394D01*
X157245606Y-95759920D01*
X157158334Y-95709533D01*
X157629843Y-95238023D01*
X157629843Y-95238021D01*
X157497363Y-95149502D01*
X157306274Y-95070350D01*
X157306266Y-95070348D01*
X157111925Y-95031692D01*
X157050014Y-94999308D01*
X157015440Y-94938592D01*
X157019179Y-94868823D01*
X157060045Y-94812150D01*
X157116718Y-94787602D01*
X157292826Y-94759709D01*
X157480025Y-94698884D01*
X157655405Y-94609524D01*
X157814646Y-94493828D01*
X157953828Y-94354646D01*
X158069524Y-94195405D01*
X158158884Y-94020025D01*
X158219709Y-93832826D01*
X158250500Y-93638422D01*
X158250500Y-93441577D01*
X158219709Y-93247173D01*
X158158882Y-93059970D01*
X158069523Y-92884594D01*
X157953828Y-92725354D01*
X157814646Y-92586172D01*
X157735025Y-92528324D01*
X157655403Y-92470474D01*
X157478787Y-92380485D01*
X157427990Y-92332511D01*
X157411195Y-92264690D01*
X157433732Y-92198555D01*
X157478787Y-92159515D01*
X157655403Y-92069525D01*
X157655402Y-92069525D01*
X157655405Y-92069524D01*
X157814646Y-91953828D01*
X157953828Y-91814646D01*
X158069524Y-91655405D01*
X158069524Y-91655403D01*
X158072278Y-91651614D01*
X158127608Y-91608949D01*
X158172596Y-91600500D01*
X171784331Y-91600500D01*
X171784347Y-91600501D01*
X171791943Y-91600501D01*
X171950054Y-91600501D01*
X171950057Y-91600501D01*
X172102785Y-91559577D01*
X172152904Y-91530639D01*
X172239716Y-91480520D01*
X172351520Y-91368716D01*
X172351520Y-91368714D01*
X172361728Y-91358507D01*
X172361730Y-91358504D01*
X177665473Y-86054760D01*
X177726794Y-86021277D01*
X177779521Y-86021841D01*
X177779552Y-86021651D01*
X177780843Y-86021855D01*
X177782099Y-86021869D01*
X177784352Y-86022409D01*
X177784364Y-86022413D01*
X177980639Y-86053500D01*
X177980640Y-86053500D01*
X178179360Y-86053500D01*
X178179361Y-86053500D01*
X178375636Y-86022413D01*
X178564632Y-85961005D01*
X178741694Y-85870787D01*
X178902464Y-85753981D01*
X179042981Y-85613464D01*
X179100760Y-85533936D01*
X179113389Y-85519148D01*
X179209592Y-85422947D01*
X179243268Y-85366003D01*
X179294337Y-85318321D01*
X179363079Y-85305817D01*
X179427668Y-85332462D01*
X179456732Y-85366004D01*
X179490405Y-85422943D01*
X179490408Y-85422947D01*
X179586608Y-85519147D01*
X179599240Y-85533938D01*
X179646084Y-85598414D01*
X179657019Y-85613464D01*
X179797536Y-85753981D01*
X179958306Y-85870787D01*
X180045149Y-85915035D01*
X180135367Y-85961005D01*
X180135370Y-85961006D01*
X180229866Y-85991709D01*
X180324364Y-86022413D01*
X180520639Y-86053500D01*
X180520640Y-86053500D01*
X180719360Y-86053500D01*
X180719361Y-86053500D01*
X180915636Y-86022413D01*
X181104632Y-85961005D01*
X181281694Y-85870787D01*
X181442464Y-85753981D01*
X181582981Y-85613464D01*
X181640760Y-85533936D01*
X181653389Y-85519148D01*
X181749592Y-85422947D01*
X181833564Y-85280959D01*
X181879587Y-85122548D01*
X181882500Y-85085534D01*
X181882500Y-82826466D01*
X181879587Y-82789452D01*
X181833564Y-82631041D01*
X181749592Y-82489053D01*
X181749590Y-82489051D01*
X181749587Y-82489047D01*
X181632952Y-82372412D01*
X181632943Y-82372405D01*
X181490957Y-82288435D01*
X181490954Y-82288434D01*
X181332552Y-82242413D01*
X181332546Y-82242412D01*
X181295541Y-82239500D01*
X181295534Y-82239500D01*
X179944466Y-82239500D01*
X179944458Y-82239500D01*
X179907453Y-82242412D01*
X179907447Y-82242413D01*
X179749045Y-82288434D01*
X179749042Y-82288435D01*
X179607056Y-82372405D01*
X179607047Y-82372412D01*
X179490412Y-82489047D01*
X179490408Y-82489053D01*
X179456732Y-82545996D01*
X179405662Y-82593679D01*
X179336921Y-82606182D01*
X179272331Y-82579536D01*
X179243268Y-82545996D01*
X179209592Y-82489053D01*
X179209589Y-82489050D01*
X179209587Y-82489047D01*
X179092952Y-82372412D01*
X179092943Y-82372405D01*
X178950957Y-82288435D01*
X178950954Y-82288434D01*
X178792552Y-82242413D01*
X178792546Y-82242412D01*
X178755541Y-82239500D01*
X178755534Y-82239500D01*
X177404466Y-82239500D01*
X177404458Y-82239500D01*
X177367453Y-82242412D01*
X177367447Y-82242413D01*
X177209045Y-82288434D01*
X177209042Y-82288435D01*
X177067056Y-82372405D01*
X177067047Y-82372412D01*
X176950412Y-82489047D01*
X176950408Y-82489053D01*
X176916732Y-82545996D01*
X176865662Y-82593679D01*
X176796921Y-82606182D01*
X176732331Y-82579536D01*
X176703268Y-82545996D01*
X176669592Y-82489053D01*
X176669589Y-82489050D01*
X176669587Y-82489047D01*
X176552952Y-82372412D01*
X176552943Y-82372405D01*
X176410957Y-82288435D01*
X176410954Y-82288434D01*
X176252552Y-82242413D01*
X176252546Y-82242412D01*
X176215541Y-82239500D01*
X176215534Y-82239500D01*
X176087883Y-82239500D01*
X176020844Y-82219815D01*
X175975089Y-82167011D01*
X175965145Y-82097853D01*
X175994170Y-82034297D01*
X176000202Y-82027819D01*
X179702872Y-78325149D01*
X180775500Y-78325149D01*
X180775500Y-78580850D01*
X180800635Y-78771757D01*
X180808874Y-78834340D01*
X180859204Y-79022174D01*
X180875050Y-79081312D01*
X180875053Y-79081322D01*
X180972894Y-79317531D01*
X180972899Y-79317542D01*
X181100734Y-79538957D01*
X181100745Y-79538973D01*
X181256388Y-79741811D01*
X181256394Y-79741818D01*
X181437181Y-79922605D01*
X181437188Y-79922611D01*
X181548304Y-80007873D01*
X181640035Y-80078261D01*
X181640042Y-80078265D01*
X181861457Y-80206100D01*
X181861462Y-80206102D01*
X181861465Y-80206104D01*
X182097687Y-80303950D01*
X182344660Y-80370126D01*
X182598157Y-80403500D01*
X182598164Y-80403500D01*
X183753836Y-80403500D01*
X183753843Y-80403500D01*
X184007340Y-80370126D01*
X184254313Y-80303950D01*
X184490535Y-80206104D01*
X184711965Y-80078261D01*
X184914813Y-79922610D01*
X185095610Y-79741813D01*
X185251261Y-79538965D01*
X185379104Y-79317535D01*
X185476950Y-79081313D01*
X185543126Y-78834340D01*
X185576500Y-78580843D01*
X185576500Y-78325157D01*
X185543126Y-78071660D01*
X185476950Y-77824687D01*
X185476947Y-77824679D01*
X185476946Y-77824676D01*
X185379105Y-77588468D01*
X185379100Y-77588457D01*
X185251265Y-77367042D01*
X185251261Y-77367035D01*
X185095610Y-77164187D01*
X185095605Y-77164181D01*
X184914818Y-76983394D01*
X184914811Y-76983388D01*
X184711973Y-76827745D01*
X184711971Y-76827743D01*
X184711965Y-76827739D01*
X184711960Y-76827736D01*
X184711957Y-76827734D01*
X184490542Y-76699899D01*
X184490531Y-76699894D01*
X184254322Y-76602053D01*
X184254315Y-76602051D01*
X184254313Y-76602050D01*
X184007340Y-76535874D01*
X183951007Y-76528457D01*
X183753850Y-76502500D01*
X183753843Y-76502500D01*
X182598157Y-76502500D01*
X182598149Y-76502500D01*
X182372826Y-76532165D01*
X182344660Y-76535874D01*
X182097687Y-76602050D01*
X182097677Y-76602053D01*
X181861468Y-76699894D01*
X181861457Y-76699899D01*
X181640042Y-76827734D01*
X181640026Y-76827745D01*
X181437188Y-76983388D01*
X181437181Y-76983394D01*
X181256394Y-77164181D01*
X181256388Y-77164188D01*
X181100745Y-77367026D01*
X181100734Y-77367042D01*
X180972899Y-77588457D01*
X180972894Y-77588468D01*
X180875054Y-77824676D01*
X180875050Y-77824687D01*
X180809471Y-78069434D01*
X180808874Y-78071661D01*
X180775500Y-78325149D01*
X179702872Y-78325149D01*
X187534632Y-70493389D01*
X190739500Y-70493389D01*
X190739500Y-70666611D01*
X190766598Y-70837701D01*
X190820127Y-71002445D01*
X190898768Y-71156788D01*
X191000586Y-71296928D01*
X191123072Y-71419414D01*
X191263212Y-71521232D01*
X191417555Y-71599873D01*
X191582299Y-71653402D01*
X191753389Y-71680500D01*
X191753390Y-71680500D01*
X191926610Y-71680500D01*
X191926611Y-71680500D01*
X192097701Y-71653402D01*
X192262445Y-71599873D01*
X192416788Y-71521232D01*
X192556928Y-71419414D01*
X192679414Y-71296928D01*
X192781232Y-71156788D01*
X192859873Y-71002445D01*
X192913402Y-70837701D01*
X192940500Y-70666611D01*
X192940500Y-70493389D01*
X192930854Y-70432486D01*
X194669500Y-70432486D01*
X194669500Y-70727513D01*
X194696289Y-70930987D01*
X194708007Y-71019993D01*
X194782212Y-71296930D01*
X194784361Y-71304951D01*
X194784364Y-71304961D01*
X194897254Y-71577500D01*
X194897258Y-71577510D01*
X195044761Y-71832993D01*
X195224352Y-72067040D01*
X195224358Y-72067047D01*
X195432952Y-72275641D01*
X195432959Y-72275647D01*
X195667006Y-72455238D01*
X195922489Y-72602741D01*
X195922490Y-72602741D01*
X195922493Y-72602743D01*
X196195048Y-72715639D01*
X196480007Y-72791993D01*
X196772494Y-72830500D01*
X196772501Y-72830500D01*
X197067499Y-72830500D01*
X197067506Y-72830500D01*
X197359993Y-72791993D01*
X197644952Y-72715639D01*
X197917507Y-72602743D01*
X198172994Y-72455238D01*
X198407042Y-72275646D01*
X198615646Y-72067042D01*
X198795238Y-71832994D01*
X198942743Y-71577507D01*
X199055639Y-71304952D01*
X199131993Y-71019993D01*
X199170500Y-70727506D01*
X199170500Y-70493389D01*
X200899500Y-70493389D01*
X200899500Y-70666611D01*
X200926598Y-70837701D01*
X200980127Y-71002445D01*
X201058768Y-71156788D01*
X201160586Y-71296928D01*
X201283072Y-71419414D01*
X201423212Y-71521232D01*
X201577555Y-71599873D01*
X201742299Y-71653402D01*
X201913389Y-71680500D01*
X201913390Y-71680500D01*
X202086610Y-71680500D01*
X202086611Y-71680500D01*
X202257701Y-71653402D01*
X202422445Y-71599873D01*
X202576788Y-71521232D01*
X202716928Y-71419414D01*
X202839414Y-71296928D01*
X202941232Y-71156788D01*
X203019873Y-71002445D01*
X203073402Y-70837701D01*
X203100500Y-70666611D01*
X203100500Y-70493389D01*
X203073402Y-70322299D01*
X203019873Y-70157555D01*
X202941232Y-70003212D01*
X202839414Y-69863072D01*
X202716928Y-69740586D01*
X202576788Y-69638768D01*
X202422445Y-69560127D01*
X202257701Y-69506598D01*
X202257699Y-69506597D01*
X202257698Y-69506597D01*
X202126271Y-69485781D01*
X202086611Y-69479500D01*
X201913389Y-69479500D01*
X201873728Y-69485781D01*
X201742302Y-69506597D01*
X201577552Y-69560128D01*
X201423211Y-69638768D01*
X201343256Y-69696859D01*
X201283072Y-69740586D01*
X201283070Y-69740588D01*
X201283069Y-69740588D01*
X201160588Y-69863069D01*
X201160588Y-69863070D01*
X201160586Y-69863072D01*
X201154794Y-69871044D01*
X201058768Y-70003211D01*
X200980128Y-70157552D01*
X200926597Y-70322302D01*
X200900397Y-70487727D01*
X200899500Y-70493389D01*
X199170500Y-70493389D01*
X199170500Y-70432494D01*
X199131993Y-70140007D01*
X199055639Y-69855048D01*
X198942743Y-69582493D01*
X198942103Y-69581385D01*
X198795238Y-69327006D01*
X198615647Y-69092959D01*
X198615641Y-69092952D01*
X198407047Y-68884358D01*
X198407040Y-68884352D01*
X198172993Y-68704761D01*
X197917510Y-68557258D01*
X197917500Y-68557254D01*
X197644961Y-68444364D01*
X197644954Y-68444362D01*
X197644952Y-68444361D01*
X197359993Y-68368007D01*
X197311113Y-68361571D01*
X197067513Y-68329500D01*
X197067506Y-68329500D01*
X196772494Y-68329500D01*
X196772486Y-68329500D01*
X196494085Y-68366153D01*
X196480007Y-68368007D01*
X196195048Y-68444361D01*
X196195038Y-68444364D01*
X195922499Y-68557254D01*
X195922489Y-68557258D01*
X195667006Y-68704761D01*
X195432959Y-68884352D01*
X195432952Y-68884358D01*
X195224358Y-69092952D01*
X195224352Y-69092959D01*
X195044761Y-69327006D01*
X194897258Y-69582489D01*
X194897254Y-69582499D01*
X194784364Y-69855038D01*
X194784361Y-69855048D01*
X194708008Y-70140004D01*
X194708006Y-70140015D01*
X194669500Y-70432486D01*
X192930854Y-70432486D01*
X192913402Y-70322299D01*
X192859873Y-70157555D01*
X192781232Y-70003212D01*
X192679414Y-69863072D01*
X192556928Y-69740586D01*
X192416788Y-69638768D01*
X192262445Y-69560127D01*
X192097701Y-69506598D01*
X192097699Y-69506597D01*
X192097698Y-69506597D01*
X191966271Y-69485781D01*
X191926611Y-69479500D01*
X191753389Y-69479500D01*
X191713728Y-69485781D01*
X191582302Y-69506597D01*
X191417552Y-69560128D01*
X191263211Y-69638768D01*
X191183256Y-69696859D01*
X191123072Y-69740586D01*
X191123070Y-69740588D01*
X191123069Y-69740588D01*
X191000588Y-69863069D01*
X191000588Y-69863070D01*
X191000586Y-69863072D01*
X190994794Y-69871044D01*
X190898768Y-70003211D01*
X190820128Y-70157552D01*
X190766597Y-70322302D01*
X190740397Y-70487727D01*
X190739500Y-70493389D01*
X187534632Y-70493389D01*
X190098203Y-67929818D01*
X191710000Y-67929818D01*
X191710000Y-68150181D01*
X191744473Y-68367835D01*
X191812567Y-68577410D01*
X191912615Y-68773763D01*
X192018442Y-68919423D01*
X192018443Y-68919423D01*
X192484311Y-68453555D01*
X192527437Y-68518097D01*
X192631903Y-68622563D01*
X192696443Y-68665687D01*
X192230574Y-69131555D01*
X192230575Y-69131556D01*
X192376236Y-69237384D01*
X192572589Y-69337432D01*
X192782164Y-69405526D01*
X192999819Y-69440000D01*
X193220181Y-69440000D01*
X193437835Y-69405526D01*
X193647410Y-69337432D01*
X193843763Y-69237384D01*
X193989423Y-69131557D01*
X193989424Y-69131555D01*
X193523556Y-68665687D01*
X193588097Y-68622563D01*
X193692563Y-68518097D01*
X193735687Y-68453556D01*
X194201555Y-68919424D01*
X194201557Y-68919423D01*
X194307384Y-68773763D01*
X194407432Y-68577410D01*
X194475526Y-68367835D01*
X194510000Y-68150181D01*
X194510000Y-67929818D01*
X194475526Y-67712164D01*
X194407432Y-67502589D01*
X194307384Y-67306236D01*
X194201556Y-67160575D01*
X194201555Y-67160574D01*
X193735687Y-67626443D01*
X193692563Y-67561903D01*
X193588097Y-67457437D01*
X193523555Y-67414312D01*
X193989423Y-66948443D01*
X193989423Y-66948442D01*
X193843763Y-66842615D01*
X193647410Y-66742567D01*
X193437835Y-66674473D01*
X193220181Y-66640000D01*
X192999819Y-66640000D01*
X192782164Y-66674473D01*
X192572589Y-66742567D01*
X192376243Y-66842611D01*
X192230575Y-66948443D01*
X192696444Y-67414312D01*
X192631903Y-67457437D01*
X192527437Y-67561903D01*
X192484312Y-67626444D01*
X192018443Y-67160575D01*
X191912611Y-67306243D01*
X191812567Y-67502589D01*
X191744473Y-67712164D01*
X191710000Y-67929818D01*
X190098203Y-67929818D01*
X191891202Y-66136819D01*
X191952525Y-66103334D01*
X191978883Y-66100500D01*
X197893700Y-66100500D01*
X197960739Y-66120185D01*
X198004185Y-66168205D01*
X198091131Y-66338847D01*
X198239201Y-66542649D01*
X198239205Y-66542654D01*
X198417345Y-66720794D01*
X198417350Y-66720798D01*
X198447313Y-66742567D01*
X198621155Y-66868870D01*
X198764184Y-66941747D01*
X198845616Y-66983239D01*
X198845618Y-66983239D01*
X198845621Y-66983241D01*
X199085215Y-67061090D01*
X199334038Y-67100500D01*
X199334039Y-67100500D01*
X199585961Y-67100500D01*
X199585962Y-67100500D01*
X199834785Y-67061090D01*
X200074379Y-66983241D01*
X200298845Y-66868870D01*
X200502656Y-66720793D01*
X200680793Y-66542656D01*
X200749118Y-66448615D01*
X200828869Y-66338847D01*
X200943241Y-66114379D01*
X200943242Y-66114376D01*
X200944913Y-66109233D01*
X200984347Y-66051555D01*
X201048704Y-66024353D01*
X201117551Y-66036263D01*
X201150527Y-66059863D01*
X205253181Y-70162517D01*
X205286666Y-70223840D01*
X205289500Y-70250198D01*
X205289500Y-83605500D01*
X205269815Y-83672539D01*
X205217011Y-83718294D01*
X205165501Y-83729500D01*
X204992130Y-83729500D01*
X204992123Y-83729501D01*
X204932516Y-83735908D01*
X204797671Y-83786202D01*
X204797664Y-83786206D01*
X204682455Y-83872452D01*
X204682452Y-83872455D01*
X204596206Y-83987664D01*
X204596202Y-83987671D01*
X204545908Y-84122517D01*
X204539501Y-84182116D01*
X204539501Y-84182123D01*
X204539500Y-84182135D01*
X204539500Y-84379077D01*
X204519815Y-84446116D01*
X204467011Y-84491871D01*
X204397853Y-84501815D01*
X204334297Y-84472790D01*
X204315182Y-84451963D01*
X204262574Y-84379556D01*
X204262574Y-84379555D01*
X203793670Y-84848460D01*
X203750099Y-84772993D01*
X203657007Y-84679901D01*
X203581539Y-84636329D01*
X204050443Y-84167425D01*
X204050442Y-84167424D01*
X203952731Y-84096432D01*
X203791447Y-84014252D01*
X203791444Y-84014251D01*
X203619293Y-83958317D01*
X203440506Y-83930000D01*
X203259494Y-83930000D01*
X203080706Y-83958317D01*
X202908555Y-84014251D01*
X202908552Y-84014252D01*
X202747265Y-84096434D01*
X202649556Y-84167423D01*
X202649556Y-84167425D01*
X203118461Y-84636329D01*
X203042993Y-84679901D01*
X202949901Y-84772993D01*
X202906329Y-84848460D01*
X202437425Y-84379556D01*
X202437423Y-84379556D01*
X202366432Y-84477267D01*
X202299447Y-84608730D01*
X202251472Y-84659526D01*
X202183651Y-84676320D01*
X202117516Y-84653782D01*
X202074066Y-84599066D01*
X202071043Y-84590783D01*
X202061557Y-84561588D01*
X201965051Y-84372184D01*
X201965049Y-84372181D01*
X201965048Y-84372179D01*
X201903576Y-84287569D01*
X201840109Y-84200214D01*
X201840105Y-84200209D01*
X201689786Y-84049890D01*
X201517820Y-83924951D01*
X201328414Y-83828444D01*
X201328413Y-83828443D01*
X201328412Y-83828443D01*
X201126243Y-83762754D01*
X201126241Y-83762753D01*
X201126240Y-83762753D01*
X200964957Y-83737208D01*
X200916287Y-83729500D01*
X200703713Y-83729500D01*
X200655042Y-83737208D01*
X200493760Y-83762753D01*
X200291585Y-83828444D01*
X200102179Y-83924951D01*
X199930213Y-84049890D01*
X199779890Y-84200213D01*
X199654949Y-84372182D01*
X199650484Y-84380946D01*
X199602509Y-84431742D01*
X199534688Y-84448536D01*
X199468553Y-84425998D01*
X199429516Y-84380946D01*
X199425050Y-84372182D01*
X199300109Y-84200213D01*
X199149786Y-84049890D01*
X198977820Y-83924951D01*
X198788414Y-83828444D01*
X198788413Y-83828443D01*
X198788412Y-83828443D01*
X198586243Y-83762754D01*
X198586241Y-83762753D01*
X198586240Y-83762753D01*
X198424957Y-83737208D01*
X198376287Y-83729500D01*
X198163713Y-83729500D01*
X198115042Y-83737208D01*
X197953760Y-83762753D01*
X197751585Y-83828444D01*
X197562179Y-83924951D01*
X197390213Y-84049890D01*
X197239890Y-84200213D01*
X197114949Y-84372182D01*
X197110484Y-84380946D01*
X197062509Y-84431742D01*
X196994688Y-84448536D01*
X196928553Y-84425998D01*
X196889516Y-84380946D01*
X196885050Y-84372182D01*
X196760109Y-84200213D01*
X196609786Y-84049890D01*
X196437820Y-83924951D01*
X196248414Y-83828444D01*
X196248413Y-83828443D01*
X196248412Y-83828443D01*
X196046243Y-83762754D01*
X196046241Y-83762753D01*
X196046240Y-83762753D01*
X195884957Y-83737208D01*
X195836287Y-83729500D01*
X195623713Y-83729500D01*
X195575042Y-83737208D01*
X195413760Y-83762753D01*
X195211585Y-83828444D01*
X195022179Y-83924951D01*
X194850213Y-84049890D01*
X194699890Y-84200213D01*
X194574949Y-84372182D01*
X194570484Y-84380946D01*
X194522509Y-84431742D01*
X194454688Y-84448536D01*
X194388553Y-84425998D01*
X194349516Y-84380946D01*
X194345050Y-84372182D01*
X194220109Y-84200213D01*
X194069786Y-84049890D01*
X193897820Y-83924951D01*
X193708414Y-83828444D01*
X193708413Y-83828443D01*
X193708412Y-83828443D01*
X193506243Y-83762754D01*
X193506241Y-83762753D01*
X193506240Y-83762753D01*
X193344957Y-83737208D01*
X193296287Y-83729500D01*
X193083713Y-83729500D01*
X193035042Y-83737208D01*
X192873760Y-83762753D01*
X192671585Y-83828444D01*
X192482179Y-83924951D01*
X192310213Y-84049890D01*
X192159890Y-84200213D01*
X192034949Y-84372182D01*
X192030484Y-84380946D01*
X191982509Y-84431742D01*
X191914688Y-84448536D01*
X191848553Y-84425998D01*
X191809516Y-84380946D01*
X191805050Y-84372182D01*
X191680109Y-84200213D01*
X191529786Y-84049890D01*
X191357820Y-83924951D01*
X191168414Y-83828444D01*
X191168413Y-83828443D01*
X191168412Y-83828443D01*
X190966243Y-83762754D01*
X190966241Y-83762753D01*
X190966240Y-83762753D01*
X190804957Y-83737208D01*
X190756287Y-83729500D01*
X190543713Y-83729500D01*
X190495042Y-83737208D01*
X190333760Y-83762753D01*
X190131585Y-83828444D01*
X189942179Y-83924951D01*
X189770213Y-84049890D01*
X189619890Y-84200213D01*
X189494949Y-84372182D01*
X189490484Y-84380946D01*
X189442509Y-84431742D01*
X189374688Y-84448536D01*
X189308553Y-84425998D01*
X189269516Y-84380946D01*
X189265050Y-84372182D01*
X189140109Y-84200213D01*
X188989786Y-84049890D01*
X188817820Y-83924951D01*
X188628414Y-83828444D01*
X188628413Y-83828443D01*
X188628412Y-83828443D01*
X188426243Y-83762754D01*
X188426241Y-83762753D01*
X188426240Y-83762753D01*
X188264957Y-83737208D01*
X188216287Y-83729500D01*
X188003713Y-83729500D01*
X187955042Y-83737208D01*
X187793760Y-83762753D01*
X187591585Y-83828444D01*
X187402179Y-83924951D01*
X187230213Y-84049890D01*
X187079890Y-84200213D01*
X186954951Y-84372179D01*
X186858444Y-84561585D01*
X186792753Y-84763760D01*
X186759500Y-84973713D01*
X186759500Y-85186286D01*
X186787964Y-85366004D01*
X186792754Y-85396243D01*
X186843125Y-85551269D01*
X186858444Y-85598414D01*
X186954951Y-85787820D01*
X187079890Y-85959786D01*
X187230213Y-86110109D01*
X187402179Y-86235048D01*
X187402181Y-86235049D01*
X187402184Y-86235051D01*
X187591588Y-86331557D01*
X187793757Y-86397246D01*
X188003713Y-86430500D01*
X188003714Y-86430500D01*
X188216286Y-86430500D01*
X188216287Y-86430500D01*
X188426243Y-86397246D01*
X188628412Y-86331557D01*
X188817816Y-86235051D01*
X188904138Y-86172335D01*
X188989786Y-86110109D01*
X188989788Y-86110106D01*
X188989792Y-86110104D01*
X189140104Y-85959792D01*
X189140106Y-85959788D01*
X189140109Y-85959786D01*
X189265048Y-85787820D01*
X189265047Y-85787820D01*
X189265051Y-85787816D01*
X189269514Y-85779054D01*
X189317488Y-85728259D01*
X189385308Y-85711463D01*
X189451444Y-85733999D01*
X189490484Y-85779054D01*
X189494591Y-85787115D01*
X189494951Y-85787820D01*
X189619890Y-85959786D01*
X189770213Y-86110109D01*
X189942179Y-86235048D01*
X189942181Y-86235049D01*
X189942184Y-86235051D01*
X190131588Y-86331557D01*
X190333757Y-86397246D01*
X190543713Y-86430500D01*
X190543714Y-86430500D01*
X190756286Y-86430500D01*
X190756287Y-86430500D01*
X190966243Y-86397246D01*
X191168412Y-86331557D01*
X191357816Y-86235051D01*
X191444138Y-86172335D01*
X191529786Y-86110109D01*
X191529788Y-86110106D01*
X191529792Y-86110104D01*
X191680104Y-85959792D01*
X191680106Y-85959788D01*
X191680109Y-85959786D01*
X191805048Y-85787820D01*
X191805047Y-85787820D01*
X191805051Y-85787816D01*
X191809514Y-85779054D01*
X191857488Y-85728259D01*
X191925308Y-85711463D01*
X191991444Y-85733999D01*
X192030484Y-85779054D01*
X192034591Y-85787115D01*
X192034951Y-85787820D01*
X192159890Y-85959786D01*
X192310213Y-86110109D01*
X192482179Y-86235048D01*
X192482181Y-86235049D01*
X192482184Y-86235051D01*
X192671588Y-86331557D01*
X192873757Y-86397246D01*
X193083713Y-86430500D01*
X193083714Y-86430500D01*
X193296286Y-86430500D01*
X193296287Y-86430500D01*
X193506243Y-86397246D01*
X193708412Y-86331557D01*
X193897816Y-86235051D01*
X193984138Y-86172335D01*
X194069786Y-86110109D01*
X194069788Y-86110106D01*
X194069792Y-86110104D01*
X194220104Y-85959792D01*
X194220106Y-85959788D01*
X194220109Y-85959786D01*
X194345048Y-85787820D01*
X194345047Y-85787820D01*
X194345051Y-85787816D01*
X194349514Y-85779054D01*
X194397488Y-85728259D01*
X194465308Y-85711463D01*
X194531444Y-85733999D01*
X194570484Y-85779054D01*
X194574591Y-85787115D01*
X194574951Y-85787820D01*
X194699890Y-85959786D01*
X194850213Y-86110109D01*
X195022179Y-86235048D01*
X195022181Y-86235049D01*
X195022184Y-86235051D01*
X195211588Y-86331557D01*
X195413757Y-86397246D01*
X195623713Y-86430500D01*
X195623714Y-86430500D01*
X195836286Y-86430500D01*
X195836287Y-86430500D01*
X196046243Y-86397246D01*
X196248412Y-86331557D01*
X196437816Y-86235051D01*
X196524138Y-86172335D01*
X196609786Y-86110109D01*
X196609788Y-86110106D01*
X196609792Y-86110104D01*
X196760104Y-85959792D01*
X196760106Y-85959788D01*
X196760109Y-85959786D01*
X196885048Y-85787820D01*
X196885047Y-85787820D01*
X196885051Y-85787816D01*
X196889514Y-85779054D01*
X196937488Y-85728259D01*
X197005308Y-85711463D01*
X197071444Y-85733999D01*
X197110484Y-85779054D01*
X197114591Y-85787115D01*
X197114951Y-85787820D01*
X197239890Y-85959786D01*
X197390213Y-86110109D01*
X197562179Y-86235048D01*
X197562181Y-86235049D01*
X197562184Y-86235051D01*
X197751588Y-86331557D01*
X197953757Y-86397246D01*
X198163713Y-86430500D01*
X198163714Y-86430500D01*
X198376286Y-86430500D01*
X198376287Y-86430500D01*
X198586243Y-86397246D01*
X198788412Y-86331557D01*
X198977816Y-86235051D01*
X199064138Y-86172335D01*
X199149786Y-86110109D01*
X199149788Y-86110106D01*
X199149792Y-86110104D01*
X199300104Y-85959792D01*
X199300106Y-85959788D01*
X199300109Y-85959786D01*
X199425048Y-85787820D01*
X199425047Y-85787820D01*
X199425051Y-85787816D01*
X199429514Y-85779054D01*
X199477488Y-85728259D01*
X199545308Y-85711463D01*
X199611444Y-85733999D01*
X199650484Y-85779054D01*
X199654591Y-85787115D01*
X199654951Y-85787820D01*
X199779890Y-85959786D01*
X199930213Y-86110109D01*
X200102179Y-86235048D01*
X200102181Y-86235049D01*
X200102184Y-86235051D01*
X200291588Y-86331557D01*
X200493757Y-86397246D01*
X200703713Y-86430500D01*
X200703714Y-86430500D01*
X200916286Y-86430500D01*
X200916287Y-86430500D01*
X201126243Y-86397246D01*
X201328412Y-86331557D01*
X201517816Y-86235051D01*
X201604138Y-86172335D01*
X201689786Y-86110109D01*
X201689788Y-86110106D01*
X201689792Y-86110104D01*
X201840104Y-85959792D01*
X201904770Y-85870787D01*
X201918724Y-85851579D01*
X201965051Y-85787816D01*
X202061557Y-85598412D01*
X202071033Y-85569246D01*
X202110467Y-85511573D01*
X202174825Y-85484374D01*
X202243672Y-85496286D01*
X202295149Y-85543529D01*
X202299447Y-85551269D01*
X202366430Y-85682729D01*
X202437424Y-85780442D01*
X202437425Y-85780443D01*
X202906329Y-85311538D01*
X202949901Y-85387007D01*
X203042993Y-85480099D01*
X203118460Y-85523670D01*
X202649555Y-85992574D01*
X202747268Y-86063567D01*
X202908552Y-86145747D01*
X202908555Y-86145748D01*
X203080706Y-86201682D01*
X203259494Y-86230000D01*
X203440506Y-86230000D01*
X203619293Y-86201682D01*
X203791444Y-86145748D01*
X203791447Y-86145747D01*
X203952730Y-86063568D01*
X204050442Y-85992574D01*
X204050443Y-85992574D01*
X203581539Y-85523670D01*
X203657007Y-85480099D01*
X203750099Y-85387007D01*
X203793670Y-85311538D01*
X204262574Y-85780443D01*
X204262575Y-85780442D01*
X204315182Y-85708036D01*
X204370512Y-85665370D01*
X204440125Y-85659391D01*
X204501920Y-85691997D01*
X204536277Y-85752835D01*
X204539500Y-85780920D01*
X204539500Y-85977869D01*
X204539501Y-85977876D01*
X204545908Y-86037483D01*
X204596202Y-86172328D01*
X204596206Y-86172335D01*
X204682452Y-86287544D01*
X204682455Y-86287547D01*
X204797664Y-86373793D01*
X204797671Y-86373797D01*
X204932517Y-86424091D01*
X204932516Y-86424091D01*
X204939444Y-86424835D01*
X204992127Y-86430500D01*
X206787872Y-86430499D01*
X206847483Y-86424091D01*
X206982331Y-86373796D01*
X207097546Y-86287546D01*
X207183796Y-86172331D01*
X207234091Y-86037483D01*
X207240500Y-85977873D01*
X207240499Y-84182128D01*
X207234091Y-84122517D01*
X207193710Y-84014251D01*
X207183797Y-83987671D01*
X207183793Y-83987664D01*
X207097547Y-83872455D01*
X207097544Y-83872452D01*
X206982335Y-83786206D01*
X206982328Y-83786202D01*
X206847482Y-83735908D01*
X206847483Y-83735908D01*
X206787883Y-83729501D01*
X206787881Y-83729500D01*
X206787873Y-83729500D01*
X206787865Y-83729500D01*
X206614500Y-83729500D01*
X206547461Y-83709815D01*
X206501706Y-83657011D01*
X206490500Y-83605500D01*
X206490500Y-69871046D01*
X206490500Y-69871044D01*
X206458224Y-69750591D01*
X206449577Y-69718316D01*
X206449577Y-69718315D01*
X206420639Y-69668196D01*
X206420637Y-69668193D01*
X206371163Y-69582499D01*
X206370520Y-69581385D01*
X206258716Y-69469581D01*
X206258715Y-69469580D01*
X206254385Y-69465250D01*
X206254374Y-69465240D01*
X200527489Y-63738355D01*
X200527487Y-63738352D01*
X200408616Y-63619481D01*
X200408615Y-63619480D01*
X200321803Y-63569360D01*
X200321803Y-63569359D01*
X200321799Y-63569358D01*
X200271684Y-63540423D01*
X200118956Y-63499499D01*
X199960842Y-63499499D01*
X199953246Y-63499499D01*
X199953230Y-63499500D01*
X188344669Y-63499500D01*
X188344653Y-63499499D01*
X188337057Y-63499499D01*
X188178943Y-63499499D01*
X188071587Y-63528265D01*
X188026210Y-63540424D01*
X188026209Y-63540425D01*
X187976096Y-63569359D01*
X187976095Y-63569360D01*
X187932689Y-63594420D01*
X187889285Y-63619479D01*
X187889282Y-63619481D01*
X187777478Y-63731286D01*
X173754522Y-77754241D01*
X173693199Y-77787726D01*
X173628523Y-77784491D01*
X173586245Y-77770754D01*
X173446272Y-77748584D01*
X173376287Y-77737500D01*
X173163713Y-77737500D01*
X173135006Y-77742046D01*
X172953757Y-77770753D01*
X172911473Y-77784492D01*
X172841632Y-77786486D01*
X172785476Y-77754241D01*
X158769590Y-63738355D01*
X158769588Y-63738352D01*
X158650717Y-63619481D01*
X158650716Y-63619480D01*
X158563904Y-63569360D01*
X158563904Y-63569359D01*
X158563900Y-63569358D01*
X158513785Y-63540423D01*
X158361057Y-63499499D01*
X158202943Y-63499499D01*
X158195347Y-63499499D01*
X158195331Y-63499500D01*
X148546770Y-63499500D01*
X148546754Y-63499499D01*
X148539158Y-63499499D01*
X148381044Y-63499499D01*
X148273688Y-63528265D01*
X148228311Y-63540424D01*
X148228310Y-63540425D01*
X148178197Y-63569359D01*
X148178196Y-63569360D01*
X148134790Y-63594420D01*
X148091386Y-63619479D01*
X148091383Y-63619481D01*
X147159481Y-64551383D01*
X147159479Y-64551386D01*
X147109361Y-64638195D01*
X147109359Y-64638197D01*
X147080425Y-64688310D01*
X147080424Y-64688311D01*
X147067426Y-64736819D01*
X147039499Y-64841044D01*
X147039499Y-64841046D01*
X147039499Y-65009147D01*
X147039500Y-65009160D01*
X147039500Y-65993229D01*
X147039499Y-65993247D01*
X147039499Y-66158953D01*
X147039498Y-66158953D01*
X135888543Y-66158953D01*
X135896994Y-64832126D01*
X135958274Y-55211149D01*
X158423500Y-55211149D01*
X158423500Y-55466850D01*
X158449457Y-55664007D01*
X158456874Y-55720340D01*
X158523050Y-55967312D01*
X158523053Y-55967322D01*
X158620894Y-56203531D01*
X158620899Y-56203542D01*
X158748734Y-56424957D01*
X158748745Y-56424973D01*
X158904388Y-56627811D01*
X158904394Y-56627818D01*
X159085181Y-56808605D01*
X159085187Y-56808610D01*
X159288035Y-56964261D01*
X159288042Y-56964265D01*
X159509457Y-57092100D01*
X159509462Y-57092102D01*
X159509465Y-57092104D01*
X159745687Y-57189950D01*
X159992660Y-57256126D01*
X160246157Y-57289500D01*
X160246164Y-57289500D01*
X161401836Y-57289500D01*
X161401843Y-57289500D01*
X161655340Y-57256126D01*
X161902313Y-57189950D01*
X162138535Y-57092104D01*
X162359965Y-56964261D01*
X162562813Y-56808610D01*
X162743610Y-56627813D01*
X162899261Y-56424965D01*
X163027104Y-56203535D01*
X163124950Y-55967313D01*
X163191126Y-55720340D01*
X163224500Y-55466843D01*
X163224500Y-55211157D01*
X163224499Y-55211149D01*
X180775500Y-55211149D01*
X180775500Y-55466850D01*
X180801457Y-55664007D01*
X180808874Y-55720340D01*
X180875050Y-55967312D01*
X180875053Y-55967322D01*
X180972894Y-56203531D01*
X180972899Y-56203542D01*
X181100734Y-56424957D01*
X181100745Y-56424973D01*
X181256388Y-56627811D01*
X181256394Y-56627818D01*
X181437181Y-56808605D01*
X181437187Y-56808610D01*
X181640035Y-56964261D01*
X181640042Y-56964265D01*
X181861457Y-57092100D01*
X181861462Y-57092102D01*
X181861465Y-57092104D01*
X182097687Y-57189950D01*
X182344660Y-57256126D01*
X182598157Y-57289500D01*
X182598164Y-57289500D01*
X183753836Y-57289500D01*
X183753843Y-57289500D01*
X184007340Y-57256126D01*
X184254313Y-57189950D01*
X184490535Y-57092104D01*
X184711965Y-56964261D01*
X184914813Y-56808610D01*
X185095610Y-56627813D01*
X185251261Y-56424965D01*
X185379104Y-56203535D01*
X185476950Y-55967313D01*
X185543126Y-55720340D01*
X185576500Y-55466843D01*
X185576500Y-55211157D01*
X185543126Y-54957660D01*
X185476950Y-54710687D01*
X185379104Y-54474465D01*
X185379102Y-54474462D01*
X185379100Y-54474457D01*
X185251265Y-54253042D01*
X185251261Y-54253035D01*
X185095610Y-54050187D01*
X185095605Y-54050181D01*
X184914818Y-53869394D01*
X184914811Y-53869388D01*
X184711973Y-53713745D01*
X184711971Y-53713743D01*
X184711965Y-53713739D01*
X184711960Y-53713736D01*
X184711957Y-53713734D01*
X184490542Y-53585899D01*
X184490531Y-53585894D01*
X184254322Y-53488053D01*
X184254315Y-53488051D01*
X184254313Y-53488050D01*
X184007340Y-53421874D01*
X183951007Y-53414457D01*
X183753850Y-53388500D01*
X183753843Y-53388500D01*
X182598157Y-53388500D01*
X182598149Y-53388500D01*
X182372826Y-53418165D01*
X182344660Y-53421874D01*
X182097687Y-53488050D01*
X182097677Y-53488053D01*
X181861468Y-53585894D01*
X181861457Y-53585899D01*
X181640042Y-53713734D01*
X181640026Y-53713745D01*
X181437188Y-53869388D01*
X181437181Y-53869394D01*
X181256394Y-54050181D01*
X181256388Y-54050188D01*
X181100745Y-54253026D01*
X181100734Y-54253042D01*
X180972899Y-54474457D01*
X180972894Y-54474468D01*
X180875053Y-54710677D01*
X180875050Y-54710687D01*
X180808874Y-54957661D01*
X180775500Y-55211149D01*
X163224499Y-55211149D01*
X163191126Y-54957660D01*
X163124950Y-54710687D01*
X163027104Y-54474465D01*
X163027102Y-54474462D01*
X163027100Y-54474457D01*
X162899265Y-54253042D01*
X162899261Y-54253035D01*
X162743610Y-54050187D01*
X162743605Y-54050181D01*
X162562818Y-53869394D01*
X162562811Y-53869388D01*
X162359973Y-53713745D01*
X162359971Y-53713743D01*
X162359965Y-53713739D01*
X162359960Y-53713736D01*
X162359957Y-53713734D01*
X162138542Y-53585899D01*
X162138531Y-53585894D01*
X161902322Y-53488053D01*
X161902315Y-53488051D01*
X161902313Y-53488050D01*
X161655340Y-53421874D01*
X161599007Y-53414457D01*
X161401850Y-53388500D01*
X161401843Y-53388500D01*
X160246157Y-53388500D01*
X160246149Y-53388500D01*
X160020826Y-53418165D01*
X159992660Y-53421874D01*
X159745687Y-53488050D01*
X159745677Y-53488053D01*
X159509468Y-53585894D01*
X159509457Y-53585899D01*
X159288042Y-53713734D01*
X159288026Y-53713745D01*
X159085188Y-53869388D01*
X159085181Y-53869394D01*
X158904394Y-54050181D01*
X158904388Y-54050188D01*
X158748745Y-54253026D01*
X158748734Y-54253042D01*
X158620899Y-54474457D01*
X158620894Y-54474468D01*
X158523053Y-54710677D01*
X158523050Y-54710687D01*
X158456874Y-54957661D01*
X158423500Y-55211149D01*
X135958274Y-55211149D01*
X135958305Y-55206308D01*
X135994272Y-49559390D01*
X135996512Y-49207751D01*
X136016623Y-49140839D01*
X136069717Y-49095422D01*
X136121312Y-49084545D01*
X209123539Y-49558584D01*
G37*
%TD.AperFunction*%
%TD*%
M02*
