%TF.GenerationSoftware,KiCad,Pcbnew,10.0.6*%
%TF.CreationDate,2026-10-06T19:30:57-04:00*%
%TF.ProjectId,Starbie,53746172-6269-4652-9e6b-696361645f70,rev?*%
%TF.SameCoordinates,Original*%
%TF.FileFunction,Copper,L2,Bot*%
%TF.FilePolarity,Positive*%
%FSLAX46Y46*%
G04 Gerber Fmt 4.6, Leading zero omitted, Abs format (unit mm)*
G04 Created by KiCad (PCBNEW 10.0.6) date 2026-10-06 19:30:57*
%MOMM*%
%LPD*%
G01*
G04 APERTURE LIST*
%TA.AperFunction,ComponentPad*%
%ADD10C,2.200000*%
%TD*%
%TA.AperFunction,ComponentPad*%
%ADD11R,1.500000X1.500000*%
%TD*%
%TA.AperFunction,ComponentPad*%
%ADD12C,1.500000*%
%TD*%
%TA.AperFunction,ComponentPad*%
%ADD13C,1.400000*%
%TD*%
%TA.AperFunction,ComponentPad*%
%ADD14R,1.700000X1.700000*%
%TD*%
%TA.AperFunction,ComponentPad*%
%ADD15C,1.700000*%
%TD*%
%TA.AperFunction,ComponentPad*%
%ADD16C,1.524000*%
%TD*%
%TA.AperFunction,ComponentPad*%
%ADD17O,1.700000X1.700000*%
%TD*%
%TA.AperFunction,Conductor*%
%ADD18C,0.200000*%
%TD*%
G04 APERTURE END LIST*
D10*
%TO.P,SW2,1,1_1*%
%TO.N,/GPIO3*%
X192540000Y-60420000D03*
%TO.P,SW2,2,2_2*%
%TO.N,GND*%
X186190000Y-62960000D03*
%TD*%
D11*
%TO.P,U2,1,VDD_1*%
%TO.N,+3.3V*%
X184500000Y-80920000D03*
D12*
%TO.P,U2,2,DATA_2*%
%TO.N,/DHT11 DATA*%
X184500000Y-83460000D03*
%TO.P,U2,3,NC_3*%
%TO.N,unconnected-(U2-NC-Pad3)*%
X184500000Y-86000000D03*
%TO.P,U2,4,GND_4*%
%TO.N,GND*%
X184500000Y-88540000D03*
%TD*%
D10*
%TO.P,SW1,1,1_1*%
%TO.N,/GPIO2*%
X146040000Y-59420000D03*
%TO.P,SW1,2,2_2*%
%TO.N,GND*%
X139690000Y-61960000D03*
%TD*%
D13*
%TO.P,R1,1*%
%TO.N,+3.3V*%
X152500000Y-90310000D03*
%TO.P,R1,2*%
%TO.N,/DHT11 DATA*%
X152500000Y-82690000D03*
%TD*%
D14*
%TO.P,J2,1,Pin_1_1*%
%TO.N,+3.3V*%
X159300000Y-47000000D03*
D15*
%TO.P,J2,2,Pin_2_2*%
%TO.N,GND*%
X161840000Y-47000000D03*
%TO.P,J2,3,Pin_3_3*%
%TO.N,/SCL*%
X164380000Y-47000000D03*
%TO.P,J2,4,Pin_4_4*%
%TO.N,/SDA*%
X166920000Y-47000000D03*
%TO.P,J2,5,Pin_5_5*%
%TO.N,unconnected-(J2-Pin_5-Pad5)*%
X169460000Y-47000000D03*
%TO.P,J2,6,Pin_6_6*%
%TO.N,unconnected-(J2-Pin_6-Pad6)*%
X172000000Y-47000000D03*
%TO.P,J2,7,Pin_7_7*%
%TO.N,unconnected-(J2-Pin_7-Pad7)*%
X174540000Y-47000000D03*
%TO.P,J2,8,Pin_8_8*%
%TO.N,unconnected-(J2-Pin_8-Pad8)*%
X177080000Y-47000000D03*
%TD*%
D16*
%TO.P,U3,1,D0_1*%
%TO.N,unconnected-(U3-D0-Pad1)_1*%
X174301500Y-79880000D03*
%TO.P,U3,2,D1_2*%
%TO.N,/DHT11 DATA*%
X171761500Y-79880000D03*
%TO.P,U3,3,D2_3*%
%TO.N,/GPIO2*%
X169221500Y-79880000D03*
%TO.P,U3,4,D3_4*%
%TO.N,/GPIO3*%
X166681500Y-79880000D03*
%TO.P,U3,5,D4_5*%
%TO.N,/SCL*%
X164141500Y-79880000D03*
%TO.P,U3,6,D5_6*%
%TO.N,/SDA*%
X161601500Y-79880000D03*
%TO.P,U3,7,D6_7*%
%TO.N,unconnected-(U3-D6-Pad7)_1*%
X159061500Y-79880000D03*
%TO.P,U3,8,D7_8*%
%TO.N,unconnected-(U3-D7-Pad8)_1*%
X159061500Y-95120000D03*
%TO.P,U3,9,D8_9*%
%TO.N,unconnected-(U3-D8-Pad9)*%
X161601500Y-95120000D03*
%TO.P,U3,10,D9/BOOT_10*%
%TO.N,unconnected-(U3-D9{slash}BOOT-Pad10)*%
X164141500Y-95120000D03*
%TO.P,U3,11,D10_11*%
%TO.N,unconnected-(U3-D10-Pad11)*%
X166681500Y-95120000D03*
%TO.P,U3,12,3V3_OUT_12*%
%TO.N,+3.3V*%
X169221500Y-95120000D03*
%TO.P,U3,13,GND_13*%
%TO.N,GND*%
X171761500Y-95120000D03*
%TO.P,U3,14,VBUS_14*%
%TO.N,+5V*%
X174301500Y-95120000D03*
%TD*%
D14*
%TO.P,J1,1,Pin_1_1*%
%TO.N,GND*%
X163190000Y-51992000D03*
D17*
%TO.P,J1,2,Pin_2_2*%
%TO.N,+3.3V*%
X165730000Y-51992000D03*
%TO.P,J1,3,Pin_3_3*%
%TO.N,/SCL*%
X168270000Y-51992000D03*
%TO.P,J1,4,Pin_4_4*%
%TO.N,/SDA*%
X170810000Y-51992000D03*
%TD*%
%TO.N,GND*%
D18*
X163190000Y-48350000D02*
X163190000Y-51992000D01*
X139690000Y-61960000D02*
X153500000Y-48150000D01*
X161840000Y-47000000D02*
X163190000Y-48350000D01*
X186190000Y-62960000D02*
X186190000Y-86850000D01*
X174158000Y-62960000D02*
X163190000Y-51992000D01*
X153500000Y-48150000D02*
X160690000Y-48150000D01*
X184500000Y-88540000D02*
X178341500Y-88540000D01*
X160690000Y-48150000D02*
X161840000Y-47000000D01*
X178341500Y-88540000D02*
X171761500Y-95120000D01*
X186190000Y-62960000D02*
X174158000Y-62960000D01*
X186190000Y-86850000D02*
X184500000Y-88540000D01*
%TD*%
M02*
