%TF.GenerationSoftware,KiCad,Pcbnew,10.0.6*%
%TF.CreationDate,2026-10-07T19:55:26-04:00*%
%TF.ProjectId,Starbie,53746172-6269-4652-9e6b-696361645f70,rev?*%
%TF.SameCoordinates,Original*%
%TF.FileFunction,Copper,L2,Bot*%
%TF.FilePolarity,Positive*%
%FSLAX46Y46*%
G04 Gerber Fmt 4.6, Leading zero omitted, Abs format (unit mm)*
G04 Created by KiCad (PCBNEW 10.0.6) date 2026-10-07 19:55:26*
%MOMM*%
%LPD*%
G01*
G04 APERTURE LIST*
G04 Aperture macros list*
%AMRoundRect*
0 Rectangle with rounded corners*
0 $1 Rounding radius*
0 $2 $3 $4 $5 $6 $7 $8 $9 X,Y pos of 4 corners*
0 Add a 4 corners polygon primitive as box body*
4,1,4,$2,$3,$4,$5,$6,$7,$8,$9,$2,$3,0*
0 Add four circle primitives for the rounded corners*
1,1,$1+$1,$2,$3*
1,1,$1+$1,$4,$5*
1,1,$1+$1,$6,$7*
1,1,$1+$1,$8,$9*
0 Add four rect primitives between the rounded corners*
20,1,$1+$1,$2,$3,$4,$5,0*
20,1,$1+$1,$4,$5,$6,$7,0*
20,1,$1+$1,$6,$7,$8,$9,0*
20,1,$1+$1,$8,$9,$2,$3,0*%
G04 Aperture macros list end*
%TA.AperFunction,ComponentPad*%
%ADD10C,1.524000*%
%TD*%
%TA.AperFunction,ComponentPad*%
%ADD11O,1.730000X2.030000*%
%TD*%
%TA.AperFunction,ComponentPad*%
%ADD12R,1.730000X2.030000*%
%TD*%
%TA.AperFunction,ComponentPad*%
%ADD13C,1.400000*%
%TD*%
%TA.AperFunction,ComponentPad*%
%ADD14R,1.700000X1.700000*%
%TD*%
%TA.AperFunction,ComponentPad*%
%ADD15O,1.700000X1.700000*%
%TD*%
%TA.AperFunction,ComponentPad*%
%ADD16C,2.200000*%
%TD*%
%TA.AperFunction,ComponentPad*%
%ADD17RoundRect,0.249999X-0.850001X0.850001X-0.850001X-0.850001X0.850001X-0.850001X0.850001X0.850001X0*%
%TD*%
%TA.AperFunction,ComponentPad*%
%ADD18C,1.500000*%
%TD*%
%TA.AperFunction,ComponentPad*%
%ADD19R,1.500000X1.500000*%
%TD*%
%TA.AperFunction,ComponentPad*%
%ADD20RoundRect,0.250000X-0.350000X-0.625000X0.350000X-0.625000X0.350000X0.625000X-0.350000X0.625000X0*%
%TD*%
%TA.AperFunction,ComponentPad*%
%ADD21O,1.200000X1.750000*%
%TD*%
%TA.AperFunction,ComponentPad*%
%ADD22C,1.700000*%
%TD*%
%TA.AperFunction,ComponentPad*%
%ADD23C,1.600000*%
%TD*%
%TA.AperFunction,ComponentPad*%
%ADD24R,1.600000X1.600000*%
%TD*%
%TA.AperFunction,Conductor*%
%ADD25C,0.200000*%
%TD*%
G04 APERTURE END LIST*
D10*
%TO.P,U3,14,VBUS_14*%
%TO.N,+5V*%
X180620000Y-100031000D03*
%TO.P,U3,13,GND_13*%
%TO.N,GND*%
X178080000Y-100031000D03*
%TO.P,U3,12,3V3_OUT_12*%
%TO.N,+3.3V*%
X175540000Y-100031000D03*
%TO.P,U3,11,D10_11*%
%TO.N,unconnected-(U3-D10-Pad11)_1*%
X173000000Y-100031000D03*
%TO.P,U3,10,D9/BOOT_10*%
%TO.N,unconnected-(U3-D9{slash}BOOT-Pad10)*%
X170460000Y-100031000D03*
%TO.P,U3,9,D8_9*%
%TO.N,unconnected-(U3-D8-Pad9)_1*%
X167920000Y-100031000D03*
%TO.P,U3,8,D7_8*%
%TO.N,unconnected-(U3-D7-Pad8)_1*%
X165380000Y-100031000D03*
%TO.P,U3,7,D6_7*%
%TO.N,unconnected-(U3-D6-Pad7)*%
X165380000Y-84791000D03*
%TO.P,U3,6,D5_6*%
%TO.N,/SDA*%
X167920000Y-84791000D03*
%TO.P,U3,5,D4_5*%
%TO.N,/SCL*%
X170460000Y-84791000D03*
%TO.P,U3,4,D3_4*%
%TO.N,/GPIO3*%
X173000000Y-84791000D03*
%TO.P,U3,3,D2_3*%
%TO.N,/GPIO2*%
X175540000Y-84791000D03*
%TO.P,U3,2,D1_2*%
%TO.N,/DHT11 DATA*%
X178080000Y-84791000D03*
%TO.P,U3,1,D0_1*%
%TO.N,unconnected-(U3-D0-Pad1)_1*%
X180620000Y-84791000D03*
%TD*%
D11*
%TO.P,U1,4,V_{CC}_4*%
%TO.N,+5V*%
X176000000Y-107580000D03*
%TO.P,U1,3,GND_3*%
%TO.N,GND*%
X173460000Y-107580000D03*
%TO.P,U1,2,PROG_2*%
%TO.N,Net-(U1-PROG)*%
X170920000Y-107580000D03*
D12*
%TO.P,U1,1,TEMP_1*%
%TO.N,GND*%
X168380000Y-107580000D03*
%TD*%
D13*
%TO.P,R2,1*%
%TO.N,GND*%
X170340000Y-114580000D03*
%TO.P,R2,2*%
%TO.N,Net-(U1-PROG)*%
X177960000Y-114580000D03*
%TD*%
D14*
%TO.P,J1,1,Pin_1_1*%
%TO.N,GND*%
X175810000Y-79088000D03*
D15*
%TO.P,J1,2,Pin_2_2*%
%TO.N,+3.3V*%
X173270000Y-79088000D03*
%TO.P,J1,3,Pin_3_3*%
%TO.N,/SCL*%
X170730000Y-79088000D03*
%TO.P,J1,4,Pin_4_4*%
%TO.N,/SDA*%
X168190000Y-79088000D03*
%TD*%
D16*
%TO.P,D1,2,A_2*%
%TO.N,Net-(D1-A)*%
X185000000Y-115660000D03*
D17*
%TO.P,D1,1,K_1*%
%TO.N,+5V*%
X185000000Y-105500000D03*
%TD*%
D13*
%TO.P,R1,2*%
%TO.N,/DHT11 DATA*%
X151500000Y-96080000D03*
%TO.P,R1,1*%
%TO.N,+3.3V*%
X151500000Y-88460000D03*
%TD*%
D18*
%TO.P,U2,4,GND_4*%
%TO.N,GND*%
X157000000Y-96080000D03*
%TO.P,U2,3,NC_3*%
%TO.N,unconnected-(U2-NC-Pad3)*%
X157000000Y-93540000D03*
%TO.P,U2,2,DATA_2*%
%TO.N,/DHT11 DATA*%
X157000000Y-91000000D03*
D19*
%TO.P,U2,1,VDD_1*%
%TO.N,+3.3V*%
X157000000Y-88460000D03*
%TD*%
D20*
%TO.P,J3,1,Pin_1_1*%
%TO.N,/(+)*%
X165500000Y-119580000D03*
D21*
%TO.P,J3,2,Pin_2_2*%
%TO.N,GND*%
X167500000Y-119580000D03*
%TD*%
D16*
%TO.P,SW2,1,1_1*%
%TO.N,/GPIO3*%
X199460000Y-65500000D03*
%TO.P,SW2,2,2_2*%
%TO.N,GND*%
X193110000Y-68040000D03*
%TD*%
D22*
%TO.P,J2,8,Pin_8_8*%
%TO.N,unconnected-(J2-Pin_8-Pad8)*%
X188110000Y-85080000D03*
%TO.P,J2,7,Pin_7_7*%
%TO.N,unconnected-(J2-Pin_7-Pad7)*%
X190650000Y-85080000D03*
%TO.P,J2,6,Pin_6_6*%
%TO.N,unconnected-(J2-Pin_6-Pad6)*%
X193190000Y-85080000D03*
%TO.P,J2,5,Pin_5_5*%
%TO.N,unconnected-(J2-Pin_5-Pad5)*%
X195730000Y-85080000D03*
%TO.P,J2,4,Pin_4_4*%
%TO.N,/SDA*%
X198270000Y-85080000D03*
%TO.P,J2,3,Pin_3_3*%
%TO.N,/SCL*%
X200810000Y-85080000D03*
%TO.P,J2,2,Pin_2_2*%
%TO.N,GND*%
X203350000Y-85080000D03*
D14*
%TO.P,J2,1,Pin_1_1*%
%TO.N,+3.3V*%
X205890000Y-85080000D03*
%TD*%
D16*
%TO.P,SW1,1,1_1*%
%TO.N,/GPIO2*%
X149040000Y-65500000D03*
%TO.P,SW1,2,2_2*%
%TO.N,GND*%
X142690000Y-68040000D03*
%TD*%
D23*
%TO.P,SW4,6*%
%TO.N,N/C*%
X182500000Y-122780000D03*
%TO.P,SW4,5*%
X180000000Y-122780000D03*
%TO.P,SW4,4*%
X177500000Y-122780000D03*
%TO.P,SW4,3,C_3*%
%TO.N,/(+)*%
X182500000Y-119580000D03*
%TO.P,SW4,2,B_2*%
%TO.N,Net-(D1-A)*%
X180000000Y-119580000D03*
D24*
%TO.P,SW4,1,A_1*%
%TO.N,unconnected-(SW4-A-Pad1)*%
X177500000Y-119580000D03*
%TD*%
%TO.N,/SCL*%
D25*
X170730000Y-84521000D02*
X170460000Y-84791000D01*
X170730000Y-79088000D02*
X170730000Y-84521000D01*
X171000000Y-76000000D02*
X170500000Y-76500000D01*
X194000000Y-76000000D02*
X171000000Y-76000000D01*
X170500000Y-76500000D02*
X170730000Y-76730000D01*
X170730000Y-76730000D02*
X170730000Y-79088000D01*
X200810000Y-82810000D02*
X194000000Y-76000000D01*
X200810000Y-85080000D02*
X200810000Y-82810000D01*
%TO.N,/SDA*%
X198500000Y-87500000D02*
X198270000Y-87270000D01*
X167920000Y-85920000D02*
X169500000Y-87500000D01*
X198270000Y-87270000D02*
X198270000Y-85080000D01*
X169500000Y-87500000D02*
X198500000Y-87500000D01*
X167920000Y-84791000D02*
X167920000Y-85920000D01*
X168190000Y-84521000D02*
X167920000Y-84791000D01*
X168190000Y-79088000D02*
X168190000Y-84521000D01*
%TO.N,/SCL*%
X170460000Y-79358000D02*
X170730000Y-79088000D01*
%TO.N,GND*%
X174940000Y-104520000D02*
X175000000Y-104580000D01*
X171060000Y-104520000D02*
X174940000Y-104520000D01*
X171000000Y-104580000D02*
X171060000Y-104520000D01*
X173460000Y-107040000D02*
X171000000Y-104580000D01*
X173460000Y-107580000D02*
X173460000Y-107040000D01*
%TD*%
%TA.AperFunction,Conductor*%
%TO.N,GND*%
G36*
X181638388Y-76620185D02*
G01*
X181684143Y-76672989D01*
X181694087Y-76742147D01*
X181665062Y-76805703D01*
X181643105Y-76825073D01*
X181643255Y-76825268D01*
X181640411Y-76827449D01*
X181640238Y-76827603D01*
X181640036Y-76827737D01*
X181437188Y-76983388D01*
X181437181Y-76983394D01*
X181256394Y-77164181D01*
X181256388Y-77164188D01*
X181100745Y-77367026D01*
X181100734Y-77367042D01*
X180972899Y-77588457D01*
X180972894Y-77588468D01*
X180875054Y-77824676D01*
X180875050Y-77824687D01*
X180844688Y-77938002D01*
X180808874Y-78071661D01*
X180775500Y-78325149D01*
X180775500Y-78580850D01*
X180800635Y-78771757D01*
X180808874Y-78834340D01*
X180859204Y-79022174D01*
X180875050Y-79081312D01*
X180875053Y-79081322D01*
X180972894Y-79317531D01*
X180972899Y-79317542D01*
X181100734Y-79538957D01*
X181100745Y-79538973D01*
X181256388Y-79741811D01*
X181256394Y-79741818D01*
X181437181Y-79922605D01*
X181437188Y-79922611D01*
X181548304Y-80007873D01*
X181640035Y-80078261D01*
X181640042Y-80078265D01*
X181861457Y-80206100D01*
X181861462Y-80206102D01*
X181861465Y-80206104D01*
X182097687Y-80303950D01*
X182344660Y-80370126D01*
X182598157Y-80403500D01*
X182598164Y-80403500D01*
X183753836Y-80403500D01*
X183753843Y-80403500D01*
X184007340Y-80370126D01*
X184254313Y-80303950D01*
X184490535Y-80206104D01*
X184711965Y-80078261D01*
X184914813Y-79922610D01*
X185095610Y-79741813D01*
X185251261Y-79538965D01*
X185379104Y-79317535D01*
X185476950Y-79081313D01*
X185543126Y-78834340D01*
X185576500Y-78580843D01*
X185576500Y-78325157D01*
X185543126Y-78071660D01*
X185476950Y-77824687D01*
X185476947Y-77824679D01*
X185476946Y-77824676D01*
X185379105Y-77588468D01*
X185379100Y-77588457D01*
X185251265Y-77367042D01*
X185251261Y-77367035D01*
X185095610Y-77164187D01*
X185095605Y-77164181D01*
X184914818Y-76983394D01*
X184914811Y-76983388D01*
X184711963Y-76827737D01*
X184711762Y-76827603D01*
X184711715Y-76827547D01*
X184708745Y-76825268D01*
X184709255Y-76824603D01*
X184666956Y-76773992D01*
X184658247Y-76704667D01*
X184688401Y-76641639D01*
X184747844Y-76604919D01*
X184780651Y-76600500D01*
X193699903Y-76600500D01*
X193766942Y-76620185D01*
X193787584Y-76636819D01*
X200173181Y-83022416D01*
X200206666Y-83083739D01*
X200209500Y-83110097D01*
X200209500Y-83794281D01*
X200189815Y-83861320D01*
X200141795Y-83904765D01*
X200102185Y-83924947D01*
X200102184Y-83924948D01*
X199930213Y-84049890D01*
X199779890Y-84200213D01*
X199654949Y-84372182D01*
X199650484Y-84380946D01*
X199602509Y-84431742D01*
X199534688Y-84448536D01*
X199468553Y-84425998D01*
X199429516Y-84380946D01*
X199425050Y-84372182D01*
X199300109Y-84200213D01*
X199149786Y-84049890D01*
X198977820Y-83924951D01*
X198788414Y-83828444D01*
X198788413Y-83828443D01*
X198788412Y-83828443D01*
X198586243Y-83762754D01*
X198586241Y-83762753D01*
X198586240Y-83762753D01*
X198424957Y-83737208D01*
X198376287Y-83729500D01*
X198163713Y-83729500D01*
X198115042Y-83737208D01*
X197953760Y-83762753D01*
X197751585Y-83828444D01*
X197562179Y-83924951D01*
X197390213Y-84049890D01*
X197239890Y-84200213D01*
X197114949Y-84372182D01*
X197110484Y-84380946D01*
X197062509Y-84431742D01*
X196994688Y-84448536D01*
X196928553Y-84425998D01*
X196889516Y-84380946D01*
X196885050Y-84372182D01*
X196760109Y-84200213D01*
X196609786Y-84049890D01*
X196437820Y-83924951D01*
X196248414Y-83828444D01*
X196248413Y-83828443D01*
X196248412Y-83828443D01*
X196046243Y-83762754D01*
X196046241Y-83762753D01*
X196046240Y-83762753D01*
X195884957Y-83737208D01*
X195836287Y-83729500D01*
X195623713Y-83729500D01*
X195575042Y-83737208D01*
X195413760Y-83762753D01*
X195211585Y-83828444D01*
X195022179Y-83924951D01*
X194850213Y-84049890D01*
X194699890Y-84200213D01*
X194574949Y-84372182D01*
X194570484Y-84380946D01*
X194522509Y-84431742D01*
X194454688Y-84448536D01*
X194388553Y-84425998D01*
X194349516Y-84380946D01*
X194345050Y-84372182D01*
X194220109Y-84200213D01*
X194069786Y-84049890D01*
X193897820Y-83924951D01*
X193708414Y-83828444D01*
X193708413Y-83828443D01*
X193708412Y-83828443D01*
X193506243Y-83762754D01*
X193506241Y-83762753D01*
X193506240Y-83762753D01*
X193344957Y-83737208D01*
X193296287Y-83729500D01*
X193083713Y-83729500D01*
X193035042Y-83737208D01*
X192873760Y-83762753D01*
X192671585Y-83828444D01*
X192482179Y-83924951D01*
X192310213Y-84049890D01*
X192159890Y-84200213D01*
X192034949Y-84372182D01*
X192030484Y-84380946D01*
X191982509Y-84431742D01*
X191914688Y-84448536D01*
X191848553Y-84425998D01*
X191809516Y-84380946D01*
X191805050Y-84372182D01*
X191680109Y-84200213D01*
X191529786Y-84049890D01*
X191357820Y-83924951D01*
X191168414Y-83828444D01*
X191168413Y-83828443D01*
X191168412Y-83828443D01*
X190966243Y-83762754D01*
X190966241Y-83762753D01*
X190966240Y-83762753D01*
X190804957Y-83737208D01*
X190756287Y-83729500D01*
X190543713Y-83729500D01*
X190495042Y-83737208D01*
X190333760Y-83762753D01*
X190131585Y-83828444D01*
X189942179Y-83924951D01*
X189770213Y-84049890D01*
X189619890Y-84200213D01*
X189494949Y-84372182D01*
X189490484Y-84380946D01*
X189442509Y-84431742D01*
X189374688Y-84448536D01*
X189308553Y-84425998D01*
X189269516Y-84380946D01*
X189265050Y-84372182D01*
X189140109Y-84200213D01*
X188989786Y-84049890D01*
X188817820Y-83924951D01*
X188628414Y-83828444D01*
X188628413Y-83828443D01*
X188628412Y-83828443D01*
X188426243Y-83762754D01*
X188426241Y-83762753D01*
X188426240Y-83762753D01*
X188264957Y-83737208D01*
X188216287Y-83729500D01*
X188003713Y-83729500D01*
X187955042Y-83737208D01*
X187793760Y-83762753D01*
X187591585Y-83828444D01*
X187402179Y-83924951D01*
X187230213Y-84049890D01*
X187079890Y-84200213D01*
X186954951Y-84372179D01*
X186858444Y-84561585D01*
X186792753Y-84763760D01*
X186791291Y-84772993D01*
X186759500Y-84973713D01*
X186759500Y-85186287D01*
X186792754Y-85396243D01*
X186843125Y-85551269D01*
X186858444Y-85598414D01*
X186954951Y-85787820D01*
X187079890Y-85959786D01*
X187230213Y-86110109D01*
X187402179Y-86235048D01*
X187402181Y-86235049D01*
X187402184Y-86235051D01*
X187591588Y-86331557D01*
X187793757Y-86397246D01*
X188003713Y-86430500D01*
X188003714Y-86430500D01*
X188216286Y-86430500D01*
X188216287Y-86430500D01*
X188426243Y-86397246D01*
X188628412Y-86331557D01*
X188817816Y-86235051D01*
X188904138Y-86172335D01*
X188989786Y-86110109D01*
X188989788Y-86110106D01*
X188989792Y-86110104D01*
X189140104Y-85959792D01*
X189140106Y-85959788D01*
X189140109Y-85959786D01*
X189265048Y-85787820D01*
X189265047Y-85787820D01*
X189265051Y-85787816D01*
X189269514Y-85779054D01*
X189317488Y-85728259D01*
X189385308Y-85711463D01*
X189451444Y-85733999D01*
X189490484Y-85779054D01*
X189494591Y-85787115D01*
X189494951Y-85787820D01*
X189619890Y-85959786D01*
X189770213Y-86110109D01*
X189942179Y-86235048D01*
X189942181Y-86235049D01*
X189942184Y-86235051D01*
X190131588Y-86331557D01*
X190333757Y-86397246D01*
X190543713Y-86430500D01*
X190543714Y-86430500D01*
X190756286Y-86430500D01*
X190756287Y-86430500D01*
X190966243Y-86397246D01*
X191168412Y-86331557D01*
X191357816Y-86235051D01*
X191444138Y-86172335D01*
X191529786Y-86110109D01*
X191529788Y-86110106D01*
X191529792Y-86110104D01*
X191680104Y-85959792D01*
X191680106Y-85959788D01*
X191680109Y-85959786D01*
X191805048Y-85787820D01*
X191805047Y-85787820D01*
X191805051Y-85787816D01*
X191809514Y-85779054D01*
X191857488Y-85728259D01*
X191925308Y-85711463D01*
X191991444Y-85733999D01*
X192030484Y-85779054D01*
X192034591Y-85787115D01*
X192034951Y-85787820D01*
X192159890Y-85959786D01*
X192310213Y-86110109D01*
X192482179Y-86235048D01*
X192482181Y-86235049D01*
X192482184Y-86235051D01*
X192671588Y-86331557D01*
X192873757Y-86397246D01*
X193083713Y-86430500D01*
X193083714Y-86430500D01*
X193296286Y-86430500D01*
X193296287Y-86430500D01*
X193506243Y-86397246D01*
X193708412Y-86331557D01*
X193897816Y-86235051D01*
X193984138Y-86172335D01*
X194069786Y-86110109D01*
X194069788Y-86110106D01*
X194069792Y-86110104D01*
X194220104Y-85959792D01*
X194220106Y-85959788D01*
X194220109Y-85959786D01*
X194345048Y-85787820D01*
X194345047Y-85787820D01*
X194345051Y-85787816D01*
X194349514Y-85779054D01*
X194397488Y-85728259D01*
X194465308Y-85711463D01*
X194531444Y-85733999D01*
X194570484Y-85779054D01*
X194574591Y-85787115D01*
X194574951Y-85787820D01*
X194699890Y-85959786D01*
X194850213Y-86110109D01*
X195022179Y-86235048D01*
X195022181Y-86235049D01*
X195022184Y-86235051D01*
X195211588Y-86331557D01*
X195413757Y-86397246D01*
X195623713Y-86430500D01*
X195623714Y-86430500D01*
X195836286Y-86430500D01*
X195836287Y-86430500D01*
X196046243Y-86397246D01*
X196248412Y-86331557D01*
X196437816Y-86235051D01*
X196524138Y-86172335D01*
X196609786Y-86110109D01*
X196609788Y-86110106D01*
X196609792Y-86110104D01*
X196760104Y-85959792D01*
X196760106Y-85959788D01*
X196760109Y-85959786D01*
X196885048Y-85787820D01*
X196885047Y-85787820D01*
X196885051Y-85787816D01*
X196889514Y-85779054D01*
X196937488Y-85728259D01*
X197005308Y-85711463D01*
X197071444Y-85733999D01*
X197110484Y-85779054D01*
X197114591Y-85787115D01*
X197114951Y-85787820D01*
X197239890Y-85959786D01*
X197390213Y-86110109D01*
X197562184Y-86235051D01*
X197562184Y-86235052D01*
X197601793Y-86255233D01*
X197652590Y-86303206D01*
X197669500Y-86365718D01*
X197669500Y-86775500D01*
X197649815Y-86842539D01*
X197597011Y-86888294D01*
X197545500Y-86899500D01*
X169800097Y-86899500D01*
X169733058Y-86879815D01*
X169712416Y-86863181D01*
X168760521Y-85911286D01*
X168727036Y-85849963D01*
X168732020Y-85780271D01*
X168760521Y-85735924D01*
X168813716Y-85682729D01*
X168882981Y-85613464D01*
X168999787Y-85452694D01*
X169079515Y-85296218D01*
X169127490Y-85245423D01*
X169195311Y-85228628D01*
X169261446Y-85251165D01*
X169300484Y-85296218D01*
X169380213Y-85452694D01*
X169497019Y-85613464D01*
X169637536Y-85753981D01*
X169798306Y-85870787D01*
X169859498Y-85901966D01*
X169975367Y-85961005D01*
X169975370Y-85961006D01*
X170069866Y-85991709D01*
X170164364Y-86022413D01*
X170360639Y-86053500D01*
X170360640Y-86053500D01*
X170559360Y-86053500D01*
X170559361Y-86053500D01*
X170755636Y-86022413D01*
X170944632Y-85961005D01*
X171121694Y-85870787D01*
X171282464Y-85753981D01*
X171422981Y-85613464D01*
X171539787Y-85452694D01*
X171619515Y-85296218D01*
X171667490Y-85245423D01*
X171735311Y-85228628D01*
X171801446Y-85251165D01*
X171840484Y-85296218D01*
X171920213Y-85452694D01*
X172037019Y-85613464D01*
X172177536Y-85753981D01*
X172338306Y-85870787D01*
X172399498Y-85901966D01*
X172515367Y-85961005D01*
X172515370Y-85961006D01*
X172609866Y-85991709D01*
X172704364Y-86022413D01*
X172900639Y-86053500D01*
X172900640Y-86053500D01*
X173099360Y-86053500D01*
X173099361Y-86053500D01*
X173295636Y-86022413D01*
X173484632Y-85961005D01*
X173661694Y-85870787D01*
X173822464Y-85753981D01*
X173962981Y-85613464D01*
X174079787Y-85452694D01*
X174159515Y-85296218D01*
X174207490Y-85245423D01*
X174275311Y-85228628D01*
X174341446Y-85251165D01*
X174380484Y-85296218D01*
X174460213Y-85452694D01*
X174577019Y-85613464D01*
X174717536Y-85753981D01*
X174878306Y-85870787D01*
X174939498Y-85901966D01*
X175055367Y-85961005D01*
X175055370Y-85961006D01*
X175149866Y-85991709D01*
X175244364Y-86022413D01*
X175440639Y-86053500D01*
X175440640Y-86053500D01*
X175639360Y-86053500D01*
X175639361Y-86053500D01*
X175835636Y-86022413D01*
X176024632Y-85961005D01*
X176201694Y-85870787D01*
X176362464Y-85753981D01*
X176502981Y-85613464D01*
X176619787Y-85452694D01*
X176699515Y-85296218D01*
X176747490Y-85245423D01*
X176815311Y-85228628D01*
X176881446Y-85251165D01*
X176920484Y-85296218D01*
X177000213Y-85452694D01*
X177117019Y-85613464D01*
X177257536Y-85753981D01*
X177418306Y-85870787D01*
X177479498Y-85901966D01*
X177595367Y-85961005D01*
X177595370Y-85961006D01*
X177689866Y-85991709D01*
X177784364Y-86022413D01*
X177980639Y-86053500D01*
X177980640Y-86053500D01*
X178179360Y-86053500D01*
X178179361Y-86053500D01*
X178375636Y-86022413D01*
X178564632Y-85961005D01*
X178741694Y-85870787D01*
X178902464Y-85753981D01*
X179042981Y-85613464D01*
X179159787Y-85452694D01*
X179239515Y-85296218D01*
X179287490Y-85245423D01*
X179355311Y-85228628D01*
X179421446Y-85251165D01*
X179460484Y-85296218D01*
X179540213Y-85452694D01*
X179657019Y-85613464D01*
X179797536Y-85753981D01*
X179958306Y-85870787D01*
X180019498Y-85901966D01*
X180135367Y-85961005D01*
X180135370Y-85961006D01*
X180229866Y-85991709D01*
X180324364Y-86022413D01*
X180520639Y-86053500D01*
X180520640Y-86053500D01*
X180719360Y-86053500D01*
X180719361Y-86053500D01*
X180915636Y-86022413D01*
X181104632Y-85961005D01*
X181281694Y-85870787D01*
X181442464Y-85753981D01*
X181582981Y-85613464D01*
X181699787Y-85452694D01*
X181790005Y-85275632D01*
X181851413Y-85086636D01*
X181882500Y-84890361D01*
X181882500Y-84691639D01*
X181851413Y-84495364D01*
X181790005Y-84306368D01*
X181790005Y-84306367D01*
X181735914Y-84200209D01*
X181699787Y-84129306D01*
X181582981Y-83968536D01*
X181442464Y-83828019D01*
X181281694Y-83711213D01*
X181104632Y-83620994D01*
X181104629Y-83620993D01*
X180915637Y-83559587D01*
X180817498Y-83544043D01*
X180719361Y-83528500D01*
X180520639Y-83528500D01*
X180455214Y-83538862D01*
X180324362Y-83559587D01*
X180135370Y-83620993D01*
X180135367Y-83620994D01*
X179958305Y-83711213D01*
X179797533Y-83828021D01*
X179657021Y-83968533D01*
X179540213Y-84129305D01*
X179460485Y-84285780D01*
X179412510Y-84336576D01*
X179344689Y-84353371D01*
X179278554Y-84330833D01*
X179239515Y-84285780D01*
X179220179Y-84247832D01*
X179159787Y-84129306D01*
X179042981Y-83968536D01*
X178902464Y-83828019D01*
X178741694Y-83711213D01*
X178564632Y-83620994D01*
X178564629Y-83620993D01*
X178375637Y-83559587D01*
X178277498Y-83544043D01*
X178179361Y-83528500D01*
X177980639Y-83528500D01*
X177915214Y-83538862D01*
X177784362Y-83559587D01*
X177595370Y-83620993D01*
X177595367Y-83620994D01*
X177418305Y-83711213D01*
X177257533Y-83828021D01*
X177117021Y-83968533D01*
X177000213Y-84129305D01*
X176920485Y-84285780D01*
X176872510Y-84336576D01*
X176804689Y-84353371D01*
X176738554Y-84330833D01*
X176699515Y-84285780D01*
X176680179Y-84247832D01*
X176619787Y-84129306D01*
X176502981Y-83968536D01*
X176362464Y-83828019D01*
X176201694Y-83711213D01*
X176024632Y-83620994D01*
X176024629Y-83620993D01*
X175835637Y-83559587D01*
X175737498Y-83544043D01*
X175639361Y-83528500D01*
X175440639Y-83528500D01*
X175375214Y-83538862D01*
X175244362Y-83559587D01*
X175055370Y-83620993D01*
X175055367Y-83620994D01*
X174878305Y-83711213D01*
X174717533Y-83828021D01*
X174577021Y-83968533D01*
X174460213Y-84129305D01*
X174380485Y-84285780D01*
X174332510Y-84336576D01*
X174264689Y-84353371D01*
X174198554Y-84330833D01*
X174159515Y-84285780D01*
X174140179Y-84247832D01*
X174079787Y-84129306D01*
X173962981Y-83968536D01*
X173822464Y-83828019D01*
X173661694Y-83711213D01*
X173484632Y-83620994D01*
X173484629Y-83620993D01*
X173295637Y-83559587D01*
X173197498Y-83544043D01*
X173099361Y-83528500D01*
X172900639Y-83528500D01*
X172835214Y-83538862D01*
X172704362Y-83559587D01*
X172515370Y-83620993D01*
X172515367Y-83620994D01*
X172338305Y-83711213D01*
X172177533Y-83828021D01*
X172037021Y-83968533D01*
X171920213Y-84129305D01*
X171840485Y-84285780D01*
X171792510Y-84336576D01*
X171724689Y-84353371D01*
X171658554Y-84330833D01*
X171619515Y-84285780D01*
X171600179Y-84247832D01*
X171539787Y-84129306D01*
X171422981Y-83968536D01*
X171366819Y-83912374D01*
X171333334Y-83851051D01*
X171330500Y-83824693D01*
X171330500Y-80373718D01*
X171350185Y-80306679D01*
X171398207Y-80263233D01*
X171437815Y-80243052D01*
X171437815Y-80243051D01*
X171437816Y-80243051D01*
X171529193Y-80176661D01*
X171609786Y-80118109D01*
X171609788Y-80118106D01*
X171609792Y-80118104D01*
X171760104Y-79967792D01*
X171760106Y-79967788D01*
X171760109Y-79967786D01*
X171885048Y-79795820D01*
X171885047Y-79795820D01*
X171885051Y-79795816D01*
X171889514Y-79787054D01*
X171937488Y-79736259D01*
X172005308Y-79719463D01*
X172071444Y-79741999D01*
X172110484Y-79787054D01*
X172113028Y-79792046D01*
X172114951Y-79795820D01*
X172239890Y-79967786D01*
X172390213Y-80118109D01*
X172562179Y-80243048D01*
X172562181Y-80243049D01*
X172562184Y-80243051D01*
X172751588Y-80339557D01*
X172953757Y-80405246D01*
X173163713Y-80438500D01*
X173163714Y-80438500D01*
X173376286Y-80438500D01*
X173376287Y-80438500D01*
X173586243Y-80405246D01*
X173788412Y-80339557D01*
X173977816Y-80243051D01*
X174051131Y-80189785D01*
X174149786Y-80118109D01*
X174149788Y-80118106D01*
X174149792Y-80118104D01*
X174300104Y-79967792D01*
X174300106Y-79967788D01*
X174300109Y-79967786D01*
X174425046Y-79795823D01*
X174425048Y-79795820D01*
X174425051Y-79795816D01*
X174425508Y-79794918D01*
X174425774Y-79794636D01*
X174427596Y-79791664D01*
X174428220Y-79792046D01*
X174473473Y-79744117D01*
X174541291Y-79727311D01*
X174607429Y-79749838D01*
X174650890Y-79804546D01*
X174660000Y-79851197D01*
X174660000Y-79982785D01*
X174660002Y-79982808D01*
X174662908Y-80007869D01*
X174662909Y-80007873D01*
X174708211Y-80110474D01*
X174708214Y-80110479D01*
X174787520Y-80189785D01*
X174787525Y-80189788D01*
X174890123Y-80235089D01*
X174915206Y-80237999D01*
X175659999Y-80237999D01*
X175660000Y-80237998D01*
X175660000Y-79565445D01*
X175744174Y-79588000D01*
X175875826Y-79588000D01*
X175960000Y-79565445D01*
X175960000Y-80237999D01*
X176704786Y-80237999D01*
X176704808Y-80237997D01*
X176729869Y-80235091D01*
X176729873Y-80235090D01*
X176832474Y-80189788D01*
X176832479Y-80189785D01*
X176911785Y-80110479D01*
X176911788Y-80110474D01*
X176957089Y-80007877D01*
X176957089Y-80007875D01*
X176959999Y-79982794D01*
X176960000Y-79982791D01*
X176960000Y-79238000D01*
X176287445Y-79238000D01*
X176310000Y-79153826D01*
X176310000Y-79022174D01*
X176287445Y-78938000D01*
X176959999Y-78938000D01*
X176959999Y-78193214D01*
X176959997Y-78193191D01*
X176957091Y-78168130D01*
X176957090Y-78168126D01*
X176911788Y-78065525D01*
X176911785Y-78065520D01*
X176832479Y-77986214D01*
X176832474Y-77986211D01*
X176729876Y-77940910D01*
X176704794Y-77938000D01*
X175960000Y-77938000D01*
X175960000Y-78610554D01*
X175875826Y-78588000D01*
X175744174Y-78588000D01*
X175660000Y-78610554D01*
X175660000Y-77938000D01*
X174915214Y-77938000D01*
X174915191Y-77938002D01*
X174890130Y-77940908D01*
X174890126Y-77940909D01*
X174787525Y-77986211D01*
X174787520Y-77986214D01*
X174708214Y-78065520D01*
X174708211Y-78065525D01*
X174662910Y-78168122D01*
X174662910Y-78168124D01*
X174660000Y-78193205D01*
X174660000Y-78324800D01*
X174640315Y-78391839D01*
X174587511Y-78437594D01*
X174518353Y-78447538D01*
X174454797Y-78418513D01*
X174427904Y-78384147D01*
X174427596Y-78384336D01*
X174425949Y-78381649D01*
X174425515Y-78381094D01*
X174425050Y-78380182D01*
X174300109Y-78208213D01*
X174149786Y-78057890D01*
X173977820Y-77932951D01*
X173788414Y-77836444D01*
X173788413Y-77836443D01*
X173788412Y-77836443D01*
X173586243Y-77770754D01*
X173586241Y-77770753D01*
X173586240Y-77770753D01*
X173424957Y-77745208D01*
X173376287Y-77737500D01*
X173163713Y-77737500D01*
X173115042Y-77745208D01*
X172953760Y-77770753D01*
X172751585Y-77836444D01*
X172562179Y-77932951D01*
X172390213Y-78057890D01*
X172239890Y-78208213D01*
X172114949Y-78380182D01*
X172110484Y-78388946D01*
X172062509Y-78439742D01*
X171994688Y-78456536D01*
X171928553Y-78433998D01*
X171889516Y-78388946D01*
X171885050Y-78380182D01*
X171760109Y-78208213D01*
X171609786Y-78057890D01*
X171437815Y-77932948D01*
X171437814Y-77932947D01*
X171398205Y-77912765D01*
X171347409Y-77864791D01*
X171330500Y-77802281D01*
X171330500Y-76724500D01*
X171350185Y-76657461D01*
X171402989Y-76611706D01*
X171454500Y-76600500D01*
X181571349Y-76600500D01*
X181638388Y-76620185D01*
G37*
%TD.AperFunction*%
%TA.AperFunction,Conductor*%
G36*
X209123539Y-49558584D02*
G01*
X209190446Y-49578703D01*
X209235857Y-49631803D01*
X209246728Y-49683371D01*
X208754682Y-126934397D01*
X208734571Y-127001310D01*
X208681477Y-127046727D01*
X208629880Y-127057604D01*
X135627658Y-126583565D01*
X135560748Y-126563446D01*
X135515337Y-126510346D01*
X135504466Y-126458781D01*
X135528550Y-122677648D01*
X176199500Y-122677648D01*
X176199500Y-122882351D01*
X176231522Y-123084534D01*
X176294781Y-123279223D01*
X176387715Y-123461613D01*
X176508028Y-123627213D01*
X176652786Y-123771971D01*
X176807749Y-123884556D01*
X176818390Y-123892287D01*
X176934607Y-123951503D01*
X177000776Y-123985218D01*
X177000778Y-123985218D01*
X177000781Y-123985220D01*
X177105137Y-124019127D01*
X177195465Y-124048477D01*
X177296557Y-124064488D01*
X177397648Y-124080500D01*
X177397649Y-124080500D01*
X177602351Y-124080500D01*
X177602352Y-124080500D01*
X177804534Y-124048477D01*
X177999219Y-123985220D01*
X178181610Y-123892287D01*
X178274590Y-123824732D01*
X178347213Y-123771971D01*
X178347215Y-123771968D01*
X178347219Y-123771966D01*
X178491966Y-123627219D01*
X178491968Y-123627215D01*
X178491971Y-123627213D01*
X178544732Y-123554590D01*
X178612287Y-123461610D01*
X178639515Y-123408171D01*
X178687490Y-123357376D01*
X178755311Y-123340581D01*
X178821446Y-123363118D01*
X178860485Y-123408172D01*
X178887715Y-123461613D01*
X179008028Y-123627213D01*
X179152786Y-123771971D01*
X179307749Y-123884556D01*
X179318390Y-123892287D01*
X179434607Y-123951503D01*
X179500776Y-123985218D01*
X179500778Y-123985218D01*
X179500781Y-123985220D01*
X179605137Y-124019127D01*
X179695465Y-124048477D01*
X179796557Y-124064488D01*
X179897648Y-124080500D01*
X179897649Y-124080500D01*
X180102351Y-124080500D01*
X180102352Y-124080500D01*
X180304534Y-124048477D01*
X180499219Y-123985220D01*
X180681610Y-123892287D01*
X180774590Y-123824732D01*
X180847213Y-123771971D01*
X180847215Y-123771968D01*
X180847219Y-123771966D01*
X180991966Y-123627219D01*
X180991968Y-123627215D01*
X180991971Y-123627213D01*
X181044732Y-123554590D01*
X181112287Y-123461610D01*
X181139515Y-123408171D01*
X181187490Y-123357376D01*
X181255311Y-123340581D01*
X181321446Y-123363118D01*
X181360485Y-123408172D01*
X181387715Y-123461613D01*
X181508028Y-123627213D01*
X181652786Y-123771971D01*
X181807749Y-123884556D01*
X181818390Y-123892287D01*
X181934607Y-123951503D01*
X182000776Y-123985218D01*
X182000778Y-123985218D01*
X182000781Y-123985220D01*
X182105137Y-124019127D01*
X182195465Y-124048477D01*
X182296557Y-124064488D01*
X182397648Y-124080500D01*
X182397649Y-124080500D01*
X182602351Y-124080500D01*
X182602352Y-124080500D01*
X182804534Y-124048477D01*
X182999219Y-123985220D01*
X183181610Y-123892287D01*
X183274590Y-123824732D01*
X183347213Y-123771971D01*
X183347215Y-123771968D01*
X183347219Y-123771966D01*
X183491966Y-123627219D01*
X183491968Y-123627215D01*
X183491971Y-123627213D01*
X183544732Y-123554590D01*
X183612287Y-123461610D01*
X183705220Y-123279219D01*
X183768477Y-123084534D01*
X183800500Y-122882352D01*
X183800500Y-122677648D01*
X183768477Y-122475466D01*
X183705220Y-122280781D01*
X183705218Y-122280778D01*
X183705218Y-122280776D01*
X183639515Y-122151828D01*
X183612287Y-122098390D01*
X183604556Y-122087749D01*
X183491971Y-121932786D01*
X183347213Y-121788028D01*
X183181613Y-121667715D01*
X183181612Y-121667714D01*
X183181610Y-121667713D01*
X183124653Y-121638691D01*
X182999223Y-121574781D01*
X182804534Y-121511522D01*
X182629995Y-121483878D01*
X182602352Y-121479500D01*
X182397648Y-121479500D01*
X182373329Y-121483351D01*
X182195465Y-121511522D01*
X182000776Y-121574781D01*
X181818386Y-121667715D01*
X181652786Y-121788028D01*
X181508028Y-121932786D01*
X181387713Y-122098388D01*
X181360484Y-122151828D01*
X181312510Y-122202623D01*
X181244688Y-122219418D01*
X181178554Y-122196880D01*
X181139516Y-122151828D01*
X181112286Y-122098388D01*
X180991971Y-121932786D01*
X180847213Y-121788028D01*
X180681613Y-121667715D01*
X180681612Y-121667714D01*
X180681610Y-121667713D01*
X180624653Y-121638691D01*
X180499223Y-121574781D01*
X180304534Y-121511522D01*
X180129995Y-121483878D01*
X180102352Y-121479500D01*
X179897648Y-121479500D01*
X179873329Y-121483351D01*
X179695465Y-121511522D01*
X179500776Y-121574781D01*
X179318386Y-121667715D01*
X179152786Y-121788028D01*
X179008028Y-121932786D01*
X178887713Y-122098388D01*
X178860484Y-122151828D01*
X178812510Y-122202623D01*
X178744688Y-122219418D01*
X178678554Y-122196880D01*
X178639516Y-122151828D01*
X178612286Y-122098388D01*
X178491971Y-121932786D01*
X178347213Y-121788028D01*
X178181613Y-121667715D01*
X178181612Y-121667714D01*
X178181610Y-121667713D01*
X178124653Y-121638691D01*
X177999223Y-121574781D01*
X177804534Y-121511522D01*
X177629995Y-121483878D01*
X177602352Y-121479500D01*
X177397648Y-121479500D01*
X177373329Y-121483351D01*
X177195465Y-121511522D01*
X177000776Y-121574781D01*
X176818386Y-121667715D01*
X176652786Y-121788028D01*
X176508028Y-121932786D01*
X176387715Y-122098386D01*
X176294781Y-122280776D01*
X176231522Y-122475465D01*
X176199500Y-122677648D01*
X135528550Y-122677648D01*
X135552580Y-118904983D01*
X164399500Y-118904983D01*
X164399500Y-120255001D01*
X164399501Y-120255018D01*
X164410000Y-120357796D01*
X164410001Y-120357799D01*
X164435607Y-120435072D01*
X164465186Y-120524334D01*
X164557288Y-120673656D01*
X164681344Y-120797712D01*
X164830666Y-120889814D01*
X164997203Y-120944999D01*
X165099991Y-120955500D01*
X165900008Y-120955499D01*
X165900016Y-120955498D01*
X165900019Y-120955498D01*
X165956302Y-120949748D01*
X166002797Y-120944999D01*
X166169334Y-120889814D01*
X166318656Y-120797712D01*
X166442712Y-120673656D01*
X166534814Y-120524334D01*
X166564393Y-120435070D01*
X166604165Y-120377627D01*
X166668680Y-120350804D01*
X166737456Y-120363119D01*
X166785200Y-120405185D01*
X166800923Y-120428716D01*
X166800926Y-120428720D01*
X166926279Y-120554073D01*
X166926283Y-120554076D01*
X167073683Y-120652566D01*
X167073692Y-120652571D01*
X167237477Y-120720412D01*
X167237487Y-120720415D01*
X167349999Y-120742795D01*
X167350000Y-120742795D01*
X167350000Y-119926410D01*
X167355255Y-119929444D01*
X167450630Y-119955000D01*
X167549370Y-119955000D01*
X167644745Y-119929444D01*
X167650000Y-119926410D01*
X167650000Y-120742795D01*
X167762512Y-120720415D01*
X167762522Y-120720412D01*
X167926307Y-120652571D01*
X167926316Y-120652566D01*
X168073716Y-120554076D01*
X168073720Y-120554073D01*
X168199073Y-120428720D01*
X168199076Y-120428716D01*
X168297566Y-120281316D01*
X168297571Y-120281307D01*
X168365413Y-120117520D01*
X168365415Y-120117512D01*
X168399999Y-119943646D01*
X168400000Y-119943643D01*
X168400000Y-119730000D01*
X167846410Y-119730000D01*
X167849444Y-119724745D01*
X167875000Y-119629370D01*
X167875000Y-119530630D01*
X167849444Y-119435255D01*
X167846410Y-119430000D01*
X168400000Y-119430000D01*
X168400000Y-119216357D01*
X168399999Y-119216353D01*
X168365415Y-119042487D01*
X168365413Y-119042479D01*
X168297571Y-118878692D01*
X168297566Y-118878683D01*
X168243453Y-118797697D01*
X168199645Y-118732135D01*
X176199500Y-118732135D01*
X176199500Y-120427870D01*
X176199501Y-120427876D01*
X176205908Y-120487483D01*
X176256202Y-120622328D01*
X176256206Y-120622335D01*
X176342452Y-120737544D01*
X176342455Y-120737547D01*
X176457664Y-120823793D01*
X176457671Y-120823797D01*
X176592517Y-120874091D01*
X176592516Y-120874091D01*
X176599444Y-120874835D01*
X176652127Y-120880500D01*
X178347872Y-120880499D01*
X178407483Y-120874091D01*
X178542331Y-120823796D01*
X178657546Y-120737546D01*
X178743796Y-120622331D01*
X178794091Y-120487483D01*
X178795394Y-120481968D01*
X178829963Y-120421250D01*
X178891872Y-120388860D01*
X178961464Y-120395083D01*
X179003387Y-120424975D01*
X179004589Y-120423774D01*
X179152786Y-120571971D01*
X179263718Y-120652566D01*
X179318390Y-120692287D01*
X179434607Y-120751503D01*
X179500776Y-120785218D01*
X179500778Y-120785218D01*
X179500781Y-120785220D01*
X179605137Y-120819127D01*
X179695465Y-120848477D01*
X179796557Y-120864488D01*
X179897648Y-120880500D01*
X179897649Y-120880500D01*
X180102351Y-120880500D01*
X180102352Y-120880500D01*
X180304534Y-120848477D01*
X180499219Y-120785220D01*
X180681610Y-120692287D01*
X180777901Y-120622328D01*
X180847213Y-120571971D01*
X180847215Y-120571968D01*
X180847219Y-120571966D01*
X180991966Y-120427219D01*
X180991968Y-120427215D01*
X180991971Y-120427213D01*
X181047484Y-120350804D01*
X181112287Y-120261610D01*
X181139515Y-120208171D01*
X181187490Y-120157376D01*
X181255311Y-120140581D01*
X181321446Y-120163118D01*
X181360484Y-120208171D01*
X181384354Y-120255018D01*
X181387715Y-120261613D01*
X181508028Y-120427213D01*
X181652786Y-120571971D01*
X181763718Y-120652566D01*
X181818390Y-120692287D01*
X181934607Y-120751503D01*
X182000776Y-120785218D01*
X182000778Y-120785218D01*
X182000781Y-120785220D01*
X182105137Y-120819127D01*
X182195465Y-120848477D01*
X182296557Y-120864488D01*
X182397648Y-120880500D01*
X182397649Y-120880500D01*
X182602351Y-120880500D01*
X182602352Y-120880500D01*
X182804534Y-120848477D01*
X182999219Y-120785220D01*
X183181610Y-120692287D01*
X183277901Y-120622328D01*
X183347213Y-120571971D01*
X183347215Y-120571968D01*
X183347219Y-120571966D01*
X183491966Y-120427219D01*
X183491968Y-120427215D01*
X183491971Y-120427213D01*
X183547484Y-120350804D01*
X183612287Y-120261610D01*
X183705220Y-120079219D01*
X183768477Y-119884534D01*
X183800500Y-119682352D01*
X183800500Y-119477648D01*
X183768477Y-119275466D01*
X183705220Y-119080781D01*
X183705218Y-119080778D01*
X183705218Y-119080776D01*
X183639515Y-118951828D01*
X183612287Y-118898390D01*
X183597969Y-118878683D01*
X183491971Y-118732786D01*
X183347213Y-118588028D01*
X183181613Y-118467715D01*
X183181612Y-118467714D01*
X183181610Y-118467713D01*
X183124653Y-118438691D01*
X182999223Y-118374781D01*
X182804534Y-118311522D01*
X182629995Y-118283878D01*
X182602352Y-118279500D01*
X182397648Y-118279500D01*
X182373329Y-118283351D01*
X182195465Y-118311522D01*
X182000776Y-118374781D01*
X181818386Y-118467715D01*
X181652786Y-118588028D01*
X181508028Y-118732786D01*
X181387713Y-118898388D01*
X181360484Y-118951828D01*
X181312510Y-119002623D01*
X181244688Y-119019418D01*
X181178554Y-118996880D01*
X181139516Y-118951828D01*
X181112286Y-118898388D01*
X180991971Y-118732786D01*
X180847213Y-118588028D01*
X180681613Y-118467715D01*
X180681612Y-118467714D01*
X180681610Y-118467713D01*
X180624653Y-118438691D01*
X180499223Y-118374781D01*
X180304534Y-118311522D01*
X180129995Y-118283878D01*
X180102352Y-118279500D01*
X179897648Y-118279500D01*
X179873329Y-118283351D01*
X179695465Y-118311522D01*
X179500776Y-118374781D01*
X179318386Y-118467715D01*
X179152786Y-118588028D01*
X179152782Y-118588032D01*
X179004589Y-118736226D01*
X179003152Y-118734789D01*
X178951746Y-118768280D01*
X178881877Y-118768714D01*
X178822866Y-118731306D01*
X178795394Y-118678034D01*
X178794091Y-118672521D01*
X178794091Y-118672517D01*
X178780347Y-118635668D01*
X178743797Y-118537671D01*
X178743793Y-118537664D01*
X178657547Y-118422455D01*
X178657544Y-118422452D01*
X178542335Y-118336206D01*
X178542328Y-118336202D01*
X178407482Y-118285908D01*
X178407483Y-118285908D01*
X178347883Y-118279501D01*
X178347881Y-118279500D01*
X178347873Y-118279500D01*
X178347864Y-118279500D01*
X176652129Y-118279500D01*
X176652123Y-118279501D01*
X176592516Y-118285908D01*
X176457671Y-118336202D01*
X176457664Y-118336206D01*
X176342455Y-118422452D01*
X176342452Y-118422455D01*
X176256206Y-118537664D01*
X176256202Y-118537671D01*
X176205908Y-118672517D01*
X176199501Y-118732116D01*
X176199500Y-118732135D01*
X168199645Y-118732135D01*
X168199076Y-118731283D01*
X168199073Y-118731279D01*
X168073720Y-118605926D01*
X168073716Y-118605923D01*
X167926316Y-118507433D01*
X167926307Y-118507428D01*
X167762520Y-118439586D01*
X167762512Y-118439584D01*
X167650000Y-118417203D01*
X167650000Y-119233589D01*
X167644745Y-119230556D01*
X167549370Y-119205000D01*
X167450630Y-119205000D01*
X167355255Y-119230556D01*
X167350000Y-119233589D01*
X167350000Y-118417204D01*
X167349999Y-118417203D01*
X167237487Y-118439584D01*
X167237479Y-118439586D01*
X167073692Y-118507428D01*
X167073683Y-118507433D01*
X166926283Y-118605923D01*
X166926279Y-118605926D01*
X166800924Y-118731281D01*
X166785199Y-118754816D01*
X166731586Y-118799620D01*
X166662261Y-118808326D01*
X166599234Y-118778170D01*
X166564392Y-118724927D01*
X166547023Y-118672511D01*
X166534814Y-118635666D01*
X166442712Y-118486344D01*
X166318656Y-118362288D01*
X166184436Y-118279501D01*
X166169336Y-118270187D01*
X166169331Y-118270185D01*
X166167862Y-118269698D01*
X166002797Y-118215001D01*
X166002795Y-118215000D01*
X165900010Y-118204500D01*
X165099998Y-118204500D01*
X165099980Y-118204501D01*
X164997203Y-118215000D01*
X164997200Y-118215001D01*
X164830668Y-118270185D01*
X164830663Y-118270187D01*
X164681342Y-118362289D01*
X164557289Y-118486342D01*
X164465187Y-118635663D01*
X164465185Y-118635668D01*
X164437349Y-118719670D01*
X164410001Y-118802203D01*
X164410001Y-118802204D01*
X164410000Y-118802204D01*
X164399500Y-118904983D01*
X135552580Y-118904983D01*
X135574295Y-115495690D01*
X135575294Y-115338927D01*
X135580755Y-114481504D01*
X169340000Y-114481504D01*
X169340000Y-114678495D01*
X169378427Y-114871681D01*
X169378430Y-114871693D01*
X169453809Y-115053676D01*
X169453811Y-115053679D01*
X169534069Y-115173795D01*
X169534071Y-115173795D01*
X170009397Y-114698470D01*
X170013852Y-114715095D01*
X170059930Y-114794905D01*
X170125095Y-114860070D01*
X170204905Y-114906148D01*
X170221529Y-114910602D01*
X169746203Y-115385927D01*
X169746203Y-115385928D01*
X169866316Y-115466185D01*
X169866328Y-115466192D01*
X170048306Y-115541569D01*
X170048318Y-115541572D01*
X170241504Y-115579999D01*
X170241508Y-115580000D01*
X170438492Y-115580000D01*
X170438495Y-115579999D01*
X170631681Y-115541572D01*
X170631693Y-115541569D01*
X170813673Y-115466191D01*
X170813675Y-115466190D01*
X170933796Y-115385928D01*
X170458471Y-114910602D01*
X170475095Y-114906148D01*
X170554905Y-114860070D01*
X170620070Y-114794905D01*
X170666148Y-114715095D01*
X170670602Y-114698470D01*
X171145928Y-115173796D01*
X171226190Y-115053675D01*
X171226191Y-115053673D01*
X171301569Y-114871693D01*
X171301572Y-114871681D01*
X171339999Y-114678495D01*
X171340000Y-114678492D01*
X171340000Y-114485513D01*
X176759500Y-114485513D01*
X176759500Y-114674486D01*
X176789059Y-114861118D01*
X176847454Y-115040836D01*
X176915201Y-115173795D01*
X176933240Y-115209199D01*
X177044310Y-115362073D01*
X177177927Y-115495690D01*
X177330801Y-115606760D01*
X177410347Y-115647290D01*
X177499163Y-115692545D01*
X177499165Y-115692545D01*
X177499168Y-115692547D01*
X177595497Y-115723846D01*
X177678881Y-115750940D01*
X177865514Y-115780500D01*
X177865519Y-115780500D01*
X178054486Y-115780500D01*
X178241118Y-115750940D01*
X178420832Y-115692547D01*
X178589199Y-115606760D01*
X178689292Y-115534038D01*
X183399500Y-115534038D01*
X183399500Y-115785961D01*
X183438910Y-116034785D01*
X183516760Y-116274383D01*
X183631132Y-116498848D01*
X183779201Y-116702649D01*
X183779205Y-116702654D01*
X183957345Y-116880794D01*
X183957350Y-116880798D01*
X184135117Y-117009952D01*
X184161155Y-117028870D01*
X184304184Y-117101747D01*
X184385616Y-117143239D01*
X184385618Y-117143239D01*
X184385621Y-117143241D01*
X184625215Y-117221090D01*
X184874038Y-117260500D01*
X184874039Y-117260500D01*
X185125961Y-117260500D01*
X185125962Y-117260500D01*
X185374785Y-117221090D01*
X185614379Y-117143241D01*
X185838845Y-117028870D01*
X186042656Y-116880793D01*
X186220793Y-116702656D01*
X186368870Y-116498845D01*
X186483241Y-116274379D01*
X186561090Y-116034785D01*
X186600500Y-115785962D01*
X186600500Y-115534038D01*
X186561090Y-115285215D01*
X186483241Y-115045621D01*
X186483239Y-115045618D01*
X186483239Y-115045616D01*
X186394614Y-114871681D01*
X186368870Y-114821155D01*
X186262309Y-114674486D01*
X186220798Y-114617350D01*
X186220794Y-114617345D01*
X186042654Y-114439205D01*
X186042649Y-114439201D01*
X185838848Y-114291132D01*
X185838847Y-114291131D01*
X185838845Y-114291130D01*
X185765683Y-114253852D01*
X185614383Y-114176760D01*
X185374785Y-114098910D01*
X185125962Y-114059500D01*
X184874038Y-114059500D01*
X184749626Y-114079205D01*
X184625214Y-114098910D01*
X184385616Y-114176760D01*
X184161151Y-114291132D01*
X183957350Y-114439201D01*
X183957345Y-114439205D01*
X183779205Y-114617345D01*
X183779201Y-114617350D01*
X183631132Y-114821151D01*
X183516760Y-115045616D01*
X183438910Y-115285214D01*
X183399500Y-115534038D01*
X178689292Y-115534038D01*
X178742073Y-115495690D01*
X178875690Y-115362073D01*
X178986760Y-115209199D01*
X179072547Y-115040832D01*
X179130940Y-114861118D01*
X179131106Y-114860070D01*
X179160500Y-114674486D01*
X179160500Y-114485513D01*
X179130940Y-114298881D01*
X179091260Y-114176760D01*
X179072547Y-114119168D01*
X179072545Y-114119165D01*
X179072545Y-114119163D01*
X179004798Y-113986203D01*
X178986760Y-113950801D01*
X178875690Y-113797927D01*
X178742073Y-113664310D01*
X178589199Y-113553240D01*
X178420836Y-113467454D01*
X178241118Y-113409059D01*
X178054486Y-113379500D01*
X178054481Y-113379500D01*
X177865519Y-113379500D01*
X177865514Y-113379500D01*
X177678881Y-113409059D01*
X177499163Y-113467454D01*
X177330800Y-113553240D01*
X177293969Y-113580000D01*
X177177927Y-113664310D01*
X177177925Y-113664312D01*
X177177924Y-113664312D01*
X177044312Y-113797924D01*
X177044312Y-113797925D01*
X177044310Y-113797927D01*
X177028642Y-113819492D01*
X176933240Y-113950800D01*
X176847454Y-114119163D01*
X176789059Y-114298881D01*
X176759500Y-114485513D01*
X171340000Y-114485513D01*
X171340000Y-114481508D01*
X171339999Y-114481504D01*
X171301572Y-114288318D01*
X171301569Y-114288306D01*
X171226192Y-114106328D01*
X171226185Y-114106316D01*
X171145927Y-113986203D01*
X170670602Y-114461528D01*
X170666148Y-114444905D01*
X170620070Y-114365095D01*
X170554905Y-114299930D01*
X170475095Y-114253852D01*
X170458470Y-114249397D01*
X170933795Y-113774071D01*
X170933795Y-113774069D01*
X170813679Y-113693811D01*
X170813676Y-113693809D01*
X170631693Y-113618430D01*
X170631681Y-113618427D01*
X170438495Y-113580000D01*
X170241504Y-113580000D01*
X170048318Y-113618427D01*
X170048310Y-113618429D01*
X169866325Y-113693809D01*
X169866318Y-113693813D01*
X169746203Y-113774071D01*
X169746202Y-113774071D01*
X170221529Y-114249397D01*
X170204905Y-114253852D01*
X170125095Y-114299930D01*
X170059930Y-114365095D01*
X170013852Y-114444905D01*
X170009397Y-114461528D01*
X169534071Y-113986202D01*
X169534071Y-113986203D01*
X169453813Y-114106318D01*
X169453809Y-114106325D01*
X169378429Y-114288310D01*
X169378427Y-114288318D01*
X169340000Y-114481504D01*
X135580755Y-114481504D01*
X135580799Y-114474627D01*
X135584972Y-113819492D01*
X135615698Y-108995458D01*
X135631464Y-106520205D01*
X167215000Y-106520205D01*
X167215000Y-107430000D01*
X167892201Y-107430000D01*
X167870000Y-107512857D01*
X167870000Y-107647143D01*
X167892201Y-107730000D01*
X167215001Y-107730000D01*
X167215001Y-108639785D01*
X167215002Y-108639808D01*
X167217908Y-108664869D01*
X167217909Y-108664873D01*
X167263211Y-108767474D01*
X167263214Y-108767479D01*
X167342520Y-108846785D01*
X167342525Y-108846788D01*
X167445123Y-108892089D01*
X167470206Y-108894999D01*
X168229999Y-108894999D01*
X168230000Y-108894998D01*
X168230000Y-108067798D01*
X168312857Y-108090000D01*
X168447143Y-108090000D01*
X168530000Y-108067798D01*
X168530000Y-108894999D01*
X169289786Y-108894999D01*
X169289808Y-108894997D01*
X169314869Y-108892091D01*
X169314873Y-108892090D01*
X169417474Y-108846788D01*
X169417479Y-108846785D01*
X169496785Y-108767479D01*
X169496788Y-108767474D01*
X169542089Y-108664877D01*
X169542089Y-108664875D01*
X169544999Y-108639794D01*
X169544999Y-108542235D01*
X169564683Y-108475196D01*
X169617486Y-108429440D01*
X169686645Y-108419496D01*
X169750201Y-108448520D01*
X169769317Y-108469348D01*
X169789126Y-108496613D01*
X169878455Y-108619563D01*
X170030437Y-108771545D01*
X170204322Y-108897880D01*
X170298251Y-108945739D01*
X170395829Y-108995458D01*
X170395832Y-108995459D01*
X170586494Y-109057408D01*
X170600245Y-109061876D01*
X170812533Y-109095500D01*
X170812534Y-109095500D01*
X171027466Y-109095500D01*
X171027467Y-109095500D01*
X171239755Y-109061876D01*
X171239758Y-109061875D01*
X171239759Y-109061875D01*
X171444167Y-108995459D01*
X171444170Y-108995458D01*
X171635678Y-108897880D01*
X171809563Y-108771545D01*
X171961545Y-108619563D01*
X172087880Y-108445678D01*
X172185458Y-108254170D01*
X172185459Y-108254167D01*
X172187322Y-108249670D01*
X172189471Y-108250560D01*
X172223372Y-108200790D01*
X172287681Y-108173475D01*
X172356549Y-108185265D01*
X172408110Y-108232415D01*
X172412523Y-108240346D01*
X172463599Y-108340588D01*
X172571390Y-108488947D01*
X172571390Y-108488948D01*
X172701051Y-108618609D01*
X172849406Y-108726396D01*
X173012797Y-108809648D01*
X173187193Y-108866312D01*
X173310000Y-108885763D01*
X173310000Y-108067798D01*
X173392857Y-108090000D01*
X173527143Y-108090000D01*
X173610000Y-108067798D01*
X173610000Y-108885762D01*
X173732806Y-108866312D01*
X173907202Y-108809648D01*
X174070593Y-108726396D01*
X174218947Y-108618609D01*
X174218948Y-108618609D01*
X174348609Y-108488948D01*
X174348609Y-108488947D01*
X174456396Y-108340593D01*
X174507475Y-108240346D01*
X174555449Y-108189550D01*
X174623270Y-108172755D01*
X174689405Y-108195292D01*
X174732611Y-108249697D01*
X174732678Y-108249670D01*
X174732774Y-108249903D01*
X174732857Y-108250007D01*
X174733148Y-108250806D01*
X174734541Y-108254170D01*
X174823846Y-108429440D01*
X174832120Y-108445678D01*
X174958455Y-108619563D01*
X175110437Y-108771545D01*
X175284322Y-108897880D01*
X175378251Y-108945739D01*
X175475829Y-108995458D01*
X175475832Y-108995459D01*
X175666494Y-109057408D01*
X175680245Y-109061876D01*
X175892533Y-109095500D01*
X175892534Y-109095500D01*
X176107466Y-109095500D01*
X176107467Y-109095500D01*
X176319755Y-109061876D01*
X176319758Y-109061875D01*
X176319759Y-109061875D01*
X176524167Y-108995459D01*
X176524170Y-108995458D01*
X176715678Y-108897880D01*
X176889563Y-108771545D01*
X177041545Y-108619563D01*
X177167880Y-108445678D01*
X177265458Y-108254170D01*
X177282802Y-108200790D01*
X177331875Y-108049759D01*
X177331875Y-108049758D01*
X177331876Y-108049755D01*
X177365500Y-107837467D01*
X177365500Y-107322533D01*
X177331876Y-107110245D01*
X177331875Y-107110241D01*
X177331875Y-107110240D01*
X177265459Y-106905832D01*
X177265458Y-106905829D01*
X177167879Y-106714321D01*
X177162335Y-106706690D01*
X177041545Y-106540437D01*
X176889563Y-106388455D01*
X176715678Y-106262120D01*
X176680298Y-106244093D01*
X176524170Y-106164541D01*
X176524167Y-106164540D01*
X176319757Y-106098124D01*
X176178229Y-106075708D01*
X176107467Y-106064500D01*
X175892533Y-106064500D01*
X175821770Y-106075708D01*
X175680243Y-106098124D01*
X175680240Y-106098124D01*
X175475832Y-106164540D01*
X175475829Y-106164541D01*
X175284321Y-106262120D01*
X175214001Y-106313211D01*
X175110437Y-106388455D01*
X175110435Y-106388457D01*
X175110434Y-106388457D01*
X174958457Y-106540434D01*
X174958457Y-106540435D01*
X174958455Y-106540437D01*
X174957763Y-106541390D01*
X174832120Y-106714321D01*
X174734541Y-106905829D01*
X174732678Y-106910330D01*
X174730587Y-106909464D01*
X174696388Y-106959405D01*
X174632010Y-106986559D01*
X174563172Y-106974598D01*
X174511729Y-106927318D01*
X174507475Y-106919653D01*
X174456396Y-106819406D01*
X174348609Y-106671052D01*
X174348609Y-106671051D01*
X174218948Y-106541390D01*
X174070593Y-106433603D01*
X173907202Y-106350351D01*
X173882081Y-106342189D01*
X173824405Y-106302751D01*
X173797207Y-106238393D01*
X173809122Y-106169546D01*
X173851508Y-106121156D01*
X173970289Y-106041789D01*
X174081786Y-105930292D01*
X174081789Y-105930289D01*
X174169394Y-105799179D01*
X174229737Y-105653497D01*
X174260500Y-105498842D01*
X174260500Y-105341158D01*
X174260500Y-105341155D01*
X174260499Y-105341153D01*
X174229738Y-105186510D01*
X174229737Y-105186503D01*
X174229735Y-105186498D01*
X174169397Y-105040827D01*
X174169390Y-105040814D01*
X174081789Y-104909711D01*
X174081786Y-104909707D01*
X173970292Y-104798213D01*
X173970288Y-104798210D01*
X173839185Y-104710609D01*
X173839172Y-104710602D01*
X173693501Y-104650264D01*
X173693489Y-104650261D01*
X173538845Y-104619500D01*
X173538842Y-104619500D01*
X173381158Y-104619500D01*
X173381155Y-104619500D01*
X173226510Y-104650261D01*
X173226498Y-104650264D01*
X173080827Y-104710602D01*
X173080814Y-104710609D01*
X172949711Y-104798210D01*
X172949707Y-104798213D01*
X172838213Y-104909707D01*
X172838210Y-104909711D01*
X172750609Y-105040814D01*
X172750602Y-105040827D01*
X172690264Y-105186498D01*
X172690261Y-105186510D01*
X172659500Y-105341153D01*
X172659500Y-105498846D01*
X172690261Y-105653489D01*
X172690264Y-105653501D01*
X172750602Y-105799172D01*
X172750609Y-105799185D01*
X172838210Y-105930288D01*
X172838213Y-105930292D01*
X172949707Y-106041786D01*
X172949711Y-106041789D01*
X173068491Y-106121156D01*
X173113296Y-106174768D01*
X173122003Y-106244093D01*
X173091848Y-106307121D01*
X173037919Y-106342189D01*
X173012796Y-106350352D01*
X172849406Y-106433603D01*
X172701052Y-106541390D01*
X172701051Y-106541390D01*
X172571390Y-106671051D01*
X172571390Y-106671052D01*
X172463601Y-106819409D01*
X172412523Y-106919654D01*
X172364548Y-106970449D01*
X172296727Y-106987244D01*
X172230593Y-106964706D01*
X172187389Y-106910301D01*
X172187322Y-106910330D01*
X172187223Y-106910093D01*
X172187142Y-106909990D01*
X172186856Y-106909205D01*
X172185458Y-106905829D01*
X172087879Y-106714321D01*
X172082335Y-106706690D01*
X171961545Y-106540437D01*
X171809563Y-106388455D01*
X171635678Y-106262120D01*
X171600298Y-106244093D01*
X171444170Y-106164541D01*
X171444167Y-106164540D01*
X171239757Y-106098124D01*
X171098229Y-106075708D01*
X171027467Y-106064500D01*
X170812533Y-106064500D01*
X170741770Y-106075708D01*
X170600243Y-106098124D01*
X170600240Y-106098124D01*
X170395832Y-106164540D01*
X170395829Y-106164541D01*
X170204321Y-106262120D01*
X170134001Y-106313211D01*
X170030437Y-106388455D01*
X170030435Y-106388457D01*
X170030434Y-106388457D01*
X169878457Y-106540434D01*
X169878457Y-106540435D01*
X169878455Y-106540437D01*
X169877763Y-106541390D01*
X169769317Y-106690652D01*
X169713987Y-106733317D01*
X169644373Y-106739296D01*
X169582578Y-106706690D01*
X169548221Y-106645851D01*
X169544999Y-106617766D01*
X169544999Y-106520214D01*
X169544997Y-106520191D01*
X169542091Y-106495130D01*
X169542090Y-106495126D01*
X169496788Y-106392525D01*
X169496785Y-106392520D01*
X169417479Y-106313214D01*
X169417474Y-106313211D01*
X169314876Y-106267910D01*
X169289794Y-106265000D01*
X168530000Y-106265000D01*
X168530000Y-107092201D01*
X168447143Y-107070000D01*
X168312857Y-107070000D01*
X168230000Y-107092201D01*
X168230000Y-106265000D01*
X167470214Y-106265000D01*
X167470191Y-106265002D01*
X167445130Y-106267908D01*
X167445126Y-106267909D01*
X167342525Y-106313211D01*
X167342520Y-106313214D01*
X167263214Y-106392520D01*
X167263211Y-106392525D01*
X167217910Y-106495122D01*
X167217910Y-106495124D01*
X167215000Y-106520205D01*
X135631464Y-106520205D01*
X135643695Y-104599982D01*
X183399500Y-104599982D01*
X183399500Y-106400017D01*
X183410000Y-106502796D01*
X183422473Y-106540437D01*
X183465186Y-106669335D01*
X183557288Y-106818656D01*
X183681344Y-106942712D01*
X183830665Y-107034814D01*
X183997202Y-107089999D01*
X184099990Y-107100500D01*
X184099995Y-107100500D01*
X185900005Y-107100500D01*
X185900010Y-107100500D01*
X186002798Y-107089999D01*
X186169335Y-107034814D01*
X186318656Y-106942712D01*
X186442712Y-106818656D01*
X186534814Y-106669335D01*
X186589999Y-106502798D01*
X186600500Y-106400010D01*
X186600500Y-104599990D01*
X186589999Y-104497202D01*
X186534814Y-104330665D01*
X186442712Y-104181344D01*
X186318656Y-104057288D01*
X186169335Y-103965186D01*
X186002798Y-103910001D01*
X186002796Y-103910000D01*
X185900017Y-103899500D01*
X185900010Y-103899500D01*
X184099990Y-103899500D01*
X184099982Y-103899500D01*
X183997203Y-103910000D01*
X183997202Y-103910001D01*
X183914669Y-103937349D01*
X183830667Y-103965185D01*
X183830662Y-103965187D01*
X183681342Y-104057289D01*
X183557289Y-104181342D01*
X183465187Y-104330662D01*
X183465186Y-104330665D01*
X183410001Y-104497202D01*
X183410001Y-104497203D01*
X183410000Y-104497203D01*
X183399500Y-104599982D01*
X135643695Y-104599982D01*
X135673429Y-99931639D01*
X164117500Y-99931639D01*
X164117500Y-100130360D01*
X164148587Y-100326637D01*
X164209993Y-100515629D01*
X164209994Y-100515632D01*
X164288392Y-100669495D01*
X164300213Y-100692694D01*
X164417019Y-100853464D01*
X164557536Y-100993981D01*
X164718306Y-101110787D01*
X164805149Y-101155035D01*
X164895367Y-101201005D01*
X164895370Y-101201006D01*
X164989866Y-101231709D01*
X165084364Y-101262413D01*
X165280639Y-101293500D01*
X165280640Y-101293500D01*
X165479360Y-101293500D01*
X165479361Y-101293500D01*
X165675636Y-101262413D01*
X165864632Y-101201005D01*
X166041694Y-101110787D01*
X166202464Y-100993981D01*
X166342981Y-100853464D01*
X166459787Y-100692694D01*
X166539515Y-100536218D01*
X166587490Y-100485423D01*
X166655311Y-100468628D01*
X166721446Y-100491165D01*
X166760484Y-100536218D01*
X166840213Y-100692694D01*
X166957019Y-100853464D01*
X167097536Y-100993981D01*
X167258306Y-101110787D01*
X167345149Y-101155035D01*
X167435367Y-101201005D01*
X167435370Y-101201006D01*
X167529866Y-101231709D01*
X167624364Y-101262413D01*
X167820639Y-101293500D01*
X167820640Y-101293500D01*
X168019360Y-101293500D01*
X168019361Y-101293500D01*
X168215636Y-101262413D01*
X168404632Y-101201005D01*
X168581694Y-101110787D01*
X168742464Y-100993981D01*
X168882981Y-100853464D01*
X168999787Y-100692694D01*
X169079515Y-100536218D01*
X169127490Y-100485423D01*
X169195311Y-100468628D01*
X169261446Y-100491165D01*
X169300484Y-100536218D01*
X169380213Y-100692694D01*
X169497019Y-100853464D01*
X169637536Y-100993981D01*
X169798306Y-101110787D01*
X169885149Y-101155035D01*
X169975367Y-101201005D01*
X169975370Y-101201006D01*
X170069866Y-101231709D01*
X170164364Y-101262413D01*
X170360639Y-101293500D01*
X170360640Y-101293500D01*
X170559360Y-101293500D01*
X170559361Y-101293500D01*
X170755636Y-101262413D01*
X170944632Y-101201005D01*
X171121694Y-101110787D01*
X171282464Y-100993981D01*
X171422981Y-100853464D01*
X171539787Y-100692694D01*
X171619515Y-100536218D01*
X171667490Y-100485423D01*
X171735311Y-100468628D01*
X171801446Y-100491165D01*
X171840484Y-100536218D01*
X171920213Y-100692694D01*
X172037019Y-100853464D01*
X172177536Y-100993981D01*
X172338306Y-101110787D01*
X172425149Y-101155035D01*
X172515367Y-101201005D01*
X172515370Y-101201006D01*
X172609866Y-101231709D01*
X172704364Y-101262413D01*
X172900639Y-101293500D01*
X172900640Y-101293500D01*
X173099360Y-101293500D01*
X173099361Y-101293500D01*
X173295636Y-101262413D01*
X173484632Y-101201005D01*
X173661694Y-101110787D01*
X173822464Y-100993981D01*
X173962981Y-100853464D01*
X174079787Y-100692694D01*
X174159515Y-100536218D01*
X174207490Y-100485423D01*
X174275311Y-100468628D01*
X174341446Y-100491165D01*
X174380484Y-100536218D01*
X174460213Y-100692694D01*
X174577019Y-100853464D01*
X174717536Y-100993981D01*
X174878306Y-101110787D01*
X174965149Y-101155035D01*
X175055367Y-101201005D01*
X175055370Y-101201006D01*
X175149866Y-101231709D01*
X175244364Y-101262413D01*
X175440639Y-101293500D01*
X175440640Y-101293500D01*
X175639360Y-101293500D01*
X175639361Y-101293500D01*
X175835636Y-101262413D01*
X176024632Y-101201005D01*
X176201694Y-101110787D01*
X176362464Y-100993981D01*
X176502981Y-100853464D01*
X176619787Y-100692694D01*
X176710005Y-100515632D01*
X176771413Y-100326636D01*
X176788942Y-100215958D01*
X176818869Y-100152829D01*
X176878181Y-100115897D01*
X176948043Y-100116895D01*
X177006276Y-100155504D01*
X177033031Y-100211169D01*
X177058810Y-100340767D01*
X177058812Y-100340775D01*
X177138863Y-100534038D01*
X177138869Y-100534049D01*
X177229371Y-100669495D01*
X177229372Y-100669496D01*
X177676957Y-100221910D01*
X177724311Y-100303930D01*
X177807070Y-100386689D01*
X177889089Y-100434042D01*
X177441503Y-100881627D01*
X177441503Y-100881629D01*
X177576943Y-100972126D01*
X177576961Y-100972136D01*
X177770224Y-101052187D01*
X177770233Y-101052190D01*
X177975397Y-101092999D01*
X177975400Y-101093000D01*
X178184600Y-101093000D01*
X178184602Y-101092999D01*
X178389766Y-101052190D01*
X178389775Y-101052187D01*
X178583046Y-100972132D01*
X178583048Y-100972131D01*
X178718495Y-100881628D01*
X178718495Y-100881627D01*
X178270910Y-100434042D01*
X178352930Y-100386689D01*
X178435689Y-100303930D01*
X178483042Y-100221910D01*
X178930627Y-100669495D01*
X178930628Y-100669495D01*
X179021131Y-100534048D01*
X179021132Y-100534046D01*
X179101187Y-100340775D01*
X179101190Y-100340766D01*
X179126968Y-100211170D01*
X179159352Y-100149259D01*
X179220068Y-100114685D01*
X179289838Y-100118424D01*
X179346510Y-100159290D01*
X179371058Y-100215963D01*
X179388587Y-100326637D01*
X179449993Y-100515629D01*
X179449994Y-100515632D01*
X179528392Y-100669495D01*
X179540213Y-100692694D01*
X179657019Y-100853464D01*
X179797536Y-100993981D01*
X179958306Y-101110787D01*
X180045149Y-101155035D01*
X180135367Y-101201005D01*
X180135370Y-101201006D01*
X180229866Y-101231709D01*
X180324364Y-101262413D01*
X180520639Y-101293500D01*
X180520640Y-101293500D01*
X180719360Y-101293500D01*
X180719361Y-101293500D01*
X180915636Y-101262413D01*
X181104632Y-101201005D01*
X181281694Y-101110787D01*
X181442464Y-100993981D01*
X181582981Y-100853464D01*
X181699787Y-100692694D01*
X181790005Y-100515632D01*
X181851413Y-100326636D01*
X181882500Y-100130361D01*
X181882500Y-99931639D01*
X181851413Y-99735364D01*
X181790005Y-99546368D01*
X181790005Y-99546367D01*
X181744035Y-99456149D01*
X181699787Y-99369306D01*
X181582981Y-99208536D01*
X181442464Y-99068019D01*
X181281694Y-98951213D01*
X181104632Y-98860994D01*
X181104629Y-98860993D01*
X180915637Y-98799587D01*
X180817498Y-98784043D01*
X180719361Y-98768500D01*
X180520639Y-98768500D01*
X180455214Y-98778862D01*
X180324362Y-98799587D01*
X180135370Y-98860993D01*
X180135367Y-98860994D01*
X179958305Y-98951213D01*
X179797533Y-99068021D01*
X179657021Y-99208533D01*
X179540213Y-99369305D01*
X179449994Y-99546367D01*
X179449993Y-99546370D01*
X179388587Y-99735362D01*
X179371058Y-99846036D01*
X179341129Y-99909171D01*
X179281817Y-99946102D01*
X179211955Y-99945104D01*
X179153722Y-99906494D01*
X179126968Y-99850829D01*
X179101190Y-99721233D01*
X179101187Y-99721224D01*
X179021136Y-99527961D01*
X179021126Y-99527943D01*
X178930629Y-99392503D01*
X178930627Y-99392503D01*
X178483041Y-99840088D01*
X178435689Y-99758070D01*
X178352930Y-99675311D01*
X178270910Y-99627957D01*
X178718496Y-99180372D01*
X178718495Y-99180371D01*
X178583049Y-99089869D01*
X178583038Y-99089863D01*
X178389775Y-99009812D01*
X178389766Y-99009809D01*
X178184601Y-98969000D01*
X177975399Y-98969000D01*
X177770233Y-99009809D01*
X177770224Y-99009812D01*
X177576961Y-99089863D01*
X177576950Y-99089869D01*
X177441503Y-99180371D01*
X177441502Y-99180371D01*
X177889089Y-99627957D01*
X177807070Y-99675311D01*
X177724311Y-99758070D01*
X177676957Y-99840088D01*
X177229371Y-99392502D01*
X177229371Y-99392503D01*
X177138869Y-99527950D01*
X177138863Y-99527961D01*
X177058812Y-99721224D01*
X177058810Y-99721232D01*
X177033031Y-99850830D01*
X177000646Y-99912741D01*
X176939930Y-99947315D01*
X176870160Y-99943574D01*
X176813489Y-99902708D01*
X176788941Y-99846037D01*
X176771413Y-99735364D01*
X176771413Y-99735363D01*
X176710006Y-99546370D01*
X176710005Y-99546367D01*
X176678762Y-99485052D01*
X176619787Y-99369306D01*
X176613925Y-99361238D01*
X176569049Y-99299470D01*
X176569047Y-99299468D01*
X176562441Y-99290376D01*
X176502981Y-99208536D01*
X176362464Y-99068019D01*
X176201694Y-98951213D01*
X176024632Y-98860994D01*
X176024629Y-98860993D01*
X175835637Y-98799587D01*
X175737498Y-98784043D01*
X175639361Y-98768500D01*
X175440639Y-98768500D01*
X175375214Y-98778862D01*
X175244362Y-98799587D01*
X175055370Y-98860993D01*
X175055367Y-98860994D01*
X174878305Y-98951213D01*
X174717533Y-99068021D01*
X174577021Y-99208533D01*
X174460213Y-99369305D01*
X174380485Y-99525780D01*
X174332510Y-99576576D01*
X174264689Y-99593371D01*
X174198554Y-99570833D01*
X174159515Y-99525780D01*
X174140179Y-99487832D01*
X174079787Y-99369306D01*
X173962981Y-99208536D01*
X173822464Y-99068019D01*
X173661694Y-98951213D01*
X173484632Y-98860994D01*
X173484629Y-98860993D01*
X173295637Y-98799587D01*
X173197498Y-98784043D01*
X173099361Y-98768500D01*
X172900639Y-98768500D01*
X172835214Y-98778862D01*
X172704362Y-98799587D01*
X172515370Y-98860993D01*
X172515367Y-98860994D01*
X172338305Y-98951213D01*
X172177533Y-99068021D01*
X172037021Y-99208533D01*
X171920213Y-99369305D01*
X171840485Y-99525780D01*
X171792510Y-99576576D01*
X171724689Y-99593371D01*
X171658554Y-99570833D01*
X171619515Y-99525780D01*
X171600179Y-99487832D01*
X171539787Y-99369306D01*
X171422981Y-99208536D01*
X171282464Y-99068019D01*
X171121694Y-98951213D01*
X170944632Y-98860994D01*
X170944629Y-98860993D01*
X170755637Y-98799587D01*
X170657498Y-98784043D01*
X170559361Y-98768500D01*
X170360639Y-98768500D01*
X170295214Y-98778862D01*
X170164362Y-98799587D01*
X169975370Y-98860993D01*
X169975367Y-98860994D01*
X169798305Y-98951213D01*
X169637533Y-99068021D01*
X169497021Y-99208533D01*
X169380213Y-99369305D01*
X169300485Y-99525780D01*
X169252510Y-99576576D01*
X169184689Y-99593371D01*
X169118554Y-99570833D01*
X169079515Y-99525780D01*
X169060179Y-99487832D01*
X168999787Y-99369306D01*
X168882981Y-99208536D01*
X168742464Y-99068019D01*
X168581694Y-98951213D01*
X168404632Y-98860994D01*
X168404629Y-98860993D01*
X168215637Y-98799587D01*
X168117498Y-98784043D01*
X168019361Y-98768500D01*
X167820639Y-98768500D01*
X167755214Y-98778862D01*
X167624362Y-98799587D01*
X167435370Y-98860993D01*
X167435367Y-98860994D01*
X167258305Y-98951213D01*
X167097533Y-99068021D01*
X166957021Y-99208533D01*
X166840213Y-99369305D01*
X166760485Y-99525780D01*
X166712510Y-99576576D01*
X166644689Y-99593371D01*
X166578554Y-99570833D01*
X166539515Y-99525780D01*
X166520179Y-99487832D01*
X166459787Y-99369306D01*
X166342981Y-99208536D01*
X166202464Y-99068019D01*
X166041694Y-98951213D01*
X165864632Y-98860994D01*
X165864629Y-98860993D01*
X165675637Y-98799587D01*
X165577498Y-98784043D01*
X165479361Y-98768500D01*
X165280639Y-98768500D01*
X165215214Y-98778862D01*
X165084362Y-98799587D01*
X164895370Y-98860993D01*
X164895367Y-98860994D01*
X164718305Y-98951213D01*
X164557533Y-99068021D01*
X164417021Y-99208533D01*
X164300213Y-99369305D01*
X164209994Y-99546367D01*
X164209993Y-99546370D01*
X164148587Y-99735362D01*
X164117500Y-99931639D01*
X135673429Y-99931639D01*
X135698564Y-95985513D01*
X150299500Y-95985513D01*
X150299500Y-96174486D01*
X150329059Y-96361118D01*
X150387454Y-96540836D01*
X150473240Y-96709199D01*
X150584310Y-96862073D01*
X150717927Y-96995690D01*
X150870801Y-97106760D01*
X150950347Y-97147290D01*
X151039163Y-97192545D01*
X151039165Y-97192545D01*
X151039168Y-97192547D01*
X151135497Y-97223846D01*
X151218881Y-97250940D01*
X151405514Y-97280500D01*
X151405519Y-97280500D01*
X151594486Y-97280500D01*
X151781118Y-97250940D01*
X151960832Y-97192547D01*
X152129199Y-97106760D01*
X152282073Y-96995690D01*
X152415690Y-96862073D01*
X152526760Y-96709199D01*
X152612547Y-96540832D01*
X152670940Y-96361118D01*
X152700500Y-96174486D01*
X152700500Y-95985514D01*
X152670940Y-95798881D01*
X152612545Y-95619163D01*
X152526759Y-95450800D01*
X152415690Y-95297927D01*
X152282073Y-95164310D01*
X152129199Y-95053240D01*
X152086909Y-95031692D01*
X151960836Y-94967454D01*
X151781118Y-94909059D01*
X151594486Y-94879500D01*
X151594481Y-94879500D01*
X151405519Y-94879500D01*
X151405514Y-94879500D01*
X151218881Y-94909059D01*
X151039163Y-94967454D01*
X150870800Y-95053240D01*
X150783579Y-95116610D01*
X150717927Y-95164310D01*
X150717925Y-95164312D01*
X150717924Y-95164312D01*
X150584312Y-95297924D01*
X150584312Y-95297925D01*
X150584310Y-95297927D01*
X150536610Y-95363579D01*
X150473240Y-95450800D01*
X150387454Y-95619163D01*
X150329059Y-95798881D01*
X150299500Y-95985513D01*
X135698564Y-95985513D01*
X135747099Y-88365513D01*
X150299500Y-88365513D01*
X150299500Y-88554486D01*
X150329059Y-88741118D01*
X150387454Y-88920836D01*
X150473240Y-89089199D01*
X150584310Y-89242073D01*
X150717927Y-89375690D01*
X150870801Y-89486760D01*
X150950347Y-89527290D01*
X151039163Y-89572545D01*
X151039165Y-89572545D01*
X151039168Y-89572547D01*
X151135497Y-89603846D01*
X151218881Y-89630940D01*
X151405514Y-89660500D01*
X151405519Y-89660500D01*
X151594486Y-89660500D01*
X151781118Y-89630940D01*
X151960832Y-89572547D01*
X152129199Y-89486760D01*
X152282073Y-89375690D01*
X152415690Y-89242073D01*
X152526760Y-89089199D01*
X152612547Y-88920832D01*
X152670940Y-88741118D01*
X152700500Y-88554486D01*
X152700500Y-88365513D01*
X152670940Y-88178881D01*
X152632174Y-88059573D01*
X152612547Y-87999168D01*
X152612545Y-87999165D01*
X152612545Y-87999163D01*
X152567290Y-87910347D01*
X152526760Y-87830801D01*
X152415690Y-87677927D01*
X152399898Y-87662135D01*
X155749500Y-87662135D01*
X155749500Y-89257870D01*
X155749501Y-89257876D01*
X155755908Y-89317483D01*
X155806202Y-89452328D01*
X155806206Y-89452335D01*
X155892452Y-89567544D01*
X155892455Y-89567547D01*
X156007664Y-89653793D01*
X156007671Y-89653797D01*
X156142517Y-89704091D01*
X156142516Y-89704091D01*
X156149444Y-89704835D01*
X156202127Y-89710500D01*
X156265733Y-89710499D01*
X156332770Y-89730183D01*
X156378526Y-89782986D01*
X156388470Y-89852144D01*
X156359446Y-89915700D01*
X156338619Y-89934816D01*
X156185354Y-90046171D01*
X156046174Y-90185351D01*
X156046174Y-90185352D01*
X156046172Y-90185354D01*
X155996485Y-90253741D01*
X155930476Y-90344594D01*
X155841117Y-90519970D01*
X155780290Y-90707173D01*
X155749500Y-90901577D01*
X155749500Y-91098422D01*
X155780290Y-91292826D01*
X155841117Y-91480029D01*
X155930476Y-91655405D01*
X156046172Y-91814646D01*
X156185354Y-91953828D01*
X156344595Y-92069524D01*
X156467992Y-92132397D01*
X156521213Y-92159515D01*
X156572009Y-92207489D01*
X156588804Y-92275310D01*
X156566267Y-92341445D01*
X156521213Y-92380485D01*
X156344594Y-92470476D01*
X156253741Y-92536485D01*
X156185354Y-92586172D01*
X156185352Y-92586174D01*
X156185351Y-92586174D01*
X156046174Y-92725351D01*
X156046174Y-92725352D01*
X156046172Y-92725354D01*
X155996485Y-92793741D01*
X155930476Y-92884594D01*
X155841117Y-93059970D01*
X155780290Y-93247173D01*
X155749500Y-93441577D01*
X155749500Y-93638422D01*
X155780290Y-93832826D01*
X155841117Y-94020029D01*
X155930476Y-94195405D01*
X156046172Y-94354646D01*
X156185354Y-94493828D01*
X156344595Y-94609524D01*
X156427455Y-94651743D01*
X156519970Y-94698882D01*
X156519972Y-94698882D01*
X156519975Y-94698884D01*
X156620317Y-94731487D01*
X156707173Y-94759709D01*
X156883281Y-94787602D01*
X156946416Y-94817531D01*
X156983347Y-94876843D01*
X156982349Y-94946705D01*
X156943739Y-95004938D01*
X156888074Y-95031692D01*
X156693733Y-95070348D01*
X156693725Y-95070350D01*
X156502639Y-95149501D01*
X156370155Y-95238023D01*
X156370154Y-95238023D01*
X156841665Y-95709533D01*
X156754394Y-95759920D01*
X156679920Y-95834394D01*
X156629534Y-95921665D01*
X156158023Y-95450154D01*
X156158023Y-95450155D01*
X156069501Y-95582639D01*
X155990350Y-95773725D01*
X155990348Y-95773733D01*
X155950000Y-95976579D01*
X155950000Y-96183420D01*
X155990348Y-96386266D01*
X155990350Y-96386274D01*
X156069502Y-96577363D01*
X156069502Y-96577364D01*
X156158021Y-96709843D01*
X156158023Y-96709843D01*
X156629533Y-96238333D01*
X156679920Y-96325606D01*
X156754394Y-96400080D01*
X156841665Y-96450465D01*
X156370155Y-96921975D01*
X156502631Y-97010494D01*
X156502641Y-97010499D01*
X156693725Y-97089649D01*
X156693733Y-97089651D01*
X156896579Y-97129999D01*
X156896583Y-97130000D01*
X157103417Y-97130000D01*
X157103420Y-97129999D01*
X157306266Y-97089651D01*
X157306274Y-97089649D01*
X157497359Y-97010499D01*
X157629844Y-96921976D01*
X157158334Y-96450465D01*
X157245606Y-96400080D01*
X157320080Y-96325606D01*
X157370466Y-96238334D01*
X157841976Y-96709844D01*
X157930499Y-96577359D01*
X158009649Y-96386274D01*
X158009651Y-96386266D01*
X158049999Y-96183420D01*
X158050000Y-96183417D01*
X158050000Y-95976583D01*
X158049999Y-95976579D01*
X158009651Y-95773733D01*
X158009649Y-95773725D01*
X157930499Y-95582641D01*
X157930494Y-95582631D01*
X157841975Y-95450155D01*
X157370465Y-95921665D01*
X157320080Y-95834394D01*
X157245606Y-95759920D01*
X157158334Y-95709533D01*
X157629843Y-95238023D01*
X157629843Y-95238021D01*
X157497363Y-95149502D01*
X157306274Y-95070350D01*
X157306266Y-95070348D01*
X157111925Y-95031692D01*
X157050014Y-94999308D01*
X157015440Y-94938592D01*
X157019179Y-94868823D01*
X157060045Y-94812150D01*
X157116718Y-94787602D01*
X157292826Y-94759709D01*
X157480025Y-94698884D01*
X157655405Y-94609524D01*
X157814646Y-94493828D01*
X157953828Y-94354646D01*
X158069524Y-94195405D01*
X158158884Y-94020025D01*
X158219709Y-93832826D01*
X158250500Y-93638422D01*
X158250500Y-93441577D01*
X158219709Y-93247173D01*
X158158882Y-93059970D01*
X158069523Y-92884594D01*
X157953828Y-92725354D01*
X157814646Y-92586172D01*
X157735025Y-92528324D01*
X157655403Y-92470474D01*
X157478787Y-92380485D01*
X157427990Y-92332511D01*
X157411195Y-92264690D01*
X157433732Y-92198555D01*
X157478787Y-92159515D01*
X157655403Y-92069525D01*
X157655402Y-92069525D01*
X157655405Y-92069524D01*
X157814646Y-91953828D01*
X157953828Y-91814646D01*
X158069524Y-91655405D01*
X158158884Y-91480025D01*
X158219709Y-91292826D01*
X158250500Y-91098422D01*
X158250500Y-90901577D01*
X158219709Y-90707173D01*
X158158882Y-90519970D01*
X158069523Y-90344594D01*
X157953828Y-90185354D01*
X157814646Y-90046172D01*
X157661377Y-89934815D01*
X157618714Y-89879487D01*
X157612735Y-89809873D01*
X157645341Y-89748078D01*
X157706180Y-89713721D01*
X157734264Y-89710499D01*
X157797872Y-89710499D01*
X157857483Y-89704091D01*
X157992331Y-89653796D01*
X158107546Y-89567546D01*
X158193796Y-89452331D01*
X158244091Y-89317483D01*
X158250500Y-89257873D01*
X158250499Y-87662128D01*
X158244091Y-87602517D01*
X158235340Y-87579055D01*
X158193797Y-87467671D01*
X158193793Y-87467664D01*
X158107547Y-87352455D01*
X158107544Y-87352452D01*
X157992335Y-87266206D01*
X157992328Y-87266202D01*
X157857482Y-87215908D01*
X157857483Y-87215908D01*
X157797883Y-87209501D01*
X157797881Y-87209500D01*
X157797873Y-87209500D01*
X157797864Y-87209500D01*
X156202129Y-87209500D01*
X156202123Y-87209501D01*
X156142516Y-87215908D01*
X156007671Y-87266202D01*
X156007664Y-87266206D01*
X155892455Y-87352452D01*
X155892452Y-87352455D01*
X155806206Y-87467664D01*
X155806202Y-87467671D01*
X155755908Y-87602517D01*
X155749501Y-87662116D01*
X155749501Y-87662123D01*
X155749500Y-87662135D01*
X152399898Y-87662135D01*
X152282073Y-87544310D01*
X152129199Y-87433240D01*
X152105065Y-87420943D01*
X151960836Y-87347454D01*
X151781118Y-87289059D01*
X151594486Y-87259500D01*
X151594481Y-87259500D01*
X151405519Y-87259500D01*
X151405514Y-87259500D01*
X151218881Y-87289059D01*
X151039163Y-87347454D01*
X150870800Y-87433240D01*
X150823411Y-87467671D01*
X150717927Y-87544310D01*
X150717925Y-87544312D01*
X150717924Y-87544312D01*
X150584312Y-87677924D01*
X150584312Y-87677925D01*
X150584310Y-87677927D01*
X150545180Y-87731785D01*
X150473240Y-87830800D01*
X150387454Y-87999163D01*
X150329059Y-88178881D01*
X150299500Y-88365513D01*
X135747099Y-88365513D01*
X135770499Y-84691639D01*
X164117500Y-84691639D01*
X164117500Y-84890360D01*
X164148587Y-85086637D01*
X164209993Y-85275629D01*
X164209994Y-85275632D01*
X164300213Y-85452694D01*
X164417019Y-85613464D01*
X164557536Y-85753981D01*
X164718306Y-85870787D01*
X164779498Y-85901966D01*
X164895367Y-85961005D01*
X164895370Y-85961006D01*
X164989866Y-85991709D01*
X165084364Y-86022413D01*
X165280639Y-86053500D01*
X165280640Y-86053500D01*
X165479360Y-86053500D01*
X165479361Y-86053500D01*
X165675636Y-86022413D01*
X165864632Y-85961005D01*
X166041694Y-85870787D01*
X166202464Y-85753981D01*
X166342981Y-85613464D01*
X166459787Y-85452694D01*
X166539515Y-85296218D01*
X166587490Y-85245423D01*
X166655311Y-85228628D01*
X166721446Y-85251165D01*
X166760484Y-85296218D01*
X166840213Y-85452694D01*
X166957019Y-85613464D01*
X167097536Y-85753981D01*
X167258306Y-85870787D01*
X167258308Y-85870788D01*
X167260279Y-85871996D01*
X167260871Y-85872651D01*
X167262248Y-85873651D01*
X167262038Y-85873939D01*
X167307159Y-85923803D01*
X167319499Y-85977729D01*
X167319499Y-85999054D01*
X167319498Y-85999054D01*
X167360423Y-86151785D01*
X167389358Y-86201900D01*
X167389359Y-86201904D01*
X167389360Y-86201904D01*
X167438803Y-86287544D01*
X167439479Y-86288714D01*
X167439481Y-86288717D01*
X167558349Y-86407585D01*
X167558355Y-86407590D01*
X169015139Y-87864374D01*
X169015149Y-87864385D01*
X169019479Y-87868715D01*
X169019480Y-87868716D01*
X169131284Y-87980520D01*
X169131286Y-87980521D01*
X169131290Y-87980524D01*
X169268209Y-88059573D01*
X169268216Y-88059577D01*
X169380019Y-88089534D01*
X169420942Y-88100500D01*
X169420943Y-88100500D01*
X169420944Y-88100500D01*
X198579055Y-88100500D01*
X198579057Y-88100500D01*
X198731785Y-88059577D01*
X198781904Y-88030639D01*
X198868716Y-87980520D01*
X198980520Y-87868716D01*
X199048760Y-87750520D01*
X199059577Y-87731785D01*
X199100500Y-87579057D01*
X199100500Y-87420943D01*
X199059577Y-87268215D01*
X199014964Y-87190943D01*
X198980520Y-87131284D01*
X198906819Y-87057583D01*
X198873334Y-86996260D01*
X198870500Y-86969902D01*
X198870500Y-86365718D01*
X198890185Y-86298679D01*
X198938207Y-86255233D01*
X198977815Y-86235052D01*
X198977815Y-86235051D01*
X198977816Y-86235051D01*
X199100732Y-86145748D01*
X199149786Y-86110109D01*
X199149788Y-86110106D01*
X199149792Y-86110104D01*
X199300104Y-85959792D01*
X199300106Y-85959788D01*
X199300109Y-85959786D01*
X199425048Y-85787820D01*
X199425047Y-85787820D01*
X199425051Y-85787816D01*
X199429514Y-85779054D01*
X199477488Y-85728259D01*
X199545308Y-85711463D01*
X199611444Y-85733999D01*
X199650484Y-85779054D01*
X199654591Y-85787115D01*
X199654951Y-85787820D01*
X199779890Y-85959786D01*
X199930213Y-86110109D01*
X200102179Y-86235048D01*
X200102181Y-86235049D01*
X200102184Y-86235051D01*
X200291588Y-86331557D01*
X200493757Y-86397246D01*
X200703713Y-86430500D01*
X200703714Y-86430500D01*
X200916286Y-86430500D01*
X200916287Y-86430500D01*
X201126243Y-86397246D01*
X201328412Y-86331557D01*
X201517816Y-86235051D01*
X201604138Y-86172335D01*
X201689786Y-86110109D01*
X201689788Y-86110106D01*
X201689792Y-86110104D01*
X201840104Y-85959792D01*
X201866251Y-85923803D01*
X201903574Y-85872433D01*
X201903576Y-85872430D01*
X201947061Y-85812577D01*
X201965051Y-85787816D01*
X202061557Y-85598412D01*
X202071033Y-85569246D01*
X202110467Y-85511573D01*
X202174825Y-85484374D01*
X202243672Y-85496286D01*
X202295149Y-85543529D01*
X202299447Y-85551269D01*
X202366430Y-85682729D01*
X202437424Y-85780442D01*
X202437425Y-85780443D01*
X202906329Y-85311538D01*
X202949901Y-85387007D01*
X203042993Y-85480099D01*
X203118460Y-85523670D01*
X202649555Y-85992574D01*
X202747268Y-86063567D01*
X202908552Y-86145747D01*
X202908555Y-86145748D01*
X203080706Y-86201682D01*
X203259494Y-86230000D01*
X203440506Y-86230000D01*
X203619293Y-86201682D01*
X203791444Y-86145748D01*
X203791447Y-86145747D01*
X203952730Y-86063568D01*
X204050442Y-85992574D01*
X204050443Y-85992574D01*
X203581539Y-85523670D01*
X203657007Y-85480099D01*
X203750099Y-85387007D01*
X203793670Y-85311538D01*
X204262574Y-85780443D01*
X204262575Y-85780442D01*
X204315182Y-85708036D01*
X204370512Y-85665370D01*
X204440125Y-85659391D01*
X204501920Y-85691997D01*
X204536277Y-85752835D01*
X204539500Y-85780920D01*
X204539500Y-85977869D01*
X204539501Y-85977876D01*
X204545908Y-86037483D01*
X204596202Y-86172328D01*
X204596206Y-86172335D01*
X204682452Y-86287544D01*
X204682455Y-86287547D01*
X204797664Y-86373793D01*
X204797671Y-86373797D01*
X204932517Y-86424091D01*
X204932516Y-86424091D01*
X204939444Y-86424835D01*
X204992127Y-86430500D01*
X206787872Y-86430499D01*
X206847483Y-86424091D01*
X206982331Y-86373796D01*
X207097546Y-86287546D01*
X207183796Y-86172331D01*
X207234091Y-86037483D01*
X207240500Y-85977873D01*
X207240499Y-84182128D01*
X207234091Y-84122517D01*
X207193710Y-84014251D01*
X207183797Y-83987671D01*
X207183793Y-83987664D01*
X207097547Y-83872455D01*
X207097544Y-83872452D01*
X206982335Y-83786206D01*
X206982328Y-83786202D01*
X206847482Y-83735908D01*
X206847483Y-83735908D01*
X206787883Y-83729501D01*
X206787881Y-83729500D01*
X206787873Y-83729500D01*
X206787864Y-83729500D01*
X204992129Y-83729500D01*
X204992123Y-83729501D01*
X204932516Y-83735908D01*
X204797671Y-83786202D01*
X204797664Y-83786206D01*
X204682455Y-83872452D01*
X204682452Y-83872455D01*
X204596206Y-83987664D01*
X204596202Y-83987671D01*
X204545908Y-84122517D01*
X204539501Y-84182116D01*
X204539501Y-84182123D01*
X204539500Y-84182135D01*
X204539500Y-84379077D01*
X204519815Y-84446116D01*
X204467011Y-84491871D01*
X204397853Y-84501815D01*
X204334297Y-84472790D01*
X204315182Y-84451963D01*
X204262574Y-84379556D01*
X204262574Y-84379555D01*
X203793670Y-84848460D01*
X203750099Y-84772993D01*
X203657007Y-84679901D01*
X203581539Y-84636329D01*
X204050443Y-84167425D01*
X204050442Y-84167424D01*
X203952731Y-84096432D01*
X203791447Y-84014252D01*
X203791444Y-84014251D01*
X203619293Y-83958317D01*
X203440506Y-83930000D01*
X203259494Y-83930000D01*
X203080706Y-83958317D01*
X202908555Y-84014251D01*
X202908552Y-84014252D01*
X202747265Y-84096434D01*
X202649556Y-84167423D01*
X202649556Y-84167425D01*
X203118461Y-84636329D01*
X203042993Y-84679901D01*
X202949901Y-84772993D01*
X202906329Y-84848460D01*
X202437425Y-84379556D01*
X202437423Y-84379556D01*
X202366432Y-84477267D01*
X202299447Y-84608730D01*
X202251472Y-84659526D01*
X202183651Y-84676320D01*
X202117516Y-84653782D01*
X202074066Y-84599066D01*
X202071043Y-84590783D01*
X202061557Y-84561588D01*
X201965051Y-84372184D01*
X201965049Y-84372181D01*
X201965048Y-84372179D01*
X201903576Y-84287569D01*
X201840109Y-84200214D01*
X201840105Y-84200209D01*
X201689786Y-84049890D01*
X201517815Y-83924948D01*
X201517814Y-83924947D01*
X201478205Y-83904765D01*
X201427409Y-83856791D01*
X201410500Y-83794281D01*
X201410500Y-82730945D01*
X201410500Y-82730943D01*
X201369577Y-82578216D01*
X201369573Y-82578209D01*
X201290524Y-82441290D01*
X201290521Y-82441286D01*
X201290520Y-82441284D01*
X201178716Y-82329480D01*
X201178715Y-82329479D01*
X201174385Y-82325149D01*
X201174374Y-82325139D01*
X194487590Y-75638355D01*
X194487588Y-75638352D01*
X194368717Y-75519481D01*
X194368716Y-75519480D01*
X194281904Y-75469360D01*
X194281904Y-75469359D01*
X194281900Y-75469358D01*
X194231785Y-75440423D01*
X194079057Y-75399499D01*
X193920943Y-75399499D01*
X193913347Y-75399499D01*
X193913331Y-75399500D01*
X171086670Y-75399500D01*
X171086654Y-75399499D01*
X171079058Y-75399499D01*
X170920943Y-75399499D01*
X170844579Y-75419961D01*
X170768214Y-75440423D01*
X170768209Y-75440426D01*
X170631290Y-75519475D01*
X170631282Y-75519481D01*
X170131284Y-76019481D01*
X170019483Y-76131281D01*
X170019481Y-76131284D01*
X169940423Y-76268214D01*
X169940423Y-76268215D01*
X169899499Y-76420943D01*
X169899499Y-76420945D01*
X169899499Y-76579054D01*
X169899498Y-76579054D01*
X169916268Y-76641639D01*
X169940423Y-76731785D01*
X170019481Y-76868716D01*
X170019483Y-76868718D01*
X170093181Y-76942416D01*
X170126666Y-77003739D01*
X170129500Y-77030097D01*
X170129500Y-77802281D01*
X170109815Y-77869320D01*
X170061795Y-77912765D01*
X170022185Y-77932947D01*
X170022184Y-77932948D01*
X169850213Y-78057890D01*
X169699890Y-78208213D01*
X169574949Y-78380182D01*
X169570484Y-78388946D01*
X169522509Y-78439742D01*
X169454688Y-78456536D01*
X169388553Y-78433998D01*
X169349516Y-78388946D01*
X169345050Y-78380182D01*
X169220109Y-78208213D01*
X169069786Y-78057890D01*
X168897820Y-77932951D01*
X168708414Y-77836444D01*
X168708413Y-77836443D01*
X168708412Y-77836443D01*
X168506243Y-77770754D01*
X168506241Y-77770753D01*
X168506240Y-77770753D01*
X168344957Y-77745208D01*
X168296287Y-77737500D01*
X168083713Y-77737500D01*
X168035042Y-77745208D01*
X167873760Y-77770753D01*
X167671585Y-77836444D01*
X167482179Y-77932951D01*
X167310213Y-78057890D01*
X167159890Y-78208213D01*
X167034951Y-78380179D01*
X166938444Y-78569585D01*
X166872753Y-78771760D01*
X166839500Y-78981713D01*
X166839500Y-79194287D01*
X166872754Y-79404243D01*
X166916525Y-79538957D01*
X166938444Y-79606414D01*
X167034951Y-79795820D01*
X167159890Y-79967786D01*
X167310213Y-80118109D01*
X167482184Y-80243051D01*
X167482184Y-80243052D01*
X167521793Y-80263233D01*
X167572590Y-80311206D01*
X167589500Y-80373718D01*
X167589500Y-83480823D01*
X167569815Y-83547862D01*
X167517011Y-83593617D01*
X167503823Y-83598752D01*
X167482106Y-83605808D01*
X167435363Y-83620996D01*
X167258305Y-83711213D01*
X167097533Y-83828021D01*
X166957021Y-83968533D01*
X166840213Y-84129305D01*
X166760485Y-84285780D01*
X166712510Y-84336576D01*
X166644689Y-84353371D01*
X166578554Y-84330833D01*
X166539515Y-84285780D01*
X166520179Y-84247832D01*
X166459787Y-84129306D01*
X166342981Y-83968536D01*
X166202464Y-83828019D01*
X166041694Y-83711213D01*
X165864632Y-83620994D01*
X165864629Y-83620993D01*
X165675637Y-83559587D01*
X165577498Y-83544043D01*
X165479361Y-83528500D01*
X165280639Y-83528500D01*
X165215214Y-83538862D01*
X165084362Y-83559587D01*
X164895370Y-83620993D01*
X164895367Y-83620994D01*
X164718305Y-83711213D01*
X164557533Y-83828021D01*
X164417021Y-83968533D01*
X164300213Y-84129305D01*
X164209994Y-84306367D01*
X164209993Y-84306370D01*
X164148587Y-84495362D01*
X164117500Y-84691639D01*
X135770499Y-84691639D01*
X135811050Y-78325149D01*
X158423500Y-78325149D01*
X158423500Y-78580850D01*
X158448635Y-78771757D01*
X158456874Y-78834340D01*
X158507204Y-79022174D01*
X158523050Y-79081312D01*
X158523053Y-79081322D01*
X158620894Y-79317531D01*
X158620899Y-79317542D01*
X158748734Y-79538957D01*
X158748745Y-79538973D01*
X158904388Y-79741811D01*
X158904394Y-79741818D01*
X159085181Y-79922605D01*
X159085188Y-79922611D01*
X159196304Y-80007873D01*
X159288035Y-80078261D01*
X159288042Y-80078265D01*
X159509457Y-80206100D01*
X159509462Y-80206102D01*
X159509465Y-80206104D01*
X159745687Y-80303950D01*
X159992660Y-80370126D01*
X160246157Y-80403500D01*
X160246164Y-80403500D01*
X161401836Y-80403500D01*
X161401843Y-80403500D01*
X161655340Y-80370126D01*
X161902313Y-80303950D01*
X162138535Y-80206104D01*
X162359965Y-80078261D01*
X162562813Y-79922610D01*
X162743610Y-79741813D01*
X162899261Y-79538965D01*
X163027104Y-79317535D01*
X163124950Y-79081313D01*
X163191126Y-78834340D01*
X163224500Y-78580843D01*
X163224500Y-78325157D01*
X163191126Y-78071660D01*
X163124950Y-77824687D01*
X163124947Y-77824679D01*
X163124946Y-77824676D01*
X163027105Y-77588468D01*
X163027100Y-77588457D01*
X162899265Y-77367042D01*
X162899261Y-77367035D01*
X162743610Y-77164187D01*
X162743605Y-77164181D01*
X162562818Y-76983394D01*
X162562811Y-76983388D01*
X162359973Y-76827745D01*
X162359971Y-76827743D01*
X162359965Y-76827739D01*
X162359960Y-76827736D01*
X162359957Y-76827734D01*
X162138542Y-76699899D01*
X162138531Y-76699894D01*
X161902322Y-76602053D01*
X161902315Y-76602051D01*
X161902313Y-76602050D01*
X161655340Y-76535874D01*
X161599007Y-76528457D01*
X161401850Y-76502500D01*
X161401843Y-76502500D01*
X160246157Y-76502500D01*
X160246149Y-76502500D01*
X160020826Y-76532165D01*
X159992660Y-76535874D01*
X159751472Y-76600500D01*
X159745687Y-76602050D01*
X159745677Y-76602053D01*
X159509468Y-76699894D01*
X159509457Y-76699899D01*
X159288042Y-76827734D01*
X159288026Y-76827745D01*
X159085188Y-76983388D01*
X159085181Y-76983394D01*
X158904394Y-77164181D01*
X158904388Y-77164188D01*
X158748745Y-77367026D01*
X158748734Y-77367042D01*
X158620899Y-77588457D01*
X158620894Y-77588468D01*
X158523054Y-77824676D01*
X158523050Y-77824687D01*
X158492688Y-77938002D01*
X158456874Y-78071661D01*
X158423500Y-78325149D01*
X135811050Y-78325149D01*
X135860934Y-70493389D01*
X140319500Y-70493389D01*
X140319500Y-70666611D01*
X140346598Y-70837701D01*
X140400127Y-71002445D01*
X140478768Y-71156788D01*
X140580586Y-71296928D01*
X140703072Y-71419414D01*
X140843212Y-71521232D01*
X140997555Y-71599873D01*
X141162299Y-71653402D01*
X141333389Y-71680500D01*
X141333390Y-71680500D01*
X141506610Y-71680500D01*
X141506611Y-71680500D01*
X141677701Y-71653402D01*
X141842445Y-71599873D01*
X141996788Y-71521232D01*
X142136928Y-71419414D01*
X142259414Y-71296928D01*
X142361232Y-71156788D01*
X142439873Y-71002445D01*
X142493402Y-70837701D01*
X142520500Y-70666611D01*
X142520500Y-70493389D01*
X142510854Y-70432486D01*
X144249500Y-70432486D01*
X144249500Y-70727513D01*
X144281571Y-70971113D01*
X144288007Y-71019993D01*
X144362212Y-71296930D01*
X144364361Y-71304951D01*
X144364364Y-71304961D01*
X144477254Y-71577500D01*
X144477258Y-71577510D01*
X144624761Y-71832993D01*
X144804352Y-72067040D01*
X144804358Y-72067047D01*
X145012952Y-72275641D01*
X145012959Y-72275647D01*
X145247006Y-72455238D01*
X145502489Y-72602741D01*
X145502490Y-72602741D01*
X145502493Y-72602743D01*
X145775048Y-72715639D01*
X146060007Y-72791993D01*
X146352494Y-72830500D01*
X146352501Y-72830500D01*
X146647499Y-72830500D01*
X146647506Y-72830500D01*
X146939993Y-72791993D01*
X147224952Y-72715639D01*
X147497507Y-72602743D01*
X147752994Y-72455238D01*
X147987042Y-72275646D01*
X148195646Y-72067042D01*
X148375238Y-71832994D01*
X148522743Y-71577507D01*
X148635639Y-71304952D01*
X148711993Y-71019993D01*
X148750500Y-70727506D01*
X148750500Y-70493389D01*
X150479500Y-70493389D01*
X150479500Y-70666611D01*
X150506598Y-70837701D01*
X150560127Y-71002445D01*
X150638768Y-71156788D01*
X150740586Y-71296928D01*
X150863072Y-71419414D01*
X151003212Y-71521232D01*
X151157555Y-71599873D01*
X151322299Y-71653402D01*
X151493389Y-71680500D01*
X151493390Y-71680500D01*
X151666610Y-71680500D01*
X151666611Y-71680500D01*
X151837701Y-71653402D01*
X152002445Y-71599873D01*
X152156788Y-71521232D01*
X152296928Y-71419414D01*
X152419414Y-71296928D01*
X152521232Y-71156788D01*
X152599873Y-71002445D01*
X152653402Y-70837701D01*
X152680500Y-70666611D01*
X152680500Y-70493389D01*
X190739500Y-70493389D01*
X190739500Y-70666611D01*
X190766598Y-70837701D01*
X190820127Y-71002445D01*
X190898768Y-71156788D01*
X191000586Y-71296928D01*
X191123072Y-71419414D01*
X191263212Y-71521232D01*
X191417555Y-71599873D01*
X191582299Y-71653402D01*
X191753389Y-71680500D01*
X191753390Y-71680500D01*
X191926610Y-71680500D01*
X191926611Y-71680500D01*
X192097701Y-71653402D01*
X192262445Y-71599873D01*
X192416788Y-71521232D01*
X192556928Y-71419414D01*
X192679414Y-71296928D01*
X192781232Y-71156788D01*
X192859873Y-71002445D01*
X192913402Y-70837701D01*
X192940500Y-70666611D01*
X192940500Y-70493389D01*
X192930854Y-70432486D01*
X194669500Y-70432486D01*
X194669500Y-70727513D01*
X194701571Y-70971113D01*
X194708007Y-71019993D01*
X194782212Y-71296930D01*
X194784361Y-71304951D01*
X194784364Y-71304961D01*
X194897254Y-71577500D01*
X194897258Y-71577510D01*
X195044761Y-71832993D01*
X195224352Y-72067040D01*
X195224358Y-72067047D01*
X195432952Y-72275641D01*
X195432959Y-72275647D01*
X195667006Y-72455238D01*
X195922489Y-72602741D01*
X195922490Y-72602741D01*
X195922493Y-72602743D01*
X196195048Y-72715639D01*
X196480007Y-72791993D01*
X196772494Y-72830500D01*
X196772501Y-72830500D01*
X197067499Y-72830500D01*
X197067506Y-72830500D01*
X197359993Y-72791993D01*
X197644952Y-72715639D01*
X197917507Y-72602743D01*
X198172994Y-72455238D01*
X198407042Y-72275646D01*
X198615646Y-72067042D01*
X198795238Y-71832994D01*
X198942743Y-71577507D01*
X199055639Y-71304952D01*
X199131993Y-71019993D01*
X199170500Y-70727506D01*
X199170500Y-70493389D01*
X200899500Y-70493389D01*
X200899500Y-70666611D01*
X200926598Y-70837701D01*
X200980127Y-71002445D01*
X201058768Y-71156788D01*
X201160586Y-71296928D01*
X201283072Y-71419414D01*
X201423212Y-71521232D01*
X201577555Y-71599873D01*
X201742299Y-71653402D01*
X201913389Y-71680500D01*
X201913390Y-71680500D01*
X202086610Y-71680500D01*
X202086611Y-71680500D01*
X202257701Y-71653402D01*
X202422445Y-71599873D01*
X202576788Y-71521232D01*
X202716928Y-71419414D01*
X202839414Y-71296928D01*
X202941232Y-71156788D01*
X203019873Y-71002445D01*
X203073402Y-70837701D01*
X203100500Y-70666611D01*
X203100500Y-70493389D01*
X203073402Y-70322299D01*
X203019873Y-70157555D01*
X202941232Y-70003212D01*
X202839414Y-69863072D01*
X202716928Y-69740586D01*
X202576788Y-69638768D01*
X202422445Y-69560127D01*
X202257701Y-69506598D01*
X202257699Y-69506597D01*
X202257698Y-69506597D01*
X202126271Y-69485781D01*
X202086611Y-69479500D01*
X201913389Y-69479500D01*
X201873728Y-69485781D01*
X201742302Y-69506597D01*
X201577552Y-69560128D01*
X201423211Y-69638768D01*
X201343256Y-69696859D01*
X201283072Y-69740586D01*
X201283070Y-69740588D01*
X201283069Y-69740588D01*
X201160588Y-69863069D01*
X201160588Y-69863070D01*
X201160586Y-69863072D01*
X201116859Y-69923256D01*
X201058768Y-70003211D01*
X200980128Y-70157552D01*
X200926597Y-70322302D01*
X200900397Y-70487727D01*
X200899500Y-70493389D01*
X199170500Y-70493389D01*
X199170500Y-70432494D01*
X199131993Y-70140007D01*
X199055639Y-69855048D01*
X198942743Y-69582493D01*
X198795238Y-69327006D01*
X198645264Y-69131557D01*
X198615647Y-69092959D01*
X198615641Y-69092952D01*
X198407047Y-68884358D01*
X198407040Y-68884352D01*
X198172993Y-68704761D01*
X197917510Y-68557258D01*
X197917500Y-68557254D01*
X197644961Y-68444364D01*
X197644954Y-68444362D01*
X197644952Y-68444361D01*
X197359993Y-68368007D01*
X197311113Y-68361571D01*
X197067513Y-68329500D01*
X197067506Y-68329500D01*
X196772494Y-68329500D01*
X196772486Y-68329500D01*
X196494085Y-68366153D01*
X196480007Y-68368007D01*
X196195048Y-68444361D01*
X196195038Y-68444364D01*
X195922499Y-68557254D01*
X195922489Y-68557258D01*
X195667006Y-68704761D01*
X195432959Y-68884352D01*
X195432952Y-68884358D01*
X195224358Y-69092952D01*
X195224352Y-69092959D01*
X195044761Y-69327006D01*
X194897258Y-69582489D01*
X194897254Y-69582499D01*
X194784364Y-69855038D01*
X194784361Y-69855048D01*
X194708008Y-70140004D01*
X194708006Y-70140015D01*
X194669500Y-70432486D01*
X192930854Y-70432486D01*
X192913402Y-70322299D01*
X192859873Y-70157555D01*
X192781232Y-70003212D01*
X192679414Y-69863072D01*
X192556928Y-69740586D01*
X192416788Y-69638768D01*
X192262445Y-69560127D01*
X192097701Y-69506598D01*
X192097699Y-69506597D01*
X192097698Y-69506597D01*
X191966271Y-69485781D01*
X191926611Y-69479500D01*
X191753389Y-69479500D01*
X191713728Y-69485781D01*
X191582302Y-69506597D01*
X191417552Y-69560128D01*
X191263211Y-69638768D01*
X191183256Y-69696859D01*
X191123072Y-69740586D01*
X191123070Y-69740588D01*
X191123069Y-69740588D01*
X191000588Y-69863069D01*
X191000588Y-69863070D01*
X191000586Y-69863072D01*
X190956859Y-69923256D01*
X190898768Y-70003211D01*
X190820128Y-70157552D01*
X190766597Y-70322302D01*
X190740397Y-70487727D01*
X190739500Y-70493389D01*
X152680500Y-70493389D01*
X152653402Y-70322299D01*
X152599873Y-70157555D01*
X152521232Y-70003212D01*
X152419414Y-69863072D01*
X152296928Y-69740586D01*
X152156788Y-69638768D01*
X152002445Y-69560127D01*
X151837701Y-69506598D01*
X151837699Y-69506597D01*
X151837698Y-69506597D01*
X151706271Y-69485781D01*
X151666611Y-69479500D01*
X151493389Y-69479500D01*
X151453728Y-69485781D01*
X151322302Y-69506597D01*
X151157552Y-69560128D01*
X151003211Y-69638768D01*
X150923256Y-69696859D01*
X150863072Y-69740586D01*
X150863070Y-69740588D01*
X150863069Y-69740588D01*
X150740588Y-69863069D01*
X150740588Y-69863070D01*
X150740586Y-69863072D01*
X150696859Y-69923256D01*
X150638768Y-70003211D01*
X150560128Y-70157552D01*
X150506597Y-70322302D01*
X150480397Y-70487727D01*
X150479500Y-70493389D01*
X148750500Y-70493389D01*
X148750500Y-70432494D01*
X148711993Y-70140007D01*
X148635639Y-69855048D01*
X148522743Y-69582493D01*
X148375238Y-69327006D01*
X148246923Y-69159782D01*
X148246922Y-69159781D01*
X148195649Y-69092962D01*
X148195641Y-69092952D01*
X147987047Y-68884358D01*
X147987040Y-68884352D01*
X147752993Y-68704761D01*
X147497510Y-68557258D01*
X147497500Y-68557254D01*
X147224961Y-68444364D01*
X147224954Y-68444362D01*
X147224952Y-68444361D01*
X146939993Y-68368007D01*
X146891113Y-68361571D01*
X146647513Y-68329500D01*
X146647506Y-68329500D01*
X146352494Y-68329500D01*
X146352486Y-68329500D01*
X146074085Y-68366153D01*
X146060007Y-68368007D01*
X145775048Y-68444361D01*
X145775038Y-68444364D01*
X145502499Y-68557254D01*
X145502489Y-68557258D01*
X145247006Y-68704761D01*
X145012959Y-68884352D01*
X145012952Y-68884358D01*
X144804358Y-69092952D01*
X144804352Y-69092959D01*
X144624761Y-69327006D01*
X144477258Y-69582489D01*
X144477254Y-69582499D01*
X144364364Y-69855038D01*
X144364361Y-69855048D01*
X144288008Y-70140004D01*
X144288006Y-70140015D01*
X144249500Y-70432486D01*
X142510854Y-70432486D01*
X142493402Y-70322299D01*
X142439873Y-70157555D01*
X142361232Y-70003212D01*
X142259414Y-69863072D01*
X142136928Y-69740586D01*
X141996788Y-69638768D01*
X141842445Y-69560127D01*
X141677701Y-69506598D01*
X141677699Y-69506597D01*
X141677698Y-69506597D01*
X141546271Y-69485781D01*
X141506611Y-69479500D01*
X141333389Y-69479500D01*
X141293728Y-69485781D01*
X141162302Y-69506597D01*
X140997552Y-69560128D01*
X140843211Y-69638768D01*
X140763256Y-69696859D01*
X140703072Y-69740586D01*
X140703070Y-69740588D01*
X140703069Y-69740588D01*
X140580588Y-69863069D01*
X140580588Y-69863070D01*
X140580586Y-69863072D01*
X140536859Y-69923256D01*
X140478768Y-70003211D01*
X140400128Y-70157552D01*
X140346597Y-70322302D01*
X140320397Y-70487727D01*
X140319500Y-70493389D01*
X135860934Y-70493389D01*
X135877263Y-67929818D01*
X141290000Y-67929818D01*
X141290000Y-68150181D01*
X141324473Y-68367835D01*
X141392567Y-68577410D01*
X141492615Y-68773763D01*
X141598442Y-68919423D01*
X141598443Y-68919423D01*
X142064311Y-68453555D01*
X142107437Y-68518097D01*
X142211903Y-68622563D01*
X142276443Y-68665687D01*
X141810574Y-69131555D01*
X141810575Y-69131556D01*
X141956236Y-69237384D01*
X142152589Y-69337432D01*
X142362164Y-69405526D01*
X142579819Y-69440000D01*
X142800181Y-69440000D01*
X143017835Y-69405526D01*
X143227410Y-69337432D01*
X143423763Y-69237384D01*
X143569423Y-69131557D01*
X143569424Y-69131555D01*
X143103556Y-68665687D01*
X143168097Y-68622563D01*
X143272563Y-68518097D01*
X143315687Y-68453556D01*
X143781555Y-68919424D01*
X143781557Y-68919423D01*
X143887384Y-68773763D01*
X143987432Y-68577410D01*
X144055526Y-68367835D01*
X144090000Y-68150181D01*
X144090000Y-67929818D01*
X191710000Y-67929818D01*
X191710000Y-68150181D01*
X191744473Y-68367835D01*
X191812567Y-68577410D01*
X191912615Y-68773763D01*
X192018442Y-68919423D01*
X192018443Y-68919423D01*
X192484311Y-68453555D01*
X192527437Y-68518097D01*
X192631903Y-68622563D01*
X192696443Y-68665687D01*
X192230574Y-69131555D01*
X192230575Y-69131556D01*
X192376236Y-69237384D01*
X192572589Y-69337432D01*
X192782164Y-69405526D01*
X192999819Y-69440000D01*
X193220181Y-69440000D01*
X193437835Y-69405526D01*
X193647410Y-69337432D01*
X193843763Y-69237384D01*
X193989423Y-69131557D01*
X193989424Y-69131555D01*
X193523556Y-68665687D01*
X193588097Y-68622563D01*
X193692563Y-68518097D01*
X193735687Y-68453556D01*
X194201555Y-68919424D01*
X194201557Y-68919423D01*
X194307384Y-68773763D01*
X194407432Y-68577410D01*
X194475526Y-68367835D01*
X194510000Y-68150181D01*
X194510000Y-67929818D01*
X194475526Y-67712164D01*
X194407432Y-67502589D01*
X194307384Y-67306236D01*
X194201556Y-67160575D01*
X194201555Y-67160574D01*
X193735687Y-67626443D01*
X193692563Y-67561903D01*
X193588097Y-67457437D01*
X193523555Y-67414312D01*
X193989423Y-66948443D01*
X193989423Y-66948442D01*
X193843763Y-66842615D01*
X193647410Y-66742567D01*
X193437835Y-66674473D01*
X193220181Y-66640000D01*
X192999819Y-66640000D01*
X192782164Y-66674473D01*
X192572589Y-66742567D01*
X192376243Y-66842611D01*
X192230575Y-66948443D01*
X192696444Y-67414312D01*
X192631903Y-67457437D01*
X192527437Y-67561903D01*
X192484312Y-67626444D01*
X192018443Y-67160575D01*
X191912611Y-67306243D01*
X191812567Y-67502589D01*
X191744473Y-67712164D01*
X191710000Y-67929818D01*
X144090000Y-67929818D01*
X144055526Y-67712164D01*
X143987432Y-67502589D01*
X143887384Y-67306236D01*
X143781556Y-67160575D01*
X143781555Y-67160574D01*
X143315687Y-67626443D01*
X143272563Y-67561903D01*
X143168097Y-67457437D01*
X143103555Y-67414312D01*
X143569423Y-66948443D01*
X143569423Y-66948442D01*
X143423763Y-66842615D01*
X143227410Y-66742567D01*
X143017835Y-66674473D01*
X142800181Y-66640000D01*
X142579819Y-66640000D01*
X142362164Y-66674473D01*
X142152589Y-66742567D01*
X141956243Y-66842611D01*
X141810575Y-66948443D01*
X142276444Y-67414312D01*
X142211903Y-67457437D01*
X142107437Y-67561903D01*
X142064312Y-67626444D01*
X141598443Y-67160575D01*
X141492611Y-67306243D01*
X141392567Y-67502589D01*
X141324473Y-67712164D01*
X141290000Y-67929818D01*
X135877263Y-67929818D01*
X135893542Y-65374038D01*
X147439500Y-65374038D01*
X147439500Y-65625961D01*
X147478910Y-65874785D01*
X147556760Y-66114383D01*
X147671132Y-66338848D01*
X147819201Y-66542649D01*
X147819205Y-66542654D01*
X147997345Y-66720794D01*
X147997350Y-66720798D01*
X148027313Y-66742567D01*
X148201155Y-66868870D01*
X148344184Y-66941747D01*
X148425616Y-66983239D01*
X148425618Y-66983239D01*
X148425621Y-66983241D01*
X148665215Y-67061090D01*
X148914038Y-67100500D01*
X148914039Y-67100500D01*
X149165961Y-67100500D01*
X149165962Y-67100500D01*
X149414785Y-67061090D01*
X149654379Y-66983241D01*
X149878845Y-66868870D01*
X150082656Y-66720793D01*
X150260793Y-66542656D01*
X150408870Y-66338845D01*
X150523241Y-66114379D01*
X150601090Y-65874785D01*
X150640500Y-65625962D01*
X150640500Y-65374038D01*
X197859500Y-65374038D01*
X197859500Y-65625961D01*
X197898910Y-65874785D01*
X197976760Y-66114383D01*
X198091132Y-66338848D01*
X198239201Y-66542649D01*
X198239205Y-66542654D01*
X198417345Y-66720794D01*
X198417350Y-66720798D01*
X198447313Y-66742567D01*
X198621155Y-66868870D01*
X198764184Y-66941747D01*
X198845616Y-66983239D01*
X198845618Y-66983239D01*
X198845621Y-66983241D01*
X199085215Y-67061090D01*
X199334038Y-67100500D01*
X199334039Y-67100500D01*
X199585961Y-67100500D01*
X199585962Y-67100500D01*
X199834785Y-67061090D01*
X200074379Y-66983241D01*
X200298845Y-66868870D01*
X200502656Y-66720793D01*
X200680793Y-66542656D01*
X200828870Y-66338845D01*
X200943241Y-66114379D01*
X201021090Y-65874785D01*
X201060500Y-65625962D01*
X201060500Y-65374038D01*
X201021090Y-65125215D01*
X200943241Y-64885621D01*
X200943239Y-64885618D01*
X200943239Y-64885616D01*
X200901747Y-64804184D01*
X200828870Y-64661155D01*
X200809952Y-64635117D01*
X200680798Y-64457350D01*
X200680794Y-64457345D01*
X200502654Y-64279205D01*
X200502649Y-64279201D01*
X200298848Y-64131132D01*
X200298847Y-64131131D01*
X200298845Y-64131130D01*
X200228747Y-64095413D01*
X200074383Y-64016760D01*
X199834785Y-63938910D01*
X199585962Y-63899500D01*
X199334038Y-63899500D01*
X199209626Y-63919205D01*
X199085214Y-63938910D01*
X198845616Y-64016760D01*
X198621151Y-64131132D01*
X198417350Y-64279201D01*
X198417345Y-64279205D01*
X198239205Y-64457345D01*
X198239201Y-64457350D01*
X198091132Y-64661151D01*
X197976760Y-64885616D01*
X197898910Y-65125214D01*
X197859500Y-65374038D01*
X150640500Y-65374038D01*
X150601090Y-65125215D01*
X150523241Y-64885621D01*
X150523239Y-64885618D01*
X150523239Y-64885616D01*
X150481747Y-64804184D01*
X150408870Y-64661155D01*
X150389952Y-64635117D01*
X150260798Y-64457350D01*
X150260794Y-64457345D01*
X150082654Y-64279205D01*
X150082649Y-64279201D01*
X149878848Y-64131132D01*
X149878847Y-64131131D01*
X149878845Y-64131130D01*
X149808747Y-64095413D01*
X149654383Y-64016760D01*
X149414785Y-63938910D01*
X149165962Y-63899500D01*
X148914038Y-63899500D01*
X148789626Y-63919205D01*
X148665214Y-63938910D01*
X148425616Y-64016760D01*
X148201151Y-64131132D01*
X147997350Y-64279201D01*
X147997345Y-64279205D01*
X147819205Y-64457345D01*
X147819201Y-64457350D01*
X147671132Y-64661151D01*
X147556760Y-64885616D01*
X147478910Y-65125214D01*
X147439500Y-65374038D01*
X135893542Y-65374038D01*
X135946293Y-57092104D01*
X135958274Y-55211149D01*
X158423500Y-55211149D01*
X158423500Y-55466850D01*
X158449457Y-55664007D01*
X158456874Y-55720340D01*
X158523050Y-55967312D01*
X158523053Y-55967322D01*
X158620894Y-56203531D01*
X158620899Y-56203542D01*
X158748734Y-56424957D01*
X158748745Y-56424973D01*
X158904388Y-56627811D01*
X158904394Y-56627818D01*
X159085181Y-56808605D01*
X159085187Y-56808610D01*
X159288035Y-56964261D01*
X159288042Y-56964265D01*
X159509457Y-57092100D01*
X159509462Y-57092102D01*
X159509465Y-57092104D01*
X159745687Y-57189950D01*
X159992660Y-57256126D01*
X160246157Y-57289500D01*
X160246164Y-57289500D01*
X161401836Y-57289500D01*
X161401843Y-57289500D01*
X161655340Y-57256126D01*
X161902313Y-57189950D01*
X162138535Y-57092104D01*
X162359965Y-56964261D01*
X162562813Y-56808610D01*
X162743610Y-56627813D01*
X162899261Y-56424965D01*
X163027104Y-56203535D01*
X163124950Y-55967313D01*
X163191126Y-55720340D01*
X163224500Y-55466843D01*
X163224500Y-55211157D01*
X163224499Y-55211149D01*
X180775500Y-55211149D01*
X180775500Y-55466850D01*
X180801457Y-55664007D01*
X180808874Y-55720340D01*
X180875050Y-55967312D01*
X180875053Y-55967322D01*
X180972894Y-56203531D01*
X180972899Y-56203542D01*
X181100734Y-56424957D01*
X181100745Y-56424973D01*
X181256388Y-56627811D01*
X181256394Y-56627818D01*
X181437181Y-56808605D01*
X181437187Y-56808610D01*
X181640035Y-56964261D01*
X181640042Y-56964265D01*
X181861457Y-57092100D01*
X181861462Y-57092102D01*
X181861465Y-57092104D01*
X182097687Y-57189950D01*
X182344660Y-57256126D01*
X182598157Y-57289500D01*
X182598164Y-57289500D01*
X183753836Y-57289500D01*
X183753843Y-57289500D01*
X184007340Y-57256126D01*
X184254313Y-57189950D01*
X184490535Y-57092104D01*
X184711965Y-56964261D01*
X184914813Y-56808610D01*
X185095610Y-56627813D01*
X185251261Y-56424965D01*
X185379104Y-56203535D01*
X185476950Y-55967313D01*
X185543126Y-55720340D01*
X185576500Y-55466843D01*
X185576500Y-55211157D01*
X185543126Y-54957660D01*
X185476950Y-54710687D01*
X185379104Y-54474465D01*
X185379102Y-54474462D01*
X185379100Y-54474457D01*
X185251265Y-54253042D01*
X185251261Y-54253035D01*
X185095610Y-54050187D01*
X185095605Y-54050181D01*
X184914818Y-53869394D01*
X184914811Y-53869388D01*
X184711973Y-53713745D01*
X184711971Y-53713743D01*
X184711965Y-53713739D01*
X184711960Y-53713736D01*
X184711957Y-53713734D01*
X184490542Y-53585899D01*
X184490531Y-53585894D01*
X184254322Y-53488053D01*
X184254315Y-53488051D01*
X184254313Y-53488050D01*
X184007340Y-53421874D01*
X183951007Y-53414457D01*
X183753850Y-53388500D01*
X183753843Y-53388500D01*
X182598157Y-53388500D01*
X182598149Y-53388500D01*
X182372826Y-53418165D01*
X182344660Y-53421874D01*
X182097687Y-53488050D01*
X182097677Y-53488053D01*
X181861468Y-53585894D01*
X181861457Y-53585899D01*
X181640042Y-53713734D01*
X181640026Y-53713745D01*
X181437188Y-53869388D01*
X181437181Y-53869394D01*
X181256394Y-54050181D01*
X181256388Y-54050188D01*
X181100745Y-54253026D01*
X181100734Y-54253042D01*
X180972899Y-54474457D01*
X180972894Y-54474468D01*
X180875053Y-54710677D01*
X180875050Y-54710687D01*
X180808874Y-54957661D01*
X180775500Y-55211149D01*
X163224499Y-55211149D01*
X163191126Y-54957660D01*
X163124950Y-54710687D01*
X163027104Y-54474465D01*
X163027102Y-54474462D01*
X163027100Y-54474457D01*
X162899265Y-54253042D01*
X162899261Y-54253035D01*
X162743610Y-54050187D01*
X162743605Y-54050181D01*
X162562818Y-53869394D01*
X162562811Y-53869388D01*
X162359973Y-53713745D01*
X162359971Y-53713743D01*
X162359965Y-53713739D01*
X162359960Y-53713736D01*
X162359957Y-53713734D01*
X162138542Y-53585899D01*
X162138531Y-53585894D01*
X161902322Y-53488053D01*
X161902315Y-53488051D01*
X161902313Y-53488050D01*
X161655340Y-53421874D01*
X161599007Y-53414457D01*
X161401850Y-53388500D01*
X161401843Y-53388500D01*
X160246157Y-53388500D01*
X160246149Y-53388500D01*
X160020826Y-53418165D01*
X159992660Y-53421874D01*
X159745687Y-53488050D01*
X159745677Y-53488053D01*
X159509468Y-53585894D01*
X159509457Y-53585899D01*
X159288042Y-53713734D01*
X159288026Y-53713745D01*
X159085188Y-53869388D01*
X159085181Y-53869394D01*
X158904394Y-54050181D01*
X158904388Y-54050188D01*
X158748745Y-54253026D01*
X158748734Y-54253042D01*
X158620899Y-54474457D01*
X158620894Y-54474468D01*
X158523053Y-54710677D01*
X158523050Y-54710687D01*
X158456874Y-54957661D01*
X158423500Y-55211149D01*
X135958274Y-55211149D01*
X135958305Y-55206308D01*
X135994272Y-49559390D01*
X135996512Y-49207751D01*
X136016623Y-49140839D01*
X136069717Y-49095422D01*
X136121312Y-49084545D01*
X209123539Y-49558584D01*
G37*
%TD.AperFunction*%
%TD*%
M02*
