%TF.GenerationSoftware,KiCad,Pcbnew,10.0.6*%
%TF.CreationDate,2026-10-06T19:30:57-04:00*%
%TF.ProjectId,Starbie,53746172-6269-4652-9e6b-696361645f70,rev?*%
%TF.SameCoordinates,Original*%
%TF.FileFunction,Copper,L1,Top*%
%TF.FilePolarity,Positive*%
%FSLAX46Y46*%
G04 Gerber Fmt 4.6, Leading zero omitted, Abs format (unit mm)*
G04 Created by KiCad (PCBNEW 10.0.6) date 2026-10-06 19:30:57*
%MOMM*%
%LPD*%
G01*
G04 APERTURE LIST*
G04 Aperture macros list*
%AMRoundRect*
0 Rectangle with rounded corners*
0 $1 Rounding radius*
0 $2 $3 $4 $5 $6 $7 $8 $9 X,Y pos of 4 corners*
0 Add a 4 corners polygon primitive as box body*
4,1,4,$2,$3,$4,$5,$6,$7,$8,$9,$2,$3,0*
0 Add four circle primitives for the rounded corners*
1,1,$1+$1,$2,$3*
1,1,$1+$1,$4,$5*
1,1,$1+$1,$6,$7*
1,1,$1+$1,$8,$9*
0 Add four rect primitives between the rounded corners*
20,1,$1+$1,$2,$3,$4,$5,0*
20,1,$1+$1,$4,$5,$6,$7,0*
20,1,$1+$1,$6,$7,$8,$9,0*
20,1,$1+$1,$8,$9,$2,$3,0*%
G04 Aperture macros list end*
%TA.AperFunction,ComponentPad*%
%ADD10C,2.200000*%
%TD*%
%TA.AperFunction,ComponentPad*%
%ADD11R,1.500000X1.500000*%
%TD*%
%TA.AperFunction,ComponentPad*%
%ADD12C,1.500000*%
%TD*%
%TA.AperFunction,ComponentPad*%
%ADD13C,1.400000*%
%TD*%
%TA.AperFunction,ComponentPad*%
%ADD14R,1.700000X1.700000*%
%TD*%
%TA.AperFunction,ComponentPad*%
%ADD15C,1.700000*%
%TD*%
%TA.AperFunction,SMDPad,CuDef*%
%ADD16RoundRect,0.152400X0.609600X-1.063600X0.609600X1.063600X-0.609600X1.063600X-0.609600X-1.063600X0*%
%TD*%
%TA.AperFunction,ComponentPad*%
%ADD17C,1.524000*%
%TD*%
%TA.AperFunction,SMDPad,CuDef*%
%ADD18RoundRect,0.152400X-0.609600X1.063600X-0.609600X-1.063600X0.609600X-1.063600X0.609600X1.063600X0*%
%TD*%
%TA.AperFunction,ComponentPad*%
%ADD19O,1.700000X1.700000*%
%TD*%
%TA.AperFunction,Conductor*%
%ADD20C,0.200000*%
%TD*%
G04 APERTURE END LIST*
D10*
%TO.P,SW2,1,1_1*%
%TO.N,/GPIO3*%
X192540000Y-60420000D03*
%TO.P,SW2,2,2_2*%
%TO.N,GND*%
X186190000Y-62960000D03*
%TD*%
D11*
%TO.P,U2,1,VDD_1*%
%TO.N,+3.3V*%
X184500000Y-80920000D03*
D12*
%TO.P,U2,2,DATA_2*%
%TO.N,/DHT11 DATA*%
X184500000Y-83460000D03*
%TO.P,U2,3,NC_3*%
%TO.N,unconnected-(U2-NC-Pad3)*%
X184500000Y-86000000D03*
%TO.P,U2,4,GND_4*%
%TO.N,GND*%
X184500000Y-88540000D03*
%TD*%
D10*
%TO.P,SW1,1,1_1*%
%TO.N,/GPIO2*%
X146040000Y-59420000D03*
%TO.P,SW1,2,2_2*%
%TO.N,GND*%
X139690000Y-61960000D03*
%TD*%
D13*
%TO.P,R1,1*%
%TO.N,+3.3V*%
X152500000Y-90310000D03*
%TO.P,R1,2*%
%TO.N,/DHT11 DATA*%
X152500000Y-82690000D03*
%TD*%
D14*
%TO.P,J2,1,Pin_1_1*%
%TO.N,+3.3V*%
X159300000Y-47000000D03*
D15*
%TO.P,J2,2,Pin_2_2*%
%TO.N,GND*%
X161840000Y-47000000D03*
%TO.P,J2,3,Pin_3_3*%
%TO.N,/SCL*%
X164380000Y-47000000D03*
%TO.P,J2,4,Pin_4_4*%
%TO.N,/SDA*%
X166920000Y-47000000D03*
%TO.P,J2,5,Pin_5_5*%
%TO.N,unconnected-(J2-Pin_5-Pad5)*%
X169460000Y-47000000D03*
%TO.P,J2,6,Pin_6_6*%
%TO.N,unconnected-(J2-Pin_6-Pad6)*%
X172000000Y-47000000D03*
%TO.P,J2,7,Pin_7_7*%
%TO.N,unconnected-(J2-Pin_7-Pad7)*%
X174540000Y-47000000D03*
%TO.P,J2,8,Pin_8_8*%
%TO.N,unconnected-(J2-Pin_8-Pad8)*%
X177080000Y-47000000D03*
%TD*%
D16*
%TO.P,U3,1,D0_1*%
%TO.N,unconnected-(U3-D0-Pad1)*%
X174301500Y-79045000D03*
D17*
%TO.N,unconnected-(U3-D0-Pad1)_1*%
X174301500Y-79880000D03*
D16*
%TO.P,U3,2,D1_2*%
%TO.N,/DHT11 DATA*%
X171761500Y-79045000D03*
D17*
X171761500Y-79880000D03*
D16*
%TO.P,U3,3,D2_3*%
%TO.N,/GPIO2*%
X169221500Y-79045000D03*
D17*
X169221500Y-79880000D03*
D16*
%TO.P,U3,4,D3_4*%
%TO.N,/GPIO3*%
X166681500Y-79045000D03*
D17*
X166681500Y-79880000D03*
D16*
%TO.P,U3,5,D4_5*%
%TO.N,/SCL*%
X164141500Y-79045000D03*
D17*
X164141500Y-79880000D03*
D16*
%TO.P,U3,6,D5_6*%
%TO.N,/SDA*%
X161601500Y-79045000D03*
D17*
X161601500Y-79880000D03*
D16*
%TO.P,U3,7,D6_7*%
%TO.N,unconnected-(U3-D6-Pad7)*%
X159061500Y-79045000D03*
D17*
%TO.N,unconnected-(U3-D6-Pad7)_1*%
X159061500Y-79880000D03*
%TO.P,U3,8,D7_8*%
%TO.N,unconnected-(U3-D7-Pad8)_1*%
X159061500Y-95120000D03*
D18*
%TO.N,unconnected-(U3-D7-Pad8)*%
X159061500Y-95955000D03*
D17*
%TO.P,U3,9,D8_9*%
%TO.N,unconnected-(U3-D8-Pad9)*%
X161601500Y-95120000D03*
D18*
%TO.N,unconnected-(U3-D8-Pad9)_1*%
X161601500Y-95955000D03*
D17*
%TO.P,U3,10,D9/BOOT_10*%
%TO.N,unconnected-(U3-D9{slash}BOOT-Pad10)*%
X164141500Y-95120000D03*
D18*
%TO.N,unconnected-(U3-D9{slash}BOOT-Pad10)_1*%
X164141500Y-95955000D03*
D17*
%TO.P,U3,11,D10_11*%
%TO.N,unconnected-(U3-D10-Pad11)*%
X166681500Y-95120000D03*
D18*
%TO.N,unconnected-(U3-D10-Pad11)_1*%
X166681500Y-95955000D03*
D17*
%TO.P,U3,12,3V3_OUT_12*%
%TO.N,+3.3V*%
X169221500Y-95120000D03*
D18*
X169221500Y-95955000D03*
D17*
%TO.P,U3,13,GND_13*%
%TO.N,GND*%
X171761500Y-95120000D03*
D18*
X171761500Y-95955000D03*
D17*
%TO.P,U3,14,VBUS_14*%
%TO.N,+5V*%
X174301500Y-95120000D03*
D18*
X174301500Y-95955000D03*
%TD*%
D14*
%TO.P,J1,1,Pin_1_1*%
%TO.N,GND*%
X163190000Y-51992000D03*
D19*
%TO.P,J1,2,Pin_2_2*%
%TO.N,+3.3V*%
X165730000Y-51992000D03*
%TO.P,J1,3,Pin_3_3*%
%TO.N,/SCL*%
X168270000Y-51992000D03*
%TO.P,J1,4,Pin_4_4*%
%TO.N,/SDA*%
X170810000Y-51992000D03*
%TD*%
%TO.N,/GPIO3*%
D20*
X185529286Y-60420000D02*
X166681500Y-79267786D01*
X192540000Y-60420000D02*
X185529286Y-60420000D01*
X166681500Y-79267786D02*
X166681500Y-79880000D01*
%TO.N,+3.3V*%
X194500000Y-87500000D02*
X187920000Y-80920000D01*
X163676500Y-101500000D02*
X169221500Y-95955000D01*
X187920000Y-80920000D02*
X184500000Y-80920000D01*
X152500000Y-90310000D02*
X152500000Y-96000000D01*
X148000000Y-69722000D02*
X148000000Y-90500000D01*
X164580000Y-50842000D02*
X165730000Y-51992000D01*
X148000000Y-90500000D02*
X148190000Y-90310000D01*
X169221500Y-95120000D02*
X169221500Y-96197630D01*
X165730000Y-51992000D02*
X148000000Y-69722000D01*
X169221500Y-96197630D02*
X173023870Y-100000000D01*
X163142000Y-50842000D02*
X164580000Y-50842000D01*
X148190000Y-90310000D02*
X152500000Y-90310000D01*
X182000000Y-100000000D02*
X194500000Y-87500000D01*
X158000000Y-101500000D02*
X163676500Y-101500000D01*
X152500000Y-96000000D02*
X158000000Y-101500000D01*
X173023870Y-100000000D02*
X182000000Y-100000000D01*
X159300000Y-47000000D02*
X163142000Y-50842000D01*
%TO.N,/DHT11 DATA*%
X168951500Y-82690000D02*
X171761500Y-79880000D01*
X184500000Y-83460000D02*
X183450000Y-82410000D01*
X173000000Y-77806500D02*
X171761500Y-79045000D01*
X173000000Y-76500000D02*
X173000000Y-77806500D01*
X183450000Y-77050000D02*
X182709000Y-77791000D01*
X182709000Y-77791000D02*
X175791000Y-77791000D01*
X152500000Y-82690000D02*
X168951500Y-82690000D01*
X175791000Y-77791000D02*
X174500000Y-76500000D01*
X183450000Y-82410000D02*
X183450000Y-77050000D01*
X174500000Y-76500000D02*
X173000000Y-76500000D01*
%TO.N,/GPIO2*%
X171960000Y-51366346D02*
X171960000Y-71449286D01*
X158054366Y-45850000D02*
X167396346Y-45850000D01*
X168070000Y-47476346D02*
X171960000Y-51366346D01*
X166241605Y-80942000D02*
X168159500Y-80942000D01*
X168070000Y-46523654D02*
X168070000Y-47476346D01*
X146040000Y-57864366D02*
X158054366Y-45850000D01*
X146040000Y-59420000D02*
X146040000Y-57864366D01*
X165619500Y-77789786D02*
X165619500Y-80319895D01*
X167396346Y-45850000D02*
X168070000Y-46523654D01*
X165619500Y-80319895D02*
X166241605Y-80942000D01*
X171960000Y-71449286D02*
X165619500Y-77789786D01*
X168159500Y-80942000D02*
X169221500Y-79880000D01*
%TO.N,/SCL*%
X168270000Y-50890000D02*
X168270000Y-51992000D01*
X164141500Y-79880000D02*
X163079500Y-80942000D01*
X163079500Y-80942000D02*
X161161605Y-80942000D01*
X161161605Y-80942000D02*
X160539500Y-80319895D01*
X160539500Y-59722500D02*
X168270000Y-51992000D01*
X164380000Y-47000000D02*
X168270000Y-50890000D01*
X160539500Y-80319895D02*
X160539500Y-59722500D01*
%TO.N,/SDA*%
X161601500Y-61200500D02*
X170810000Y-51992000D01*
X170810000Y-50890000D02*
X170810000Y-51992000D01*
X161601500Y-79045000D02*
X161601500Y-61200500D01*
X166920000Y-47000000D02*
X170810000Y-50890000D01*
%TD*%
M02*
