%TF.GenerationSoftware,KiCad,Pcbnew,10.0.6*%
%TF.CreationDate,2026-10-06T19:30:58-04:00*%
%TF.ProjectId,Starbie,53746172-6269-4652-9e6b-696361645f70,rev?*%
%TF.SameCoordinates,Original*%
%TF.FileFunction,Soldermask,Bot*%
%TF.FilePolarity,Negative*%
%FSLAX46Y46*%
G04 Gerber Fmt 4.6, Leading zero omitted, Abs format (unit mm)*
G04 Created by KiCad (PCBNEW 10.0.6) date 2026-10-06 19:30:58*
%MOMM*%
%LPD*%
G01*
G04 APERTURE LIST*
%ADD10C,1.700000*%
%ADD11C,4.000000*%
%ADD12C,2.200000*%
%ADD13R,1.500000X1.500000*%
%ADD14C,1.500000*%
%ADD15C,1.400000*%
%ADD16R,1.700000X1.700000*%
%ADD17C,1.524000*%
%ADD18O,3.800000X2.900000*%
%ADD19O,1.700000X1.700000*%
G04 APERTURE END LIST*
D10*
%TO.C,SW2*%
X184920000Y-65500000D03*
D11*
X190000000Y-65500000D03*
D10*
X195080000Y-65500000D03*
D12*
X192540000Y-60420000D03*
X186190000Y-62960000D03*
%TD*%
D13*
%TO.C,U2*%
X184500000Y-80920000D03*
D14*
X184500000Y-83460000D03*
X184500000Y-86000000D03*
X184500000Y-88540000D03*
%TD*%
D10*
%TO.C,SW1*%
X138420000Y-64500000D03*
D11*
X143500000Y-64500000D03*
D10*
X148580000Y-64500000D03*
D12*
X146040000Y-59420000D03*
X139690000Y-61960000D03*
%TD*%
D15*
%TO.C,R1*%
X152500000Y-90310000D03*
X152500000Y-82690000D03*
%TD*%
D16*
%TO.C,J2*%
X159300000Y-47000000D03*
D10*
X161840000Y-47000000D03*
X164380000Y-47000000D03*
X166920000Y-47000000D03*
X169460000Y-47000000D03*
X172000000Y-47000000D03*
X174540000Y-47000000D03*
X177080000Y-47000000D03*
%TD*%
D17*
%TO.C,U3*%
X174301500Y-79880000D03*
X171761500Y-79880000D03*
X169221500Y-79880000D03*
X166681500Y-79880000D03*
X164141500Y-79880000D03*
X161601500Y-79880000D03*
X159061500Y-79880000D03*
X159061500Y-95120000D03*
X161601500Y-95120000D03*
X164141500Y-95120000D03*
X166681500Y-95120000D03*
X169221500Y-95120000D03*
X171761500Y-95120000D03*
X174301500Y-95120000D03*
%TD*%
D18*
%TO.C,J1*%
X155824000Y-52627000D03*
X155824000Y-75741000D03*
X178176000Y-52627000D03*
X178176000Y-75741000D03*
D16*
X163190000Y-51992000D03*
D19*
X165730000Y-51992000D03*
X168270000Y-51992000D03*
X170810000Y-51992000D03*
%TD*%
M02*
